<?xml version="1.0" encoding="UTF-8"?><svg id="Layer_2" xmlns="http://www.w3.org/2000/svg" xmlns:xlink="http://www.w3.org/1999/xlink" viewBox="0 0 122.6 37.6"><defs><style>.cls-1{fill:#ec599b;}.cls-1,.cls-2,.cls-3,.cls-4,.cls-5{stroke-width:0px;}.cls-2{fill:#b3b3b3;}.cls-6{stroke-dasharray:0 0 1.2 1.2;}.cls-6,.cls-7,.cls-8,.cls-9{fill:none;stroke:#b3b3b3;stroke-miterlimit:10;stroke-width:.3px;}.cls-3{fill:url(#linear-gradient);}.cls-7{stroke-dasharray:0 0 .9 .9;}.cls-4{fill:#999;}.cls-8{stroke-dasharray:0 0 .9 .9;}.cls-5{fill:#fff;}</style><linearGradient id="linear-gradient" x1="7.5" y1="21.4" x2="39.5" y2="21.4" gradientUnits="userSpaceOnUse"><stop offset=".4" stop-color="#ec599b"/><stop offset="1" stop-color="#910bea"/></linearGradient></defs><g id="Favicons"><g id="Favicon_32px_w_clearspace"><g id="Logo"><path class="cls-3" d="M36.7,14.5c-11.2-8-20.6,18.7-29.2,4.9.1,6.1,6.3,10.5,11.5,9.2,3.4-.6,5.4-3.9,8.3-5.5,6.5-4.8,11.1,2.5,4.1,6.8,6.1-.5,11.6-11,5.4-15.3Z"/><path class="cls-5" d="M25.9,25.9c-.2,0-.4,0-.6,0-.7-.2-1.4-.7-1.9-1.5-.8-1.1-1.5-2.1-2.3-3.1-.5-.7-1-1.4-1.5-2.1-.5-.7-1.1-1.5-1.6-2.2-1.2-1.6-2.3-3.1-3.3-4.6s-1.6-2.5-2.4-3.6-.2-.4-.2-.6c0-.2,0-.4.1-.5.1,0,.3,0,.5,0,.7.3,1.4,1.3,2,2,1.5,1.6,2.3,2.6,3.8,4.5.9,1,1.7,2.2,2.7,3.4,1.2,1.5,2.5,3.1,3.9,4.8.5.6.8,1.5,1,2.6.1.7,0,.8-.2.8Z"/><path class="cls-5" d="M30.6,29.7c-.3-.2-.7-.3-.9-.5-.4-.3-.6-.8-.6-1.3,0-.5,0-1.1-.1-1.6-.2-1-1-1.3-1.9-.9,0,0-.2.1-.2.2-.2.9-.5,1.1-1.4,1.2,0,0,0,0,0,0,0,.7,0,1.3.6,1.8.5.5,1.1.8,1.8,1,.8.2,1.6.3,2.4.2.1,0,.2,0,.4,0Z"/></g><path class="cls-4" d="M17,37.5c0-.6-.1-1.1-.1-1.6,0-3.1,1.6-4.7,3.5-4.7,2.8,0,5.2,2.9,6.6,6.2h4.3c-.7-5-4.7-7.4-8.7-7.4s-8,2.5-8.7,7.4h3.1Z"/><path class="cls-4" d="M17.9.1c0,.6-.1,1.1-.1,1.6,0,3.1,1.6,4.7,3.5,4.7,2.8,0,5.2-2.9,6.6-6.2h4.3c-.7,5-4.7,7.4-8.7,7.4S15.6,5.1,14.8.1h3.1Z"/><path class="cls-4" d="M46.9,13.9c-.6,0-1.1-.1-1.6-.1-3.1,0-4.7,1.6-4.7,3.5,0,2.8,2.9,5.2,6.2,6.6v4.3c-5-.7-7.4-4.7-7.4-8.7,0-4,2.5-8,7.4-8.7v3.1Z"/><path class="cls-4" d="M.1,13.9c.6,0,1.1-.1,1.6-.1,3.1,0,4.7,1.6,4.7,3.5,0,2.8-2.9,5.2-6.2,6.6v4.3c5-.7,7.4-4.7,7.4-8.7S5.1,11.6.1,10.8v3.1Z"/><path class="cls-2" d="M39.5,7.8v22H7.6V7.8h31.9M39.8,7.6H7.3v22.5h32.4V7.6h0Z"/><rect class="cls-9" x=".1" y=".1" width="46.8" height="37.4"/><polyline class="cls-9" points="46.9 37 46.9 37.5 46.4 37.5"/><line class="cls-6" x1="45.2" y1="37.5" x2="40.9" y2="37.5"/><polyline class="cls-9" points="40.3 37.5 39.8 37.5 39.8 37"/><line class="cls-7" x1="39.8" y1="36.1" x2="39.8" y2="31"/><polyline class="cls-9" points="39.8 30.6 39.8 30.1 40.3 30.1"/><line class="cls-6" x1="41.5" y1="30.1" x2="45.8" y2="30.1"/><polyline class="cls-9" points="46.4 30.1 46.9 30.1 46.9 30.6"/><line class="cls-7" x1="46.9" y1="31.5" x2="46.9" y2="36.5"/><polyline class="cls-9" points="7.3 37 7.3 37.5 6.8 37.5"/><line class="cls-6" x1="5.5" y1="37.5" x2="1.3" y2="37.5"/><polyline class="cls-9" points=".7 37.5 .1 37.5 .1 37"/><line class="cls-7" x1=".1" y1="36.1" x2=".1" y2="31"/><polyline class="cls-9" points=".1 30.6 .1 30.1 .7 30.1"/><line class="cls-6" x1="1.9" y1="30.1" x2="6.2" y2="30.1"/><polyline class="cls-9" points="6.8 30.1 7.3 30.1 7.3 30.6"/><line class="cls-7" x1="7.3" y1="31.5" x2="7.3" y2="36.5"/><polyline class="cls-9" points="46.9 7 46.9 7.6 46.4 7.6"/><line class="cls-8" x1="45.5" y1="7.6" x2="40.6" y2="7.6"/><polyline class="cls-9" points="40.2 7.6 39.6 7.6 39.6 7"/><line class="cls-7" x1="39.6" y1="6.1" x2="39.6" y2="1.1"/><polyline class="cls-9" points="39.6 .7 39.6 .1 40.2 .1"/><line class="cls-8" x1="41.1" y1=".1" x2="46" y2=".1"/><polyline class="cls-9" points="46.4 .1 46.9 .1 46.9 .7"/><line class="cls-7" x1="46.9" y1="1.6" x2="46.9" y2="6.6"/><polyline class="cls-9" points="7.3 7 7.3 7.6 6.8 7.6"/><line class="cls-6" x1="5.5" y1="7.6" x2="1.3" y2="7.6"/><polyline class="cls-9" points=".7 7.6 .1 7.6 .1 7"/><line class="cls-7" x1=".1" y1="6.1" x2=".1" y2="1.1"/><polyline class="cls-9" points=".1 .7 .1 .1 .7 .1"/><line class="cls-6" x1="1.9" y1=".1" x2="6.2" y2=".1"/><polyline class="cls-9" points="6.8 .1 7.3 .1 7.3 .7"/><line class="cls-7" x1="7.3" y1="1.6" x2="7.3" y2="6.6"/><rect class="cls-1" x="46.8" y="29.9" width=".3" height="7.4"/><path class="cls-1" d="M51.9,30.7l1.6,4.1,1.6-4.1h.9v5h-.7v-4c0,0-1.6,4-1.6,4h-.5l-1.6-4v2.1c0,0,0,1.9,0,1.9h-.7v-5h.8Z"/><path class="cls-1" d="M59.4,35.7c0,0,0-.2,0-.4-.3.3-.6.5-1.1.5s-.7-.1-.9-.3-.3-.5-.3-.8.1-.7.4-.9.7-.3,1.2-.3h.6v-.3c0-.2,0-.4-.2-.5-.1-.1-.3-.2-.6-.2s-.4,0-.6.2-.2.3-.2.4h-.6c0-.2,0-.4.2-.5.1-.2.3-.3.5-.4s.5-.2.7-.2c.4,0,.8.1,1,.3.2.2.4.5.4.9v1.7c0,.3,0,.6.1.8h0c0,0-.7,0-.7,0ZM58.3,35.2c.2,0,.4,0,.6-.2s.3-.2.4-.4v-.8h-.5c-.8,0-1.2.2-1.2.7s0,.4.2.5c.1.1.3.2.5.2Z"/><path class="cls-1" d="M62.7,32.5c0,0-.2,0-.3,0-.4,0-.7.2-.8.5v2.6h-.6v-3.7h.6v.4c.2-.3.5-.5.9-.5s.2,0,.3,0v.6Z"/><path class="cls-1" d="M63.1,33.8c0-.6.1-1,.4-1.4.3-.3.6-.5,1.1-.5s.8.2,1.1.5v-.4h.6v3.6c0,.5-.1.9-.4,1.1-.3.3-.7.4-1.1.4s-.5,0-.8-.2c-.3-.1-.5-.3-.6-.5l.3-.4c.3.3.6.5,1,.5s.5,0,.7-.3c.2-.2.3-.4.3-.7v-.3c-.3.3-.6.4-1,.4s-.8-.2-1.1-.5-.4-.8-.4-1.4ZM63.7,33.9c0,.4,0,.7.3,1,.2.2.4.4.7.4s.7-.2.9-.5v-1.7c-.2-.4-.5-.5-.9-.5s-.5.1-.7.4-.3.6-.3,1.1Z"/><path class="cls-1" d="M67.1,31c0-.1,0-.2,0-.3s.2-.1.3-.1.2,0,.3.1,0,.2,0,.3,0,.2,0,.3-.2.1-.3.1-.2,0-.3-.1,0-.2,0-.3ZM67.8,35.7h-.6v-3.7h.6v3.7Z"/><path class="cls-1" d="M69.4,32v.5c.3-.4.7-.5,1.1-.5.8,0,1.2.4,1.2,1.3v2.4h-.6v-2.4c0-.3,0-.5-.2-.6-.1-.1-.3-.2-.6-.2s-.4,0-.5.2c-.2.1-.3.3-.4.4v2.6h-.6v-3.7h.6Z"/><path class="cls-1" d="M76.2,32.5c0,0-.2,0-.3,0-.4,0-.7.2-.8.5v2.6h-.6v-3.7h.6v.4c.2-.3.5-.5.9-.5s.2,0,.3,0v.6Z"/><path class="cls-1" d="M78.3,35.7c-.5,0-.9-.2-1.2-.5s-.5-.8-.5-1.3h0c0-.5,0-.8.2-1.1.1-.3.3-.5.6-.7.3-.2.5-.2.8-.2.5,0,.9.2,1.1.5s.4.8.4,1.4v.3h-2.5c0,.4.1.7.3.9.2.2.5.3.8.3s.4,0,.6-.1c.2,0,.3-.2.4-.4l.4.3c-.3.5-.8.7-1.4.7ZM78.2,32.4c-.3,0-.5,0-.6.3-.2.2-.3.4-.3.8h1.9c0-.4-.1-.6-.3-.8-.2-.2-.4-.3-.6-.3Z"/><path class="cls-1" d="M80.3,33.8c0-.6.1-1,.4-1.4.3-.3.6-.5,1.1-.5s.8.1,1,.4v-.4h.6v5.1h-.6v-1.8c-.3.3-.6.4-1,.4s-.8-.2-1.1-.5-.4-.8-.4-1.4h0ZM80.9,33.9c0,.4,0,.8.3,1,.2.2.4.4.7.4s.7-.2.9-.5v-1.8c-.2-.3-.5-.5-.9-.5s-.5.1-.7.4c-.2.2-.3.6-.3,1.1Z"/><path class="cls-1" d="M86.7,35.3c-.2.3-.6.4-1.1.4s-.7-.1-.9-.3c-.2-.2-.3-.6-.3-1v-2.4h.6v2.4c0,.6.2.8.7.8s.8-.2,1-.5v-2.7h.6v3.7h-.6v-.4Z"/><path class="cls-1" d="M88.3,31c0-.1,0-.2,0-.3s.2-.1.3-.1.2,0,.3.1,0,.2,0,.3,0,.2,0,.3-.2.1-.3.1-.2,0-.3-.1,0-.2,0-.3ZM89,35.7h-.6v-3.7h.6v3.7Z"/><path class="cls-1" d="M91.8,32.5c0,0-.2,0-.3,0-.4,0-.7.2-.8.5v2.6h-.6v-3.7h.6v.4c.2-.3.5-.5.9-.5s.2,0,.3,0v.6Z"/><path class="cls-1" d="M93.8,35.7c-.5,0-.9-.2-1.2-.5s-.5-.8-.5-1.3h0c0-.5,0-.8.2-1.1.1-.3.3-.5.6-.7.3-.2.5-.2.8-.2.5,0,.9.2,1.1.5s.4.8.4,1.4v.3h-2.5c0,.4.1.7.3.9.2.2.5.3.8.3s.4,0,.6-.1c.2,0,.3-.2.4-.4l.4.3c-.3.5-.8.7-1.4.7ZM93.7,32.4c-.3,0-.5,0-.6.3-.2.2-.3.4-.3.8h1.9c0-.4-.1-.6-.3-.8-.2-.2-.4-.3-.6-.3Z"/><path class="cls-1" d="M95.8,33.8c0-.6.1-1,.4-1.4.3-.3.6-.5,1.1-.5s.8.1,1,.4v-1.9h.6v5.2h-.6v-.4c-.3.3-.6.5-1.1.5s-.8-.2-1-.5c-.3-.4-.4-.8-.4-1.4h0ZM96.5,33.9c0,.4,0,.7.3,1,.2.2.4.4.7.4s.7-.2.9-.5v-1.7c-.2-.3-.5-.5-.9-.5s-.6.1-.7.4-.3.6-.3,1.1Z"/><path class="cls-1" d="M99.9,35.3c0-.1,0-.2,0-.3,0,0,.2-.1.3-.1s.2,0,.3.1c0,0,.1.2.1.3s0,.2-.1.3c0,0-.2.1-.3.1s-.2,0-.3-.1c0,0,0-.2,0-.3ZM99.9,32.3c0-.1,0-.2,0-.3,0,0,.2-.1.3-.1s.2,0,.3.1.1.2.1.3,0,.2-.1.3-.2.1-.3.1-.2,0-.3-.1c0,0,0-.2,0-.3Z"/><path class="cls-1" d="M106.5,31l-2.1,4.6h-.7l2.1-4.5h-2.7v-.5h3.4v.4Z"/><path class="cls-1" d="M107.3,35.3c0-.1,0-.2,0-.3,0,0,.2-.1.3-.1s.2,0,.3.1c0,0,.1.2.1.3s0,.2-.1.3c0,0-.2.1-.3.1s-.2,0-.3-.1c0,0,0-.2,0-.3Z"/><path class="cls-1" d="M111.7,34h.7v.5h-.7v1.2h-.6v-1.2h-2.3v-.4l2.2-3.4h.7v3.3ZM109.6,34h1.5v-2.4h0c0,.1-1.5,2.4-1.5,2.4Z"/><path class="cls-1" d="M116.2,33.9c0,.6-.1,1-.4,1.4-.3.3-.6.5-1,.5s-.8-.1-1.1-.4v1.8h-.6v-5.1h.6v.4c.3-.3.6-.5,1.1-.5s.8.2,1.1.5.4.8.4,1.4h0ZM115.6,33.8c0-.4,0-.7-.3-1s-.4-.4-.7-.4-.7.2-.9.5v1.8c.2.3.5.5.9.5s.5-.1.7-.4.3-.6.3-1.1Z"/><path class="cls-1" d="M118.2,33.3l.8-1.4h.7l-1.2,1.8,1.2,1.9h-.7l-.9-1.4-.9,1.4h-.7l1.2-1.9-1.2-1.8h.7l.8,1.4Z"/></g></g></svg>