<?xml version="1.0" encoding="UTF-8"?><svg id="Layer_2" xmlns="http://www.w3.org/2000/svg" xmlns:xlink="http://www.w3.org/1999/xlink" viewBox="0 0 147.1 56.9"><defs><style>.cls-1{fill:#ec599b;}.cls-1,.cls-2,.cls-3,.cls-4,.cls-5{stroke-width:0px;}.cls-2{fill:#b3b3b3;}.cls-3{fill:url(#linear-gradient);}.cls-6{stroke-dasharray:0 0 1.4 1.4;}.cls-6,.cls-7,.cls-8,.cls-9{fill:none;stroke:#b3b3b3;stroke-miterlimit:10;stroke-width:.4px;}.cls-7{stroke-dasharray:0 0 1.3 1.3;}.cls-4{fill:#999;}.cls-5{fill:#fff;}.cls-9{stroke-dasharray:0 0 1.8 1.8;}</style><linearGradient id="linear-gradient" x1="11.6" y1="32.4" x2="59.6" y2="32.4" gradientUnits="userSpaceOnUse"><stop offset=".4" stop-color="#ec599b"/><stop offset="1" stop-color="#910bea"/></linearGradient></defs><g id="Favicons"><g id="Favicon_48px_w_clearspace"><g id="Logo"><path class="cls-3" d="M55.5,22c-16.8-12-30.8,28.1-43.9,7.3.2,9.2,9.4,15.7,17.3,13.7,5.1-.9,8.1-5.9,12.5-8.3,9.7-7.1,16.6,3.7,6.1,10.2,9.2-.7,17.4-16.5,8-23Z"/><path class="cls-5" d="M39.2,39.2c-.2,0-.5,0-.9,0-1-.2-2-1-2.9-2.2-1.2-1.6-2.3-3.1-3.4-4.6-.8-1.1-1.6-2.1-2.3-3.1-.8-1.1-1.6-2.2-2.4-3.2-1.8-2.5-3.5-4.7-5-6.8s-2.4-3.8-3.5-5.4-.3-.6-.3-1c0-.2,0-.5.2-.7.2-.1.5,0,.7,0,1,.4,2.1,1.9,3.1,3,2.2,2.4,3.4,3.9,5.7,6.7,1.3,1.6,2.6,3.3,4,5,1.8,2.2,3.7,4.7,5.8,7.3.8.9,1.3,2.2,1.5,3.9.2,1.1,0,1.1-.4,1.2Z"/><path class="cls-5" d="M46.3,44.8c-.5-.3-1-.4-1.4-.8-.6-.5-.9-1.2-.9-2,0-.8,0-1.6-.2-2.4-.3-1.5-1.4-2-2.8-1.4-.1,0-.3.2-.3.3-.4,1.3-.8,1.6-2.1,1.8,0,0,0,0-.1,0-.1,1.1.1,2,.9,2.8.7.8,1.7,1.2,2.7,1.5,1.2.3,2.4.4,3.7.3.2,0,.4,0,.6-.1Z"/></g><path class="cls-4" d="M25.7,56.7c-.1-.8-.2-1.6-.2-2.4,0-4.6,2.4-7,5.4-7,4.3,0,7.9,4.4,10,9.4h6.5c-1.1-7.5-7.1-11.2-13.2-11.2s-12,3.8-13.1,11.2h4.7Z"/><path class="cls-4" d="M27.1.2c-.1.8-.2,1.6-.2,2.4,0,4.6,2.4,7,5.4,7,4.3,0,7.9-4.4,10-9.4h6.5c-1.1,7.5-7.1,11.2-13.2,11.2S23.5,7.7,22.4.2h4.7Z"/><path class="cls-4" d="M70.9,21c-.8-.1-1.6-.2-2.4-.2-4.6,0-7,2.4-7,5.4,0,4.3,4.4,7.9,9.4,10v6.5c-7.5-1.1-11.2-7.1-11.2-13.2,0-6,3.8-12,11.2-13.1v4.7Z"/><path class="cls-4" d="M.2,21c.8-.1,1.6-.2,2.4-.2,4.6,0,7,2.4,7,5.4,0,4.3-4.4,7.9-9.4,10v6.5c7.5-1.1,11.2-7.1,11.2-13.2,0-6-3.8-12-11.2-13.1v4.7Z"/><path class="cls-2" d="M59.7,11.8v33.2H11.4V11.8h48.2M60.1,11.4H11v34h49V11.4h0Z"/><rect class="cls-8" x=".2" y=".2" width="70.7" height="56.5"/><polyline class="cls-8" points="70.9 55.9 70.9 56.7 70.1 56.7"/><line class="cls-9" x1="68.3" y1="56.7" x2="61.8" y2="56.7"/><polyline class="cls-8" points="60.9 56.7 60.1 56.7 60.1 55.9"/><line class="cls-6" x1="60.1" y1="54.5" x2="60.1" y2="46.9"/><polyline class="cls-8" points="60.1 46.2 60.1 45.4 60.9 45.4"/><line class="cls-9" x1="62.7" y1="45.4" x2="69.2" y2="45.4"/><polyline class="cls-8" points="70.1 45.4 70.9 45.4 70.9 46.2"/><line class="cls-6" x1="70.9" y1="47.6" x2="70.9" y2="55.2"/><polyline class="cls-8" points="11 55.9 11 56.7 10.2 56.7"/><line class="cls-9" x1="8.4" y1="56.7" x2="1.9" y2="56.7"/><polyline class="cls-8" points="1 56.7 .2 56.7 .2 55.9"/><line class="cls-6" x1=".2" y1="54.5" x2=".2" y2="46.9"/><polyline class="cls-8" points=".2 46.2 .2 45.4 1 45.4"/><line class="cls-9" x1="2.8" y1="45.4" x2="9.3" y2="45.4"/><polyline class="cls-8" points="10.2 45.4 11 45.4 11 46.2"/><line class="cls-6" x1="11" y1="47.6" x2="11" y2="55.2"/><polyline class="cls-8" points="70.9 10.7 70.9 11.4 70.1 11.4"/><line class="cls-7" x1="68.8" y1="11.4" x2="61.4" y2="11.4"/><polyline class="cls-8" points="60.7 11.4 59.9 11.4 59.9 10.7"/><line class="cls-6" x1="59.9" y1="9.3" x2="59.9" y2="1.7"/><polyline class="cls-8" points="59.9 1 59.9 .2 60.7 .2"/><line class="cls-7" x1="62" y1=".2" x2="69.5" y2=".2"/><polyline class="cls-8" points="70.1 .2 70.9 .2 70.9 1"/><line class="cls-6" x1="70.9" y1="2.4" x2="70.9" y2="10"/><polyline class="cls-8" points="11 10.7 11 11.4 10.2 11.4"/><line class="cls-9" x1="8.4" y1="11.4" x2="1.9" y2="11.4"/><polyline class="cls-8" points="1 11.4 .2 11.4 .2 10.7"/><line class="cls-6" x1=".2" y1="9.3" x2=".2" y2="1.7"/><polyline class="cls-8" points=".2 1 .2 .2 1 .2"/><line class="cls-9" x1="2.8" y1=".2" x2="9.3" y2=".2"/><polyline class="cls-8" points="10.2 .2 11 .2 11 1"/><line class="cls-6" x1="11" y1="2.4" x2="11" y2="10"/><rect class="cls-1" x="70.7" y="45.2" width=".4" height="11.2"/><path class="cls-1" d="M76.4,47.7l1.6,4.1,1.6-4.1h.9v5h-.7v-4c0,0-1.6,4-1.6,4h-.5l-1.6-4v2.1c0,0,0,1.9,0,1.9h-.7v-5h.8Z"/><path class="cls-1" d="M83.9,52.6c0,0,0-.2,0-.4-.3.3-.6.5-1.1.5s-.7-.1-.9-.3c-.2-.2-.3-.5-.3-.8s.1-.7.4-.9c.3-.2.7-.3,1.2-.3h.6v-.3c0-.2,0-.4-.2-.5-.1-.1-.3-.2-.6-.2s-.4,0-.6.2-.2.3-.2.4h-.6c0-.2,0-.4.2-.5.1-.2.3-.3.5-.4s.5-.2.7-.2c.4,0,.8.1,1,.3.2.2.4.5.4.9v1.7c0,.3,0,.6.1.8h0c0,0-.7,0-.7,0ZM82.8,52.2c.2,0,.4,0,.6-.2s.3-.2.4-.4v-.8h-.5c-.8,0-1.2.2-1.2.7s0,.4.2.5.3.2.5.2Z"/><path class="cls-1" d="M87.2,49.5c0,0-.2,0-.3,0-.4,0-.7.2-.8.5v2.6h-.6v-3.7h.6v.4c.2-.3.5-.5.9-.5s.2,0,.3,0v.6Z"/><path class="cls-1" d="M87.6,50.8c0-.6.1-1,.4-1.4.3-.3.6-.5,1.1-.5s.8.2,1.1.5v-.4h.6v3.6c0,.5-.1.9-.4,1.1-.3.3-.7.4-1.1.4s-.5,0-.8-.2-.5-.3-.6-.5l.3-.4c.3.3.6.5,1,.5s.5,0,.7-.3.3-.4.3-.7v-.3c-.3.3-.6.4-1,.4s-.8-.2-1.1-.5-.4-.8-.4-1.4ZM88.2,50.8c0,.4,0,.7.3,1,.2.2.4.4.7.4s.7-.2.9-.5v-1.7c-.2-.4-.5-.5-.9-.5s-.5.1-.7.4-.3.6-.3,1.1Z"/><path class="cls-1" d="M91.6,48c0-.1,0-.2,0-.3s.2-.1.3-.1.2,0,.3.1,0,.2,0,.3,0,.2,0,.3-.2.1-.3.1-.2,0-.3-.1,0-.2,0-.3ZM92.3,52.6h-.6v-3.7h.6v3.7Z"/><path class="cls-1" d="M93.9,48.9v.5c.3-.4.7-.5,1.1-.5.8,0,1.2.4,1.2,1.3v2.4h-.6v-2.4c0-.3,0-.5-.2-.6-.1-.1-.3-.2-.6-.2s-.4,0-.5.2c-.2.1-.3.3-.4.4v2.6h-.6v-3.7h.6Z"/><path class="cls-1" d="M100.7,49.5c0,0-.2,0-.3,0-.4,0-.7.2-.8.5v2.6h-.6v-3.7h.6v.4c.2-.3.5-.5.9-.5s.2,0,.3,0v.6Z"/><path class="cls-1" d="M102.8,52.7c-.5,0-.9-.2-1.2-.5-.3-.3-.5-.8-.5-1.3h0c0-.5,0-.8.2-1.1.1-.3.3-.5.6-.7.3-.2.5-.2.8-.2.5,0,.9.2,1.1.5s.4.8.4,1.4v.3h-2.5c0,.4.1.7.3.9.2.2.5.3.8.3s.4,0,.6-.1c.2,0,.3-.2.4-.4l.4.3c-.3.5-.8.7-1.4.7ZM102.7,49.4c-.3,0-.5,0-.6.3-.2.2-.3.4-.3.8h1.9c0-.4-.1-.6-.3-.8-.2-.2-.4-.3-.6-.3Z"/><path class="cls-1" d="M104.8,50.8c0-.6.1-1,.4-1.4.3-.3.6-.5,1.1-.5s.8.1,1,.4v-.4h.6v5.1h-.6v-1.8c-.3.3-.6.4-1,.4s-.8-.2-1.1-.5c-.3-.3-.4-.8-.4-1.4h0ZM105.4,50.8c0,.4,0,.8.3,1s.4.4.7.4.7-.2.9-.5v-1.8c-.2-.3-.5-.5-.9-.5s-.5.1-.7.4c-.2.2-.3.6-.3,1.1Z"/><path class="cls-1" d="M111.2,52.3c-.2.3-.6.4-1.1.4s-.7-.1-.9-.3c-.2-.2-.3-.6-.3-1v-2.4h.6v2.4c0,.6.2.8.7.8s.8-.2,1-.5v-2.7h.6v3.7h-.6v-.4Z"/><path class="cls-1" d="M112.8,48c0-.1,0-.2,0-.3s.2-.1.3-.1.2,0,.3.1,0,.2,0,.3,0,.2,0,.3-.2.1-.3.1-.2,0-.3-.1,0-.2,0-.3ZM113.5,52.6h-.6v-3.7h.6v3.7Z"/><path class="cls-1" d="M116.3,49.5c0,0-.2,0-.3,0-.4,0-.7.2-.8.5v2.6h-.6v-3.7h.6v.4c.2-.3.5-.5.9-.5s.2,0,.3,0v.6Z"/><path class="cls-1" d="M118.3,52.7c-.5,0-.9-.2-1.2-.5-.3-.3-.5-.8-.5-1.3h0c0-.5,0-.8.2-1.1.1-.3.3-.5.6-.7.3-.2.5-.2.8-.2.5,0,.9.2,1.1.5s.4.8.4,1.4v.3h-2.5c0,.4.1.7.3.9.2.2.5.3.8.3s.4,0,.6-.1c.2,0,.3-.2.4-.4l.4.3c-.3.5-.8.7-1.4.7ZM118.2,49.4c-.3,0-.5,0-.6.3-.2.2-.3.4-.3.8h1.9c0-.4-.1-.6-.3-.8-.2-.2-.4-.3-.6-.3Z"/><path class="cls-1" d="M120.3,50.8c0-.6.1-1,.4-1.4.3-.3.6-.5,1.1-.5s.8.1,1,.4v-1.9h.6v5.2h-.6v-.4c-.3.3-.6.5-1.1.5s-.8-.2-1-.5c-.3-.4-.4-.8-.4-1.4h0ZM121,50.8c0,.4,0,.7.3,1s.4.4.7.4.7-.2.9-.5v-1.7c-.2-.3-.5-.5-.9-.5s-.6.1-.7.4-.3.6-.3,1.1Z"/><path class="cls-1" d="M124.4,52.3c0-.1,0-.2,0-.3,0,0,.2-.1.3-.1s.2,0,.3.1.1.2.1.3,0,.2-.1.3-.2.1-.3.1-.2,0-.3-.1c0,0,0-.2,0-.3ZM124.4,49.3c0-.1,0-.2,0-.3,0,0,.2-.1.3-.1s.2,0,.3.1.1.2.1.3,0,.2-.1.3-.2.1-.3.1-.2,0-.3-.1c0,0,0-.2,0-.3Z"/><path class="cls-1" d="M129.9,52.6h-.6v-4.2l-1.3.5v-.6l1.8-.7h0v5Z"/><path class="cls-1" d="M133.8,52.6h-.6v-4.2l-1.3.5v-.6l1.8-.7h0v5Z"/><path class="cls-1" d="M138.9,50.8c0,.6-.1,1-.4,1.4-.3.3-.6.5-1,.5s-.8-.1-1.1-.4v1.8h-.6v-5.1h.6v.4c.3-.3.6-.5,1.1-.5s.8.2,1.1.5.4.8.4,1.4h0ZM138.2,50.8c0-.4,0-.7-.3-1s-.4-.4-.7-.4-.7.2-.9.5v1.8c.2.3.5.5.9.5s.5-.1.7-.4c.2-.2.3-.6.3-1.1Z"/><path class="cls-1" d="M140.8,50.3l.8-1.4h.7l-1.2,1.8,1.2,1.9h-.7l-.9-1.4-.9,1.4h-.7l1.2-1.9-1.2-1.8h.7l.8,1.4Z"/></g></g></svg>