<?xml version="1.0" encoding="UTF-8"?><svg id="Layer_2" xmlns="http://www.w3.org/2000/svg" xmlns:xlink="http://www.w3.org/1999/xlink" viewBox="0 0 248.1 193"><defs><style>.cls-1{fill:#ec599b;}.cls-1,.cls-2,.cls-3,.cls-4,.cls-5,.cls-6,.cls-7,.cls-8,.cls-9,.cls-10{stroke-width:0px;}.cls-2{fill:#b3b3b3;}.cls-11{stroke-dasharray:0 0 1.2 1.2;}.cls-11,.cls-12,.cls-13,.cls-14,.cls-15,.cls-16,.cls-17,.cls-18,.cls-19,.cls-20,.cls-21,.cls-22{fill:none;stroke:#b3b3b3;stroke-miterlimit:10;}.cls-11,.cls-16,.cls-17,.cls-20{stroke-width:.3px;}.cls-3{fill:url(#linear-gradient);}.cls-12{stroke-dasharray:0 0 1.4 1.4;}.cls-12,.cls-15,.cls-18,.cls-22{stroke-width:.4px;}.cls-13{stroke-dasharray:0 0 .6 .6;}.cls-13,.cls-14,.cls-19,.cls-21{stroke-width:.1px;}.cls-14{stroke-dasharray:0 0 .4 .4;}.cls-15{stroke-dasharray:0 0 1.3 1.3;}.cls-16{stroke-dasharray:0 0 .9 .9;}.cls-4{fill:#999;}.cls-17{stroke-dasharray:0 0 .9 .9;}.cls-5{fill:url(#linear-gradient-4);}.cls-6{fill:url(#linear-gradient-2);}.cls-7{fill:url(#linear-gradient-3);}.cls-8{fill:url(#linear-gradient-5);}.cls-9{fill:url(#linear-gradient-6);}.cls-10{fill:#fff;}.cls-19{stroke-dasharray:0 0 .5 .5;}.cls-22{stroke-dasharray:0 0 1.8 1.8;}</style><linearGradient id="linear-gradient" x1="216.1" y1="185.2" x2="232.1" y2="185.2" gradientUnits="userSpaceOnUse"><stop offset=".4" stop-color="#ec599b"/><stop offset="1" stop-color="#910bea"/></linearGradient><linearGradient id="linear-gradient-2" x1="208.1" y1="112.5" x2="240.1" y2="112.5" xlink:href="#linear-gradient"/><linearGradient id="linear-gradient-3" x1="200.1" y1="37" x2="248.1" y2="37" xlink:href="#linear-gradient"/><linearGradient id="linear-gradient-4" x1="13.8" y1="32.4" x2="61.8" y2="32.4" xlink:href="#linear-gradient"/><linearGradient id="linear-gradient-5" x1="7.5" y1="111.8" x2="39.5" y2="111.8" xlink:href="#linear-gradient"/><linearGradient id="linear-gradient-6" x1="3.9" y1="182.4" x2="19.9" y2="182.4" xlink:href="#linear-gradient"/></defs><g id="Favicons"><g id="Logo_32px"><path class="cls-3" d="M230.7,181.8c-5.6-4-10.3,9.4-14.6,2.4,0,3.1,3.1,5.2,5.8,4.6,1.7-.3,2.7-2,4.2-2.8,3.2-2.4,5.5,1.2,2,3.4,3.1-.2,5.8-5.5,2.7-7.7Z"/><g id="Brush"><path class="cls-10" d="M225.3,187.5c0,0-.2,0-.3,0-.3,0-.7-.3-1-.7-.4-.5-.8-1-1.1-1.5-.3-.4-.5-.7-.8-1-.3-.4-.5-.7-.8-1.1-.6-.8-1.2-1.6-1.7-2.3s-.8-1.3-1.2-1.8,0-.2-.1-.3c0,0,0-.2,0-.2,0,0,.2,0,.2,0,.3.1.7.6,1,1,.7.8,1.1,1.3,1.9,2.2s.9,1.1,1.3,1.7c.6.7,1.2,1.6,1.9,2.4.3.3.4.7.5,1.3,0,.4,0,.4-.1.4Z"/><path class="cls-10" d="M227.6,189.4c-.2,0-.3-.1-.5-.3-.2-.2-.3-.4-.3-.7,0-.3,0-.5,0-.8-.1-.5-.5-.7-.9-.5,0,0,0,0-.1.1-.1.4-.3.5-.7.6,0,0,0,0,0,0,0,.4,0,.7.3.9.2.3.6.4.9.5.4.1.8.1,1.2,0,0,0,.1,0,.2,0Z"/></g></g><g id="Logo_16px"><path class="cls-6" d="M237.3,105.6c-11.2-8-20.6,18.7-29.2,4.9.1,6.1,6.3,10.5,11.5,9.2,3.4-.6,5.4-3.9,8.3-5.5,6.5-4.8,11.1,2.5,4.1,6.8,6.1-.5,11.6-11,5.4-15.3Z"/><g id="Brush-2"><path class="cls-10" d="M226.5,117.1c-.2,0-.4,0-.6,0-.7-.2-1.4-.7-1.9-1.5-.8-1.1-1.5-2.1-2.3-3.1-.5-.7-1-1.4-1.5-2.1-.5-.7-1.1-1.5-1.6-2.2-1.2-1.6-2.3-3.1-3.3-4.6s-1.6-2.5-2.4-3.6-.2-.4-.2-.6c0-.2,0-.4.1-.5.1,0,.3,0,.5,0,.7.3,1.4,1.3,2,2,1.5,1.6,2.3,2.6,3.8,4.5.9,1,1.7,2.2,2.7,3.4,1.2,1.5,2.5,3.1,3.9,4.8.5.6.8,1.5,1,2.6.1.7,0,.8-.2.8Z"/><path class="cls-10" d="M231.2,120.8c-.3-.2-.7-.3-.9-.5-.4-.3-.6-.8-.6-1.3,0-.5,0-1.1-.1-1.6-.2-1-1-1.3-1.9-.9,0,0-.2.1-.2.2-.2.9-.5,1.1-1.4,1.2,0,0,0,0,0,0,0,.7,0,1.3.6,1.8.5.5,1.1.8,1.8,1,.8.2,1.6.3,2.4.2.1,0,.2,0,.4,0Z"/></g></g><g id="Logo_16px-2"><path class="cls-7" d="M243.9,26.7c-16.8-12-30.8,28.1-43.9,7.3.2,9.2,9.4,15.7,17.3,13.7,5.1-.9,8.1-5.9,12.5-8.3,9.7-7.1,16.6,3.7,6.1,10.2,9.2-.7,17.4-16.5,8-23Z"/><g id="Brush-3"><path class="cls-10" d="M227.7,43.9c-.2,0-.5,0-.9,0-1-.2-2-1-2.9-2.2-1.2-1.6-2.3-3.1-3.4-4.6-.8-1.1-1.6-2.1-2.3-3.1-.8-1.1-1.6-2.2-2.4-3.2-1.8-2.5-3.5-4.7-5-6.8-1.3-1.9-2.4-3.8-3.5-5.4s-.3-.6-.3-1c0-.2,0-.5.2-.7.2-.1.5,0,.7,0,1,.4,2.1,1.9,3.1,3,2.2,2.4,3.4,3.9,5.7,6.7,1.3,1.6,2.6,3.3,4,5,1.8,2.2,3.7,4.7,5.8,7.3.8.9,1.3,2.2,1.5,3.9.2,1.1,0,1.1-.4,1.2Z"/><path class="cls-10" d="M234.8,49.5c-.5-.3-1-.4-1.4-.8-.6-.5-.9-1.2-.9-2,0-.8,0-1.6-.2-2.4-.3-1.5-1.4-2-2.8-1.4-.1,0-.3.2-.3.3-.4,1.3-.8,1.6-2.1,1.8,0,0,0,0-.1,0-.1,1.1.1,2,.9,2.8.7.8,1.7,1.2,2.7,1.5,1.2.3,2.4.4,3.7.3.2,0,.4,0,.6-.1Z"/></g></g><g id="Favicon_48px_w_clearspace"><g id="Logo"><path class="cls-5" d="M57.7,22c-16.8-12-30.8,28.1-43.9,7.3.2,9.2,9.4,15.7,17.3,13.7,5.1-.9,8.1-5.9,12.5-8.3,9.7-7.1,16.6,3.7,6.1,10.2,9.2-.7,17.4-16.5,8-23Z"/><path class="cls-10" d="M41.4,39.2c-.2,0-.5,0-.9,0-1-.2-2-1-2.9-2.2-1.2-1.6-2.3-3.1-3.4-4.6-.8-1.1-1.6-2.1-2.3-3.1-.8-1.1-1.6-2.2-2.4-3.2-1.8-2.5-3.5-4.7-5-6.8s-2.4-3.8-3.5-5.4-.3-.6-.3-1c0-.2,0-.5.2-.7.2-.1.5,0,.7,0,1,.4,2.1,1.9,3.1,3,2.2,2.4,3.4,3.9,5.7,6.7,1.3,1.6,2.6,3.3,4,5,1.8,2.2,3.7,4.7,5.8,7.3.8.9,1.3,2.2,1.5,3.9.2,1.1,0,1.1-.4,1.2Z"/><path class="cls-10" d="M48.5,44.8c-.5-.3-1-.4-1.4-.8-.6-.5-.9-1.2-.9-2,0-.8,0-1.6-.2-2.4-.3-1.5-1.4-2-2.8-1.4-.1,0-.3.2-.3.3-.4,1.3-.8,1.6-2.1,1.8,0,0,0,0-.1,0-.1,1.1.1,2,.9,2.8.7.8,1.7,1.2,2.7,1.5,1.2.3,2.4.4,3.7.3.2,0,.4,0,.6-.1Z"/></g><path class="cls-4" d="M27.9,56.7c-.1-.8-.2-1.6-.2-2.4,0-4.6,2.4-7,5.4-7,4.3,0,7.9,4.4,10,9.4h6.5c-1.1-7.5-7.1-11.2-13.2-11.2s-12,3.8-13.1,11.2h4.7Z"/><path class="cls-4" d="M29.3.2c-.1.8-.2,1.6-.2,2.4,0,4.6,2.4,7,5.4,7,4.3,0,7.9-4.4,10-9.4h6.5c-1.1,7.5-7.1,11.2-13.2,11.2S25.7,7.7,24.6.2h4.7Z"/><path class="cls-4" d="M73.1,21c-.8-.1-1.6-.2-2.4-.2-4.6,0-7,2.4-7,5.4,0,4.3,4.4,7.9,9.4,10v6.5c-7.5-1.1-11.2-7.1-11.2-13.2,0-6,3.8-12,11.2-13.1v4.7Z"/><path class="cls-4" d="M2.4,21c.8-.1,1.6-.2,2.4-.2,4.6,0,7,2.4,7,5.4,0,4.3-4.4,7.9-9.4,10v6.5c7.5-1.1,11.2-7.1,11.2-13.2,0-6-3.8-12-11.2-13.1v4.7Z"/><path class="cls-2" d="M61.9,11.8v33.2H13.6V11.8h48.2M62.3,11.4H13.3v34h49V11.4h0Z"/><rect class="cls-18" x="2.4" y=".2" width="70.7" height="56.5"/><polyline class="cls-18" points="73.1 55.9 73.1 56.7 72.3 56.7"/><line class="cls-22" x1="70.5" y1="56.7" x2="64" y2="56.7"/><polyline class="cls-18" points="63.1 56.7 62.3 56.7 62.3 55.9"/><line class="cls-12" x1="62.3" y1="54.5" x2="62.3" y2="46.9"/><polyline class="cls-18" points="62.3 46.2 62.3 45.4 63.1 45.4"/><line class="cls-22" x1="65" y1="45.4" x2="71.4" y2="45.4"/><polyline class="cls-18" points="72.3 45.4 73.1 45.4 73.1 46.2"/><line class="cls-12" x1="73.1" y1="47.6" x2="73.1" y2="55.2"/><polyline class="cls-18" points="13.2 55.9 13.2 56.7 12.4 56.7"/><line class="cls-22" x1="10.6" y1="56.7" x2="4.1" y2="56.7"/><polyline class="cls-18" points="3.2 56.7 2.4 56.7 2.4 55.9"/><line class="cls-12" x1="2.4" y1="54.5" x2="2.4" y2="46.9"/><polyline class="cls-18" points="2.4 46.2 2.4 45.4 3.2 45.4"/><line class="cls-22" x1="5" y1="45.4" x2="11.5" y2="45.4"/><polyline class="cls-18" points="12.4 45.4 13.2 45.4 13.2 46.2"/><line class="cls-12" x1="13.2" y1="47.6" x2="13.2" y2="55.2"/><polyline class="cls-18" points="73.1 10.7 73.1 11.4 72.3 11.4"/><line class="cls-15" x1="71" y1="11.4" x2="63.6" y2="11.4"/><polyline class="cls-18" points="62.9 11.4 62.1 11.4 62.1 10.7"/><line class="cls-12" x1="62.1" y1="9.3" x2="62.1" y2="1.7"/><polyline class="cls-18" points="62.1 1 62.1 .2 62.9 .2"/><line class="cls-15" x1="64.2" y1=".2" x2="71.7" y2=".2"/><polyline class="cls-18" points="72.3 .2 73.1 .2 73.1 1"/><line class="cls-12" x1="73.1" y1="2.4" x2="73.1" y2="10"/><polyline class="cls-18" points="13.2 10.7 13.2 11.4 12.4 11.4"/><line class="cls-22" x1="10.6" y1="11.4" x2="4.1" y2="11.4"/><polyline class="cls-18" points="3.2 11.4 2.4 11.4 2.4 10.7"/><line class="cls-12" x1="2.4" y1="9.3" x2="2.4" y2="1.7"/><polyline class="cls-18" points="2.4 1 2.4 .2 3.2 .2"/><line class="cls-22" x1="5" y1=".2" x2="11.5" y2=".2"/><polyline class="cls-18" points="12.4 .2 13.2 .2 13.2 1"/><line class="cls-12" x1="13.2" y1="2.4" x2="13.2" y2="10"/><rect class="cls-1" x="72.9" y="45.2" width=".4" height="11.2"/><path class="cls-1" d="M78.6,47.7l1.6,4.1,1.6-4.1h.9v5h-.7v-4c0,0-1.6,4-1.6,4h-.5l-1.6-4v2.1c0,0,0,1.9,0,1.9h-.7v-5h.8Z"/><path class="cls-1" d="M86.1,52.6c0,0,0-.2,0-.4-.3.3-.6.5-1.1.5s-.7-.1-.9-.3c-.2-.2-.3-.5-.3-.8s.1-.7.4-.9c.3-.2.7-.3,1.2-.3h.6v-.3c0-.2,0-.4-.2-.5-.1-.1-.3-.2-.6-.2s-.4,0-.6.2-.2.3-.2.4h-.6c0-.2,0-.4.2-.5.1-.2.3-.3.5-.4s.5-.2.7-.2c.4,0,.8.1,1,.3.2.2.4.5.4.9v1.7c0,.3,0,.6.1.8h0c0,0-.7,0-.7,0ZM85,52.2c.2,0,.4,0,.6-.2s.3-.2.4-.4v-.8h-.5c-.8,0-1.2.2-1.2.7s0,.4.2.5.3.2.5.2Z"/><path class="cls-1" d="M89.4,49.5c0,0-.2,0-.3,0-.4,0-.7.2-.8.5v2.6h-.6v-3.7h.6v.4c.2-.3.5-.5.9-.5s.2,0,.3,0v.6Z"/><path class="cls-1" d="M89.8,50.8c0-.6.1-1,.4-1.4.3-.3.6-.5,1.1-.5s.8.2,1.1.5v-.4h.6v3.6c0,.5-.1.9-.4,1.1-.3.3-.7.4-1.1.4s-.5,0-.8-.2-.5-.3-.6-.5l.3-.4c.3.3.6.5,1,.5s.5,0,.7-.3.3-.4.3-.7v-.3c-.3.3-.6.4-1,.4s-.8-.2-1.1-.5-.4-.8-.4-1.4ZM90.4,50.8c0,.4,0,.7.3,1,.2.2.4.4.7.4s.7-.2.9-.5v-1.7c-.2-.4-.5-.5-.9-.5s-.5.1-.7.4-.3.6-.3,1.1Z"/><path class="cls-1" d="M93.8,48c0-.1,0-.2,0-.3s.2-.1.3-.1.2,0,.3.1,0,.2,0,.3,0,.2,0,.3-.2.1-.3.1-.2,0-.3-.1,0-.2,0-.3ZM94.5,52.6h-.6v-3.7h.6v3.7Z"/><path class="cls-1" d="M96.1,48.9v.5c.3-.4.7-.5,1.1-.5.8,0,1.2.4,1.2,1.3v2.4h-.6v-2.4c0-.3,0-.5-.2-.6-.1-.1-.3-.2-.6-.2s-.4,0-.5.2c-.2.1-.3.3-.4.4v2.6h-.6v-3.7h.6Z"/><path class="cls-1" d="M102.9,49.5c0,0-.2,0-.3,0-.4,0-.7.2-.8.5v2.6h-.6v-3.7h.6v.4c.2-.3.5-.5.9-.5s.2,0,.3,0v.6Z"/><path class="cls-1" d="M105,52.7c-.5,0-.9-.2-1.2-.5-.3-.3-.5-.8-.5-1.3h0c0-.5,0-.8.2-1.1.1-.3.3-.5.6-.7.3-.2.5-.2.8-.2.5,0,.9.2,1.1.5s.4.8.4,1.4v.3h-2.5c0,.4.1.7.3.9.2.2.5.3.8.3s.4,0,.6-.1c.2,0,.3-.2.4-.4l.4.3c-.3.5-.8.7-1.4.7ZM104.9,49.4c-.3,0-.5,0-.6.3-.2.2-.3.4-.3.8h1.9c0-.4-.1-.6-.3-.8-.2-.2-.4-.3-.6-.3Z"/><path class="cls-1" d="M107,50.8c0-.6.1-1,.4-1.4.3-.3.6-.5,1.1-.5s.8.1,1,.4v-.4h.6v5.1h-.6v-1.8c-.3.3-.6.4-1,.4s-.8-.2-1.1-.5c-.3-.3-.4-.8-.4-1.4h0ZM107.6,50.8c0,.4,0,.8.3,1s.4.4.7.4.7-.2.9-.5v-1.8c-.2-.3-.5-.5-.9-.5s-.5.1-.7.4c-.2.2-.3.6-.3,1.1Z"/><path class="cls-1" d="M113.4,52.3c-.2.3-.6.4-1.1.4s-.7-.1-.9-.3c-.2-.2-.3-.6-.3-1v-2.4h.6v2.4c0,.6.2.8.7.8s.8-.2,1-.5v-2.7h.6v3.7h-.6v-.4Z"/><path class="cls-1" d="M115,48c0-.1,0-.2,0-.3s.2-.1.3-.1.2,0,.3.1,0,.2,0,.3,0,.2,0,.3-.2.1-.3.1-.2,0-.3-.1,0-.2,0-.3ZM115.7,52.6h-.6v-3.7h.6v3.7Z"/><path class="cls-1" d="M118.5,49.5c0,0-.2,0-.3,0-.4,0-.7.2-.8.5v2.6h-.6v-3.7h.6v.4c.2-.3.5-.5.9-.5s.2,0,.3,0v.6Z"/><path class="cls-1" d="M120.5,52.7c-.5,0-.9-.2-1.2-.5-.3-.3-.5-.8-.5-1.3h0c0-.5,0-.8.2-1.1.1-.3.3-.5.6-.7.3-.2.5-.2.8-.2.5,0,.9.2,1.1.5s.4.8.4,1.4v.3h-2.5c0,.4.1.7.3.9.2.2.5.3.8.3s.4,0,.6-.1c.2,0,.3-.2.4-.4l.4.3c-.3.5-.8.7-1.4.7ZM120.4,49.4c-.3,0-.5,0-.6.3-.2.2-.3.4-.3.8h1.9c0-.4-.1-.6-.3-.8-.2-.2-.4-.3-.6-.3Z"/><path class="cls-1" d="M122.5,50.8c0-.6.1-1,.4-1.4.3-.3.6-.5,1.1-.5s.8.1,1,.4v-1.9h.6v5.2h-.6v-.4c-.3.3-.6.5-1.1.5s-.8-.2-1-.5c-.3-.4-.4-.8-.4-1.4h0ZM123.2,50.8c0,.4,0,.7.3,1s.4.4.7.4.7-.2.9-.5v-1.7c-.2-.3-.5-.5-.9-.5s-.6.1-.7.4-.3.6-.3,1.1Z"/><path class="cls-1" d="M126.6,52.3c0-.1,0-.2,0-.3,0,0,.2-.1.3-.1s.2,0,.3.1.1.2.1.3,0,.2-.1.3-.2.1-.3.1-.2,0-.3-.1c0,0,0-.2,0-.3ZM126.6,49.3c0-.1,0-.2,0-.3,0,0,.2-.1.3-.1s.2,0,.3.1.1.2.1.3,0,.2-.1.3-.2.1-.3.1-.2,0-.3-.1c0,0,0-.2,0-.3Z"/><path class="cls-1" d="M132.1,52.6h-.6v-4.2l-1.3.5v-.6l1.8-.7h0v5Z"/><path class="cls-1" d="M136,52.6h-.6v-4.2l-1.3.5v-.6l1.8-.7h0v5Z"/><path class="cls-1" d="M141.1,50.8c0,.6-.1,1-.4,1.4-.3.3-.6.5-1,.5s-.8-.1-1.1-.4v1.8h-.6v-5.1h.6v.4c.3-.3.6-.5,1.1-.5s.8.2,1.1.5.4.8.4,1.4h0ZM140.4,50.8c0-.4,0-.7-.3-1s-.4-.4-.7-.4-.7.2-.9.5v1.8c.2.3.5.5.9.5s.5-.1.7-.4c.2-.2.3-.6.3-1.1Z"/><path class="cls-1" d="M143,50.3l.8-1.4h.7l-1.2,1.8,1.2,1.9h-.7l-.9-1.4-.9,1.4h-.7l1.2-1.9-1.2-1.8h.7l.8,1.4Z"/></g><g id="Favicon_32px_w_clearspace"><g id="Logo-2"><path class="cls-8" d="M36.7,104.9c-11.2-8-20.6,18.7-29.2,4.9.1,6.1,6.3,10.5,11.5,9.2,3.4-.6,5.4-3.9,8.3-5.5,6.5-4.8,11.1,2.5,4.1,6.8,6.1-.5,11.6-11,5.4-15.3Z"/><path class="cls-10" d="M25.9,116.4c-.2,0-.4,0-.6,0-.7-.2-1.4-.7-1.9-1.5-.8-1.1-1.5-2.1-2.3-3.1-.5-.7-1-1.4-1.5-2.1-.5-.7-1.1-1.5-1.6-2.2-1.2-1.6-2.3-3.1-3.3-4.6s-1.6-2.5-2.4-3.6-.2-.4-.2-.6c0-.2,0-.4.1-.5.1,0,.3,0,.5,0,.7.3,1.4,1.3,2,2,1.5,1.6,2.3,2.6,3.8,4.5.9,1,1.7,2.2,2.7,3.4,1.2,1.5,2.5,3.1,3.9,4.8.5.6.8,1.5,1,2.6.1.7,0,.8-.2.8Z"/><path class="cls-10" d="M30.6,120.1c-.3-.2-.7-.3-.9-.5-.4-.3-.6-.8-.6-1.3,0-.5,0-1.1-.1-1.6-.2-1-1-1.3-1.9-.9,0,0-.2.1-.2.2-.2.9-.5,1.1-1.4,1.2,0,0,0,0,0,0,0,.7,0,1.3.6,1.8.5.5,1.1.8,1.8,1,.8.2,1.6.3,2.4.2.1,0,.2,0,.4,0Z"/></g><path class="cls-4" d="M17,127.9c0-.6-.1-1.1-.1-1.6,0-3.1,1.6-4.7,3.5-4.7,2.8,0,5.2,2.9,6.6,6.2h4.3c-.7-5-4.7-7.4-8.7-7.4s-8,2.5-8.7,7.4h3.1Z"/><path class="cls-4" d="M17.9,90.6c0,.6-.1,1.1-.1,1.6,0,3.1,1.6,4.7,3.5,4.7,2.8,0,5.2-2.9,6.6-6.2h4.3c-.7,5-4.7,7.4-8.7,7.4s-8-2.5-8.7-7.4h3.1Z"/><path class="cls-4" d="M46.9,104.4c-.6,0-1.1-.1-1.6-.1-3.1,0-4.7,1.6-4.7,3.5,0,2.8,2.9,5.2,6.2,6.6v4.3c-5-.7-7.4-4.7-7.4-8.7,0-4,2.5-8,7.4-8.7v3.1Z"/><path class="cls-4" d="M.1,104.4c.6,0,1.1-.1,1.6-.1,3.1,0,4.7,1.6,4.7,3.5,0,2.8-2.9,5.2-6.2,6.6v4.3c5-.7,7.4-4.7,7.4-8.7s-2.5-8-7.4-8.7v3.1Z"/><path class="cls-2" d="M39.5,98.3v22H7.6v-22h31.9M39.8,98H7.3v22.5h32.4v-22.5h0Z"/><rect class="cls-20" x=".1" y="90.6" width="46.8" height="37.4"/><polyline class="cls-20" points="46.9 127.4 46.9 127.9 46.4 127.9"/><line class="cls-11" x1="45.2" y1="127.9" x2="40.9" y2="127.9"/><polyline class="cls-20" points="40.3 127.9 39.8 127.9 39.8 127.4"/><line class="cls-16" x1="39.8" y1="126.5" x2="39.8" y2="121.5"/><polyline class="cls-20" points="39.8 121 39.8 120.5 40.3 120.5"/><line class="cls-11" x1="41.5" y1="120.5" x2="45.8" y2="120.5"/><polyline class="cls-20" points="46.4 120.5 46.9 120.5 46.9 121"/><line class="cls-16" x1="46.9" y1="121.9" x2="46.9" y2="126.9"/><polyline class="cls-20" points="7.3 127.4 7.3 127.9 6.8 127.9"/><line class="cls-11" x1="5.5" y1="127.9" x2="1.3" y2="127.9"/><polyline class="cls-20" points=".7 127.9 .1 127.9 .1 127.4"/><line class="cls-16" x1=".1" y1="126.5" x2=".1" y2="121.5"/><polyline class="cls-20" points=".1 121 .1 120.5 .7 120.5"/><line class="cls-11" x1="1.9" y1="120.5" x2="6.2" y2="120.5"/><polyline class="cls-20" points="6.8 120.5 7.3 120.5 7.3 121"/><line class="cls-16" x1="7.3" y1="121.9" x2="7.3" y2="126.9"/><polyline class="cls-20" points="46.9 97.5 46.9 98 46.4 98"/><line class="cls-17" x1="45.5" y1="98" x2="40.6" y2="98"/><polyline class="cls-20" points="40.2 98 39.6 98 39.6 97.5"/><line class="cls-16" x1="39.6" y1="96.6" x2="39.6" y2="91.5"/><polyline class="cls-20" points="39.6 91.1 39.6 90.6 40.2 90.6"/><line class="cls-17" x1="41.1" y1="90.6" x2="46" y2="90.6"/><polyline class="cls-20" points="46.4 90.6 46.9 90.6 46.9 91.1"/><line class="cls-16" x1="46.9" y1="92" x2="46.9" y2="97"/><polyline class="cls-20" points="7.3 97.5 7.3 98 6.8 98"/><line class="cls-11" x1="5.5" y1="98" x2="1.3" y2="98"/><polyline class="cls-20" points=".7 98 .1 98 .1 97.5"/><line class="cls-16" x1=".1" y1="96.6" x2=".1" y2="91.5"/><polyline class="cls-20" points=".1 91.1 .1 90.6 .7 90.6"/><line class="cls-11" x1="1.9" y1="90.6" x2="6.2" y2="90.6"/><polyline class="cls-20" points="6.8 90.6 7.3 90.6 7.3 91.1"/><line class="cls-16" x1="7.3" y1="92" x2="7.3" y2="97"/><rect class="cls-1" x="46.8" y="120.4" width=".3" height="7.4"/><path class="cls-1" d="M51.9,121.1l1.6,4.1,1.6-4.1h.9v5h-.7v-4c0,0-1.6,4-1.6,4h-.5l-1.6-4v2.1c0,0,0,1.9,0,1.9h-.7v-5h.8Z"/><path class="cls-1" d="M59.4,126.1c0,0,0-.2,0-.4-.3.3-.6.5-1.1.5s-.7-.1-.9-.3-.3-.5-.3-.8.1-.7.4-.9.7-.3,1.2-.3h.6v-.3c0-.2,0-.4-.2-.5-.1-.1-.3-.2-.6-.2s-.4,0-.6.2-.2.3-.2.4h-.6c0-.2,0-.4.2-.5.1-.2.3-.3.5-.4s.5-.2.7-.2c.4,0,.8.1,1,.3.2.2.4.5.4.9v1.7c0,.3,0,.6.1.8h0c0,0-.7,0-.7,0ZM58.3,125.6c.2,0,.4,0,.6-.2s.3-.2.4-.4v-.8h-.5c-.8,0-1.2.2-1.2.7s0,.4.2.5c.1.1.3.2.5.2Z"/><path class="cls-1" d="M62.7,123c0,0-.2,0-.3,0-.4,0-.7.2-.8.5v2.6h-.6v-3.7h.6v.4c.2-.3.5-.5.9-.5s.2,0,.3,0v.6Z"/><path class="cls-1" d="M63.1,124.2c0-.6.1-1,.4-1.4.3-.3.6-.5,1.1-.5s.8.2,1.1.5v-.4h.6v3.6c0,.5-.1.9-.4,1.1-.3.3-.7.4-1.1.4s-.5,0-.8-.2c-.3-.1-.5-.3-.6-.5l.3-.4c.3.3.6.5,1,.5s.5,0,.7-.3c.2-.2.3-.4.3-.7v-.3c-.3.3-.6.4-1,.4s-.8-.2-1.1-.5-.4-.8-.4-1.4ZM63.7,124.3c0,.4,0,.7.3,1,.2.2.4.4.7.4s.7-.2.9-.5v-1.7c-.2-.4-.5-.5-.9-.5s-.5.1-.7.4-.3.6-.3,1.1Z"/><path class="cls-1" d="M67.1,121.4c0-.1,0-.2,0-.3s.2-.1.3-.1.2,0,.3.1,0,.2,0,.3,0,.2,0,.3-.2.1-.3.1-.2,0-.3-.1,0-.2,0-.3ZM67.8,126.1h-.6v-3.7h.6v3.7Z"/><path class="cls-1" d="M69.4,122.4v.5c.3-.4.7-.5,1.1-.5.8,0,1.2.4,1.2,1.3v2.4h-.6v-2.4c0-.3,0-.5-.2-.6-.1-.1-.3-.2-.6-.2s-.4,0-.5.2c-.2.1-.3.3-.4.4v2.6h-.6v-3.7h.6Z"/><path class="cls-1" d="M76.2,123c0,0-.2,0-.3,0-.4,0-.7.2-.8.5v2.6h-.6v-3.7h.6v.4c.2-.3.5-.5.9-.5s.2,0,.3,0v.6Z"/><path class="cls-1" d="M78.3,126.2c-.5,0-.9-.2-1.2-.5s-.5-.8-.5-1.3h0c0-.5,0-.8.2-1.1.1-.3.3-.5.6-.7.3-.2.5-.2.8-.2.5,0,.9.2,1.1.5s.4.8.4,1.4v.3h-2.5c0,.4.1.7.3.9.2.2.5.3.8.3s.4,0,.6-.1c.2,0,.3-.2.4-.4l.4.3c-.3.5-.8.7-1.4.7ZM78.2,122.9c-.3,0-.5,0-.6.3-.2.2-.3.4-.3.8h1.9c0-.4-.1-.6-.3-.8-.2-.2-.4-.3-.6-.3Z"/><path class="cls-1" d="M80.3,124.2c0-.6.1-1,.4-1.4.3-.3.6-.5,1.1-.5s.8.1,1,.4v-.4h.6v5.1h-.6v-1.8c-.3.3-.6.4-1,.4s-.8-.2-1.1-.5-.4-.8-.4-1.4h0ZM80.9,124.3c0,.4,0,.8.3,1,.2.2.4.4.7.4s.7-.2.9-.5v-1.8c-.2-.3-.5-.5-.9-.5s-.5.1-.7.4c-.2.2-.3.6-.3,1.1Z"/><path class="cls-1" d="M86.7,125.7c-.2.3-.6.4-1.1.4s-.7-.1-.9-.3c-.2-.2-.3-.6-.3-1v-2.4h.6v2.4c0,.6.2.8.7.8s.8-.2,1-.5v-2.7h.6v3.7h-.6v-.4Z"/><path class="cls-1" d="M88.3,121.4c0-.1,0-.2,0-.3s.2-.1.3-.1.2,0,.3.1,0,.2,0,.3,0,.2,0,.3-.2.1-.3.1-.2,0-.3-.1,0-.2,0-.3ZM89,126.1h-.6v-3.7h.6v3.7Z"/><path class="cls-1" d="M91.8,123c0,0-.2,0-.3,0-.4,0-.7.2-.8.5v2.6h-.6v-3.7h.6v.4c.2-.3.5-.5.9-.5s.2,0,.3,0v.6Z"/><path class="cls-1" d="M93.8,126.2c-.5,0-.9-.2-1.2-.5s-.5-.8-.5-1.3h0c0-.5,0-.8.2-1.1.1-.3.3-.5.6-.7.3-.2.5-.2.8-.2.5,0,.9.2,1.1.5s.4.8.4,1.4v.3h-2.5c0,.4.1.7.3.9.2.2.5.3.8.3s.4,0,.6-.1c.2,0,.3-.2.4-.4l.4.3c-.3.5-.8.7-1.4.7ZM93.7,122.9c-.3,0-.5,0-.6.3-.2.2-.3.4-.3.8h1.9c0-.4-.1-.6-.3-.8-.2-.2-.4-.3-.6-.3Z"/><path class="cls-1" d="M95.8,124.2c0-.6.1-1,.4-1.4.3-.3.6-.5,1.1-.5s.8.1,1,.4v-1.9h.6v5.2h-.6v-.4c-.3.3-.6.5-1.1.5s-.8-.2-1-.5c-.3-.4-.4-.8-.4-1.4h0ZM96.5,124.3c0,.4,0,.7.3,1,.2.2.4.4.7.4s.7-.2.9-.5v-1.7c-.2-.3-.5-.5-.9-.5s-.6.1-.7.4-.3.6-.3,1.1Z"/><path class="cls-1" d="M99.9,125.8c0-.1,0-.2,0-.3,0,0,.2-.1.3-.1s.2,0,.3.1c0,0,.1.2.1.3s0,.2-.1.3c0,0-.2.1-.3.1s-.2,0-.3-.1c0,0,0-.2,0-.3ZM99.9,122.8c0-.1,0-.2,0-.3,0,0,.2-.1.3-.1s.2,0,.3.1.1.2.1.3,0,.2-.1.3-.2.1-.3.1-.2,0-.3-.1c0,0,0-.2,0-.3Z"/><path class="cls-1" d="M106.5,121.5l-2.1,4.6h-.7l2.1-4.5h-2.7v-.5h3.4v.4Z"/><path class="cls-1" d="M107.3,125.8c0-.1,0-.2,0-.3,0,0,.2-.1.3-.1s.2,0,.3.1c0,0,.1.2.1.3s0,.2-.1.3c0,0-.2.1-.3.1s-.2,0-.3-.1c0,0,0-.2,0-.3Z"/><path class="cls-1" d="M111.7,124.4h.7v.5h-.7v1.2h-.6v-1.2h-2.3v-.4l2.2-3.4h.7v3.3ZM109.6,124.4h1.5v-2.4h0c0,.1-1.5,2.4-1.5,2.4Z"/><path class="cls-1" d="M116.2,124.3c0,.6-.1,1-.4,1.4-.3.3-.6.5-1,.5s-.8-.1-1.1-.4v1.8h-.6v-5.1h.6v.4c.3-.3.6-.5,1.1-.5s.8.2,1.1.5.4.8.4,1.4h0ZM115.6,124.2c0-.4,0-.7-.3-1s-.4-.4-.7-.4-.7.2-.9.5v1.8c.2.3.5.5.9.5s.5-.1.7-.4.3-.6.3-1.1Z"/><path class="cls-1" d="M118.2,123.8l.8-1.4h.7l-1.2,1.8,1.2,1.9h-.7l-.9-1.4-.9,1.4h-.7l1.2-1.9-1.2-1.8h.7l.8,1.4Z"/></g><g id="Favicon_16px_w_clearspace"><path class="cls-4" d="M8.6,190.4c0-.3,0-.5,0-.8,0-1.5.8-2.3,1.8-2.3,1.4,0,2.6,1.4,3.3,3.1h2.2c-.4-2.5-2.4-3.7-4.4-3.7s-4,1.3-4.4,3.7h1.6Z"/><path class="cls-4" d="M9.1,171.6c0,.3,0,.5,0,.8,0,1.5.8,2.3,1.8,2.3,1.4,0,2.6-1.4,3.3-3.1h2.2c-.4,2.5-2.4,3.7-4.4,3.7s-4-1.3-4.4-3.7h1.6Z"/><path class="cls-4" d="M23.6,178.6c-.3,0-.5,0-.8,0-1.5,0-2.3.8-2.3,1.8,0,1.4,1.4,2.6,3.1,3.3v2.2c-2.5-.4-3.7-2.4-3.7-4.4,0-2,1.3-4,3.7-4.4v1.6Z"/><path class="cls-4" d="M.1,178.6c.3,0,.5,0,.8,0,1.5,0,2.3.8,2.3,1.8,0,1.4-1.4,2.6-3.1,3.3v2.2c2.5-.4,3.7-2.4,3.7-4.4s-1.3-4-3.7-4.4v1.6Z"/><path class="cls-2" d="M19.9,175.5v11H3.9v-11h16M20,175.4H3.7v11.2h0c0,.1.1.1.1.1h16.2v-11.2h0Z"/><rect class="cls-21" x=".1" y="171.6" width="23.5" height="18.8"/><polyline class="cls-21" points="23.6 190.1 23.6 190.4 23.4 190.4"/><line class="cls-13" x1="22.8" y1="190.4" x2="20.6" y2="190.4"/><polyline class="cls-21" points="20.3 190.4 20 190.4 20 190.1"/><line class="cls-19" x1="20" y1="189.7" x2="20" y2="187.2"/><polyline class="cls-21" points="20 186.9 20 186.7 20.3 186.7"/><line class="cls-13" x1="20.9" y1="186.7" x2="23.1" y2="186.7"/><polyline class="cls-21" points="23.4 186.7 23.6 186.7 23.6 186.9"/><line class="cls-19" x1="23.6" y1="187.4" x2="23.6" y2="189.9"/><polyline class="cls-21" points="3.7 190.1 3.7 190.4 3.5 190.4"/><line class="cls-13" x1="2.8" y1="190.4" x2=".7" y2="190.4"/><polyline class="cls-21" points=".4 190.4 .1 190.4 .1 190.1"/><line class="cls-19" x1=".1" y1="189.7" x2=".1" y2="187.2"/><polyline class="cls-21" points=".1 186.9 .1 186.7 .4 186.7"/><line class="cls-13" x1="1" y1="186.7" x2="3.2" y2="186.7"/><polyline class="cls-21" points="3.5 186.7 3.7 186.7 3.7 186.9"/><line class="cls-19" x1="3.7" y1="187.4" x2="3.7" y2="189.9"/><polyline class="cls-21" points="23.6 175.1 23.6 175.4 23.4 175.4"/><line class="cls-14" x1="22.9" y1="175.4" x2="20.5" y2="175.4"/><polyline class="cls-21" points="20.2 175.4 20 175.4 20 175.1"/><line class="cls-19" x1="20" y1="174.7" x2="20" y2="172.1"/><polyline class="cls-21" points="20 171.9 20 171.6 20.2 171.6"/><line class="cls-14" x1="20.7" y1="171.6" x2="23.2" y2="171.6"/><polyline class="cls-21" points="23.4 171.6 23.6 171.6 23.6 171.9"/><line class="cls-19" x1="23.6" y1="172.4" x2="23.6" y2="174.9"/><polyline class="cls-21" points="3.7 175.1 3.7 175.4 3.5 175.4"/><line class="cls-13" x1="2.8" y1="175.4" x2=".7" y2="175.4"/><polyline class="cls-21" points=".4 175.4 .1 175.4 .1 175.1"/><line class="cls-19" x1=".1" y1="174.7" x2=".1" y2="172.1"/><polyline class="cls-21" points=".1 171.9 .1 171.6 .4 171.6"/><line class="cls-13" x1="1" y1="171.6" x2="3.2" y2="171.6"/><polyline class="cls-21" points="3.5 171.6 3.7 171.6 3.7 171.9"/><line class="cls-19" x1="3.7" y1="172.4" x2="3.7" y2="174.9"/><rect class="cls-1" x="23.6" y="186.6" width=".1" height="3.7"/><path class="cls-1" d="M29.3,184.2l1.6,4.1,1.6-4.1h.9v5h-.7v-4c0,0-1.6,4-1.6,4h-.5l-1.6-4v2.1c0,0,0,1.9,0,1.9h-.7v-5h.8Z"/><path class="cls-1" d="M36.7,189.2c0,0,0-.2,0-.4-.3.3-.6.5-1.1.5s-.7-.1-.9-.3c-.2-.2-.3-.5-.3-.8s.1-.7.4-.9c.3-.2.7-.3,1.2-.3h.6v-.3c0-.2,0-.4-.2-.5-.1-.1-.3-.2-.6-.2s-.4,0-.6.2c-.2.1-.2.3-.2.4h-.6c0-.2,0-.4.2-.5.1-.2.3-.3.5-.4.2,0,.5-.2.7-.2.4,0,.8.1,1,.3.2.2.4.5.4.9v1.7c0,.3,0,.6.1.8h0c0,0-.7,0-.7,0ZM35.7,188.7c.2,0,.4,0,.6-.2s.3-.2.4-.4v-.8h-.5c-.8,0-1.2.2-1.2.7s0,.4.2.5c.1.1.3.2.5.2Z"/><path class="cls-1" d="M40,186.1c0,0-.2,0-.3,0-.4,0-.7.2-.8.5v2.6h-.6v-3.7h.6v.4c.2-.3.5-.5.9-.5s.2,0,.3,0v.6Z"/><path class="cls-1" d="M40.4,187.3c0-.6.1-1,.4-1.4.3-.3.6-.5,1.1-.5s.8.2,1.1.5v-.4h.6v3.6c0,.5-.1.9-.4,1.1-.3.3-.7.4-1.1.4s-.5,0-.8-.2c-.3-.1-.5-.3-.6-.5l.3-.4c.3.3.6.5,1,.5s.5,0,.7-.3c.2-.2.3-.4.3-.7v-.3c-.3.3-.6.4-1,.4s-.8-.2-1.1-.5-.4-.8-.4-1.4ZM41,187.4c0,.4,0,.7.3,1,.2.2.4.4.7.4s.7-.2.9-.5v-1.7c-.2-.4-.5-.5-.9-.5s-.5.1-.7.4-.3.6-.3,1.1Z"/><path class="cls-1" d="M44.5,184.5c0-.1,0-.2,0-.3,0,0,.2-.1.3-.1s.2,0,.3.1c0,0,0,.2,0,.3s0,.2,0,.3-.2.1-.3.1-.2,0-.3-.1,0-.2,0-.3ZM45.2,189.2h-.6v-3.7h.6v3.7Z"/><path class="cls-1" d="M46.8,185.5v.5c.3-.4.7-.5,1.1-.5.8,0,1.2.4,1.2,1.3v2.4h-.6v-2.4c0-.3,0-.5-.2-.6-.1-.1-.3-.2-.6-.2s-.4,0-.5.2c-.2.1-.3.3-.4.4v2.6h-.6v-3.7h.6Z"/><path class="cls-1" d="M53.6,186.1c0,0-.2,0-.3,0-.4,0-.7.2-.8.5v2.6h-.6v-3.7h.6v.4c.2-.3.5-.5.9-.5s.2,0,.3,0v.6Z"/><path class="cls-1" d="M55.6,189.3c-.5,0-.9-.2-1.2-.5-.3-.3-.5-.8-.5-1.3h0c0-.5,0-.8.2-1.1.1-.3.3-.5.6-.7.3-.2.5-.2.8-.2.5,0,.9.2,1.1.5.3.3.4.8.4,1.4v.3h-2.5c0,.4.1.7.3.9s.5.3.8.3.4,0,.6-.1c.2,0,.3-.2.4-.4l.4.3c-.3.5-.8.7-1.4.7ZM55.5,185.9c-.3,0-.5,0-.6.3-.2.2-.3.4-.3.8h1.9c0-.4-.1-.6-.3-.8-.2-.2-.4-.3-.6-.3Z"/><path class="cls-1" d="M57.6,187.3c0-.6.1-1,.4-1.4.3-.3.6-.5,1.1-.5s.8.1,1,.4v-.4h.6v5.1h-.6v-1.8c-.3.3-.6.4-1,.4s-.8-.2-1.1-.5c-.3-.3-.4-.8-.4-1.4h0ZM58.3,187.4c0,.4,0,.8.3,1,.2.2.4.4.7.4s.7-.2.9-.5v-1.8c-.2-.3-.5-.5-.9-.5s-.5.1-.7.4c-.2.2-.3.6-.3,1.1Z"/><path class="cls-1" d="M64,188.8c-.2.3-.6.4-1.1.4s-.7-.1-.9-.3c-.2-.2-.3-.6-.3-1v-2.4h.6v2.4c0,.6.2.8.7.8s.8-.2,1-.5v-2.7h.6v3.7h-.6v-.4Z"/><path class="cls-1" d="M65.6,184.5c0-.1,0-.2,0-.3,0,0,.2-.1.3-.1s.2,0,.3.1c0,0,0,.2,0,.3s0,.2,0,.3-.2.1-.3.1-.2,0-.3-.1,0-.2,0-.3ZM66.3,189.2h-.6v-3.7h.6v3.7Z"/><path class="cls-1" d="M69.1,186.1c0,0-.2,0-.3,0-.4,0-.7.2-.8.5v2.6h-.6v-3.7h.6v.4c.2-.3.5-.5.9-.5s.2,0,.3,0v.6Z"/><path class="cls-1" d="M71.2,189.3c-.5,0-.9-.2-1.2-.5-.3-.3-.5-.8-.5-1.3h0c0-.5,0-.8.2-1.1.1-.3.3-.5.6-.7.3-.2.5-.2.8-.2.5,0,.9.2,1.1.5.3.3.4.8.4,1.4v.3h-2.5c0,.4.1.7.3.9s.5.3.8.3.4,0,.6-.1c.2,0,.3-.2.4-.4l.4.3c-.3.5-.8.7-1.4.7ZM71.1,185.9c-.3,0-.5,0-.6.3-.2.2-.3.4-.3.8h1.9c0-.4-.1-.6-.3-.8-.2-.2-.4-.3-.6-.3Z"/><path class="cls-1" d="M73.2,187.3c0-.6.1-1,.4-1.4.3-.3.6-.5,1.1-.5s.8.1,1,.4v-1.9h.6v5.2h-.6v-.4c-.3.3-.6.5-1.1.5s-.8-.2-1-.5c-.3-.4-.4-.8-.4-1.4h0ZM73.8,187.4c0,.4,0,.7.3,1,.2.2.4.4.7.4s.7-.2.9-.5v-1.7c-.2-.3-.5-.5-.9-.5s-.6.1-.7.4-.3.6-.3,1.1Z"/><path class="cls-1" d="M77.3,188.9c0-.1,0-.2,0-.3,0,0,.2-.1.3-.1s.2,0,.3.1c0,0,.1.2.1.3s0,.2-.1.3c0,0-.2.1-.3.1s-.2,0-.3-.1c0,0,0-.2,0-.3ZM77.3,185.8c0-.1,0-.2,0-.3,0,0,.2-.1.3-.1s.2,0,.3.1c0,0,.1.2.1.3s0,.2-.1.3c0,0-.2.1-.3.1s-.2,0-.3-.1c0,0,0-.2,0-.3Z"/><path class="cls-1" d="M81.6,186.4h.5c.3,0,.5,0,.7-.2.2-.2.3-.4.3-.6,0-.6-.3-.9-.9-.9s-.5,0-.7.2-.2.4-.2.6h-.6c0-.4.1-.7.4-1s.7-.4,1.1-.4.8.1,1.1.4c.3.2.4.6.4,1s0,.4-.2.6c-.1.2-.3.4-.6.5.3,0,.5.2.6.4.1.2.2.4.2.7,0,.4-.1.8-.4,1.1-.3.3-.7.4-1.1.4s-.8-.1-1.1-.4-.4-.6-.4-1h.6c0,.3,0,.5.3.6.2.2.4.2.7.2s.5,0,.7-.2c.2-.2.2-.4.2-.7s0-.5-.3-.7c-.2-.2-.4-.2-.8-.2h-.5v-.5Z"/><path class="cls-1" d="M84.7,188.9c0-.1,0-.2,0-.3,0,0,.2-.1.3-.1s.2,0,.3.1c0,0,.1.2.1.3s0,.2-.1.3c0,0-.2.1-.3.1s-.2,0-.3-.1c0,0,0-.2,0-.3Z"/><path class="cls-1" d="M89.6,184.6l-2.1,4.6h-.7l2.1-4.5h-2.7v-.5h3.4v.4Z"/><path class="cls-1" d="M93.5,187.4c0,.6-.1,1-.4,1.4-.3.3-.6.5-1,.5s-.8-.1-1.1-.4v1.8h-.6v-5.1h.6v.4c.3-.3.6-.5,1.1-.5s.8.2,1.1.5.4.8.4,1.4h0ZM92.9,187.3c0-.4,0-.7-.3-1-.2-.2-.4-.4-.7-.4s-.7.2-.9.5v1.8c.2.3.5.5.9.5s.5-.1.7-.4c.2-.2.3-.6.3-1.1Z"/><path class="cls-1" d="M95.5,186.8l.8-1.4h.7l-1.2,1.8,1.2,1.9h-.7l-.9-1.4-.9,1.4h-.7l1.2-1.9-1.2-1.8h.7l.8,1.4Z"/><g id="Logo-3"><path class="cls-9" d="M18.5,178.9c-5.6-4-10.3,9.4-14.6,2.4,0,3.1,3.1,5.2,5.8,4.6,1.7-.3,2.7-2,4.2-2.8,3.2-2.4,5.5,1.2,2,3.4,3.1-.2,5.8-5.5,2.7-7.7Z"/><path class="cls-10" d="M13.1,184.7c0,0-.2,0-.3,0-.3,0-.7-.3-1-.7-.4-.5-.8-1-1.1-1.5-.3-.4-.5-.7-.8-1-.3-.4-.5-.7-.8-1.1-.6-.8-1.2-1.6-1.7-2.3s-.8-1.3-1.2-1.8,0-.2-.1-.3c0,0,0-.2,0-.2,0,0,.2,0,.2,0,.3.1.7.6,1,1,.7.8,1.1,1.3,1.9,2.2s.9,1.1,1.3,1.7c.6.7,1.2,1.6,1.9,2.4.3.3.4.7.5,1.3,0,.4,0,.4-.1.4Z"/><path class="cls-10" d="M15.5,186.5c-.2,0-.3-.1-.5-.3-.2-.2-.3-.4-.3-.7,0-.3,0-.5,0-.8-.1-.5-.5-.7-.9-.5,0,0,0,0-.1.1-.1.4-.3.5-.7.6,0,0,0,0,0,0,0,.4,0,.7.3.9.2.3.6.4.9.5.4.1.8.1,1.2,0,0,0,.1,0,.2,0Z"/></g></g></g></svg>