<?xml version="1.0" encoding="UTF-8"?><svg id="Layer_2" xmlns="http://www.w3.org/2000/svg" xmlns:xlink="http://www.w3.org/1999/xlink" viewBox="0 0 99.9 21.4"><defs><style>.cls-1{fill:#ec599b;}.cls-1,.cls-2,.cls-3,.cls-4,.cls-5{stroke-width:0px;}.cls-2{fill:#b3b3b3;}.cls-3{fill:url(#linear-gradient);}.cls-6{stroke-dasharray:0 0 .6 .6;}.cls-6,.cls-7,.cls-8,.cls-9{fill:none;stroke:#b3b3b3;stroke-miterlimit:10;stroke-width:.1px;}.cls-7{stroke-dasharray:0 0 .4 .4;}.cls-4{fill:#999;}.cls-5{fill:#fff;}.cls-8{stroke-dasharray:0 0 .5 .5;}</style><linearGradient id="linear-gradient" x1="3.8" y1="10.8" x2="19.8" y2="10.8" gradientUnits="userSpaceOnUse"><stop offset=".4" stop-color="#ec599b"/><stop offset="1" stop-color="#910bea"/></linearGradient></defs><g id="Favicons"><g id="Favicon_16px_w_clearspace"><path class="cls-4" d="M8.6,18.8c0-.3,0-.5,0-.8,0-1.5.8-2.3,1.8-2.3,1.4,0,2.6,1.4,3.3,3.1h2.2c-.4-2.5-2.4-3.7-4.4-3.7s-4,1.3-4.4,3.7h1.6Z"/><path class="cls-4" d="M9,0c0,.3,0,.5,0,.8,0,1.5.8,2.3,1.8,2.3,1.4,0,2.6-1.4,3.3-3.1h2.2c-.4,2.5-2.4,3.7-4.4,3.7S7.8,2.6,7.4,0h1.6Z"/><path class="cls-4" d="M23.6,7c-.3,0-.5,0-.8,0-1.5,0-2.3.8-2.3,1.8,0,1.4,1.4,2.6,3.1,3.3v2.2c-2.5-.4-3.7-2.4-3.7-4.4,0-2,1.3-4,3.7-4.4v1.6Z"/><path class="cls-4" d="M0,7c.3,0,.5,0,.8,0,1.5,0,2.3.8,2.3,1.8,0,1.4-1.4,2.6-3.1,3.3v2.2c2.5-.4,3.7-2.4,3.7-4.4S2.6,5.8,0,5.4v1.6Z"/><path class="cls-2" d="M19.8,3.9v11H3.8V3.9h16M20,3.8H3.7v11.2h0c0,.1.1.1.1.1h16.2V3.9h0Z"/><rect class="cls-9" x="0" y="0" width="23.5" height="18.8"/><polyline class="cls-9" points="23.6 18.6 23.6 18.8 23.3 18.8"/><line class="cls-6" x1="22.7" y1="18.8" x2="20.6" y2="18.8"/><polyline class="cls-9" points="20.2 18.8 20 18.8 20 18.6"/><line class="cls-8" x1="20" y1="18.1" x2="20" y2="15.6"/><polyline class="cls-9" points="20 15.4 20 15.1 20.2 15.1"/><line class="cls-6" x1="20.9" y1="15.1" x2="23" y2="15.1"/><polyline class="cls-9" points="23.3 15.1 23.6 15.1 23.6 15.4"/><line class="cls-8" x1="23.6" y1="15.8" x2="23.6" y2="18.3"/><polyline class="cls-9" points="3.7 18.6 3.7 18.8 3.4 18.8"/><line class="cls-6" x1="2.8" y1="18.8" x2=".6" y2="18.8"/><polyline class="cls-9" points=".3 18.8 0 18.8 0 18.6"/><line class="cls-8" x1="0" y1="18.1" x2="0" y2="15.6"/><polyline class="cls-9" points="0 15.4 0 15.1 .3 15.1"/><line class="cls-6" x1=".9" y1="15.1" x2="3.1" y2="15.1"/><polyline class="cls-9" points="3.4 15.1 3.7 15.1 3.7 15.4"/><line class="cls-8" x1="3.7" y1="15.8" x2="3.7" y2="18.3"/><polyline class="cls-9" points="23.6 3.5 23.6 3.8 23.3 3.8"/><line class="cls-7" x1="22.9" y1="3.8" x2="20.4" y2="3.8"/><polyline class="cls-9" points="20.2 3.8 19.9 3.8 19.9 3.5"/><line class="cls-8" x1="19.9" y1="3.1" x2="19.9" y2=".6"/><polyline class="cls-9" points="19.9 .3 19.9 0 20.2 0"/><line class="cls-7" x1="20.6" y1="0" x2="23.1" y2="0"/><polyline class="cls-9" points="23.3 0 23.6 0 23.6 .3"/><line class="cls-8" x1="23.6" y1=".8" x2="23.6" y2="3.3"/><polyline class="cls-9" points="3.7 3.5 3.7 3.8 3.4 3.8"/><line class="cls-6" x1="2.8" y1="3.8" x2=".6" y2="3.8"/><polyline class="cls-9" points=".3 3.8 0 3.8 0 3.5"/><line class="cls-8" x1="0" y1="3.1" x2="0" y2=".6"/><polyline class="cls-9" points="0 .3 0 0 .3 0"/><line class="cls-6" x1=".9" y1="0" x2="3.1" y2="0"/><polyline class="cls-9" points="3.4 0 3.7 0 3.7 .3"/><line class="cls-8" x1="3.7" y1=".8" x2="3.7" y2="3.3"/><rect class="cls-1" x="23.5" y="15" width=".1" height="3.7"/><path class="cls-1" d="M29.2,12.6l1.6,4.1,1.6-4.1h.9v5h-.7v-4c0,0-1.6,4-1.6,4h-.5l-1.6-4v2.1c0,0,0,1.9,0,1.9h-.7v-5h.8Z"/><path class="cls-1" d="M36.7,17.6c0,0,0-.2,0-.4-.3.3-.6.5-1.1.5s-.7-.1-.9-.3c-.2-.2-.3-.5-.3-.8s.1-.7.4-.9c.3-.2.7-.3,1.2-.3h.6v-.3c0-.2,0-.4-.2-.5-.1-.1-.3-.2-.6-.2s-.4,0-.6.2c-.2.1-.2.3-.2.4h-.6c0-.2,0-.4.2-.5.1-.2.3-.3.5-.4.2,0,.5-.2.7-.2.4,0,.8.1,1,.3.2.2.4.5.4.9v1.7c0,.3,0,.6.1.8h0c0,0-.7,0-.7,0ZM35.6,17.1c.2,0,.4,0,.6-.2s.3-.2.4-.4v-.8h-.5c-.8,0-1.2.2-1.2.7s0,.4.2.5c.1.1.3.2.5.2Z"/><path class="cls-1" d="M40,14.5c0,0-.2,0-.3,0-.4,0-.7.2-.8.5v2.6h-.6v-3.7h.6v.4c.2-.3.5-.5.9-.5s.2,0,.3,0v.6Z"/><path class="cls-1" d="M40.3,15.7c0-.6.1-1,.4-1.4.3-.3.6-.5,1.1-.5s.8.2,1.1.5v-.4h.6v3.6c0,.5-.1.9-.4,1.1-.3.3-.7.4-1.1.4s-.5,0-.8-.2c-.3-.1-.5-.3-.6-.5l.3-.4c.3.3.6.5,1,.5s.5,0,.7-.3c.2-.2.3-.4.3-.7v-.3c-.3.3-.6.4-1,.4s-.8-.2-1.1-.5-.4-.8-.4-1.4ZM41,15.8c0,.4,0,.7.3,1,.2.2.4.4.7.4s.7-.2.9-.5v-1.7c-.2-.4-.5-.5-.9-.5s-.5.1-.7.4-.3.6-.3,1.1Z"/><path class="cls-1" d="M44.4,12.9c0-.1,0-.2,0-.3,0,0,.2-.1.3-.1s.2,0,.3.1c0,0,0,.2,0,.3s0,.2,0,.3-.2.1-.3.1-.2,0-.3-.1,0-.2,0-.3ZM45.1,17.6h-.6v-3.7h.6v3.7Z"/><path class="cls-1" d="M46.7,13.9v.5c.3-.4.7-.5,1.1-.5.8,0,1.2.4,1.2,1.3v2.4h-.6v-2.4c0-.3,0-.5-.2-.6-.1-.1-.3-.2-.6-.2s-.4,0-.5.2c-.2.1-.3.3-.4.4v2.6h-.6v-3.7h.6Z"/><path class="cls-1" d="M53.5,14.5c0,0-.2,0-.3,0-.4,0-.7.2-.8.5v2.6h-.6v-3.7h.6v.4c.2-.3.5-.5.9-.5s.2,0,.3,0v.6Z"/><path class="cls-1" d="M55.5,17.7c-.5,0-.9-.2-1.2-.5-.3-.3-.5-.8-.5-1.3h0c0-.5,0-.8.2-1.1.1-.3.3-.5.6-.7.3-.2.5-.2.8-.2.5,0,.9.2,1.1.5.3.3.4.8.4,1.4v.3h-2.5c0,.4.1.7.3.9s.5.3.8.3.4,0,.6-.1c.2,0,.3-.2.4-.4l.4.3c-.3.5-.8.7-1.4.7ZM55.5,14.4c-.3,0-.5,0-.6.3-.2.2-.3.4-.3.8h1.9c0-.4-.1-.6-.3-.8-.2-.2-.4-.3-.6-.3Z"/><path class="cls-1" d="M57.6,15.7c0-.6.1-1,.4-1.4.3-.3.6-.5,1.1-.5s.8.1,1,.4v-.4h.6v5.1h-.6v-1.8c-.3.3-.6.4-1,.4s-.8-.2-1.1-.5c-.3-.3-.4-.8-.4-1.4h0ZM58.2,15.8c0,.4,0,.8.3,1,.2.2.4.4.7.4s.7-.2.9-.5v-1.8c-.2-.3-.5-.5-.9-.5s-.5.1-.7.4c-.2.2-.3.6-.3,1.1Z"/><path class="cls-1" d="M64,17.3c-.2.3-.6.4-1.1.4s-.7-.1-.9-.3c-.2-.2-.3-.6-.3-1v-2.4h.6v2.4c0,.6.2.8.7.8s.8-.2,1-.5v-2.7h.6v3.7h-.6v-.4Z"/><path class="cls-1" d="M65.6,12.9c0-.1,0-.2,0-.3,0,0,.2-.1.3-.1s.2,0,.3.1c0,0,0,.2,0,.3s0,.2,0,.3-.2.1-.3.1-.2,0-.3-.1,0-.2,0-.3ZM66.2,17.6h-.6v-3.7h.6v3.7Z"/><path class="cls-1" d="M69,14.5c0,0-.2,0-.3,0-.4,0-.7.2-.8.5v2.6h-.6v-3.7h.6v.4c.2-.3.5-.5.9-.5s.2,0,.3,0v.6Z"/><path class="cls-1" d="M71.1,17.7c-.5,0-.9-.2-1.2-.5-.3-.3-.5-.8-.5-1.3h0c0-.5,0-.8.2-1.1.1-.3.3-.5.6-.7.3-.2.5-.2.8-.2.5,0,.9.2,1.1.5.3.3.4.8.4,1.4v.3h-2.5c0,.4.1.7.3.9s.5.3.8.3.4,0,.6-.1c.2,0,.3-.2.4-.4l.4.3c-.3.5-.8.7-1.4.7ZM71,14.4c-.3,0-.5,0-.6.3-.2.2-.3.4-.3.8h1.9c0-.4-.1-.6-.3-.8-.2-.2-.4-.3-.6-.3Z"/><path class="cls-1" d="M73.1,15.7c0-.6.1-1,.4-1.4.3-.3.6-.5,1.1-.5s.8.1,1,.4v-1.9h.6v5.2h-.6v-.4c-.3.3-.6.5-1.1.5s-.8-.2-1-.5c-.3-.4-.4-.8-.4-1.4h0ZM73.8,15.8c0,.4,0,.7.3,1,.2.2.4.4.7.4s.7-.2.9-.5v-1.7c-.2-.3-.5-.5-.9-.5s-.6.1-.7.4-.3.6-.3,1.1Z"/><path class="cls-1" d="M77.2,17.3c0-.1,0-.2,0-.3,0,0,.2-.1.3-.1s.2,0,.3.1c0,0,.1.2.1.3s0,.2-.1.3c0,0-.2.1-.3.1s-.2,0-.3-.1c0,0,0-.2,0-.3ZM77.2,14.3c0-.1,0-.2,0-.3,0,0,.2-.1.3-.1s.2,0,.3.1c0,0,.1.2.1.3s0,.2-.1.3c0,0-.2.1-.3.1s-.2,0-.3-.1c0,0,0-.2,0-.3Z"/><path class="cls-1" d="M81.5,14.8h.5c.3,0,.5,0,.7-.2.2-.2.3-.4.3-.6,0-.6-.3-.9-.9-.9s-.5,0-.7.2-.2.4-.2.6h-.6c0-.4.1-.7.4-1s.7-.4,1.1-.4.8.1,1.1.4c.3.2.4.6.4,1s0,.4-.2.6c-.1.2-.3.4-.6.5.3,0,.5.2.6.4.1.2.2.4.2.7,0,.4-.1.8-.4,1.1-.3.3-.7.4-1.1.4s-.8-.1-1.1-.4-.4-.6-.4-1h.6c0,.3,0,.5.3.6.2.2.4.2.7.2s.5,0,.7-.2c.2-.2.2-.4.2-.7s0-.5-.3-.7c-.2-.2-.4-.2-.8-.2h-.5v-.5Z"/><path class="cls-1" d="M84.6,17.3c0-.1,0-.2,0-.3,0,0,.2-.1.3-.1s.2,0,.3.1c0,0,.1.2.1.3s0,.2-.1.3c0,0-.2.1-.3.1s-.2,0-.3-.1c0,0,0-.2,0-.3Z"/><path class="cls-1" d="M89.6,13l-2.1,4.6h-.7l2.1-4.5h-2.7v-.5h3.4v.4Z"/><path class="cls-1" d="M93.5,15.8c0,.6-.1,1-.4,1.4-.3.3-.6.5-1,.5s-.8-.1-1.1-.4v1.8h-.6v-5.1h.6v.4c.3-.3.6-.5,1.1-.5s.8.2,1.1.5.4.8.4,1.4h0ZM92.8,15.7c0-.4,0-.7-.3-1-.2-.2-.4-.4-.7-.4s-.7.2-.9.5v1.8c.2.3.5.5.9.5s.5-.1.7-.4c.2-.2.3-.6.3-1.1Z"/><path class="cls-1" d="M95.5,15.3l.8-1.4h.7l-1.2,1.8,1.2,1.9h-.7l-.9-1.4-.9,1.4h-.7l1.2-1.9-1.2-1.8h.7l.8,1.4Z"/><g id="Logo"><path class="cls-3" d="M18.4,7.4c-5.6-4-10.3,9.4-14.6,2.4,0,3.1,3.1,5.2,5.8,4.6,1.7-.3,2.7-2,4.2-2.8,3.2-2.4,5.5,1.2,2,3.4,3.1-.2,5.8-5.5,2.7-7.7Z"/><path class="cls-5" d="M13,13.1c0,0-.2,0-.3,0-.3,0-.7-.3-1-.7-.4-.5-.8-1-1.1-1.5-.3-.4-.5-.7-.8-1-.3-.4-.5-.7-.8-1.1-.6-.8-1.2-1.6-1.7-2.3s-.8-1.3-1.2-1.8,0-.2-.1-.3c0,0,0-.2,0-.2,0,0,.2,0,.2,0,.3.1.7.6,1,1,.7.8,1.1,1.3,1.9,2.2s.9,1.1,1.3,1.7c.6.7,1.2,1.6,1.9,2.4.3.3.4.7.5,1.3,0,.4,0,.4-.1.4Z"/><path class="cls-5" d="M15.4,15c-.2,0-.3-.1-.5-.3-.2-.2-.3-.4-.3-.7,0-.3,0-.5,0-.8-.1-.5-.5-.7-.9-.5,0,0,0,0-.1.1-.1.4-.3.5-.7.6,0,0,0,0,0,0,0,.4,0,.7.3.9.2.3.6.4.9.5.4.1.8.1,1.2,0,0,0,.1,0,.2,0Z"/></g></g></g></svg>