<?xml version="1.0" encoding="UTF-8"?><svg id="Layer_2" xmlns="http://www.w3.org/2000/svg" xmlns:xlink="http://www.w3.org/1999/xlink" viewBox="0 0 422.6 142.6"><defs><style>.cls-1{fill:#ec599b;}.cls-1,.cls-2,.cls-3,.cls-4,.cls-5{stroke-width:0px;}.cls-2{fill:#b3b3b3;}.cls-3{fill:url(#linear-gradient);}.cls-6{stroke-dasharray:0 0 1.9 1.9;}.cls-6,.cls-7,.cls-8{fill:none;stroke:#b3b3b3;stroke-miterlimit:10;stroke-width:.5px;}.cls-7{stroke-dasharray:0 0 2 2;}.cls-4{fill:#999;}.cls-5{fill:#fff;}</style><linearGradient id="linear-gradient" x1="34.4" y1="69.3" x2="95.1" y2="69.3" gradientUnits="userSpaceOnUse"><stop offset=".4" stop-color="#ec599b"/><stop offset="1" stop-color="#910bea"/></linearGradient></defs><g id="Clearspace"><g id="Logo_wordmark_space"><path class="cls-4" d="M155.2,110.9c0-5.3,2.1-11.3,6.2-13.5,1.5-.8,2.9-1.1,4.2-1.1,4.8,0,8.3,4.4,8.3,8.6s-2.1,6.2-7.3,7.1c.2-.7.3-1.4.3-2.1,0-4.6-3.1-10.3-4.9-10.3s-1.1.8-1.1,2.8.1,2.5.4,4.4c1.5,8.8,7.3,19.3,14.7,19.3s6.7-3.1,6.7-8.9-.4-4.6-1.3-7.5c-2.3-7.3-7.2-14.2-15.2-14.2s-2,0-3,.3c2.9-2.7,6.2-3.8,9.4-3.8,8.2,0,16,7.8,16,19s-8.4,17.3-16.8,17.3-16.8-5.8-16.8-17.3Z"/><path class="cls-4" d="M155.2,26.1c0-5.3,2.1-11.3,6.2-13.5,1.5-.8,2.9-1.1,4.2-1.1,4.8,0,8.3,4.4,8.3,8.6s-2.1,6.2-7.3,7.1c.2-.7.3-1.4.3-2.1,0-4.6-3.1-10.3-4.9-10.3s-1.1.8-1.1,2.8.1,2.5.4,4.4c1.5,8.8,7.3,19.3,14.7,19.3s6.7-3.1,6.7-8.9-.4-4.6-1.3-7.5c-2.3-7.3-7.2-14.2-15.2-14.2s-2,0-3,.3c2.9-2.7,6.2-3.8,9.4-3.8,8.2,0,16,7.8,16,19s-8.4,17.3-16.8,17.3-16.8-5.8-16.8-17.3Z"/><path class="cls-4" d="M.3,69.8c0-5.3,2.1-11.3,6.2-13.5,1.5-.8,2.9-1.1,4.2-1.1,4.8,0,8.3,4.4,8.3,8.6s-2.1,6.2-7.3,7.1c.2-.7.3-1.4.3-2.1,0-4.6-3.1-10.3-4.9-10.3s-1.1.8-1.1,2.8.1,2.5.4,4.4c1.5,8.8,7.3,19.3,14.7,19.3s6.7-3.1,6.7-8.9-.4-4.6-1.3-7.5c-2.3-7.3-7.2-14.2-15.2-14.2s-2,0-3,.3c2.9-2.7,6.2-3.8,9.4-3.8,8.2,0,16,7.8,16,19s-8.4,17.3-16.8,17.3S.3,81.3.3,69.8Z"/><path class="cls-4" d="M310.1,68.2c0-5.3,2.1-11.3,6.2-13.5,1.5-.8,2.9-1.1,4.2-1.1,4.8,0,8.3,4.4,8.3,8.6s-2.1,6.2-7.3,7.1c.2-.7.3-1.4.3-2.1,0-4.6-3.1-10.3-4.9-10.3s-1.1.8-1.1,2.8.1,2.5.4,4.4c1.5,8.8,7.3,19.3,14.7,19.3s6.7-3.1,6.7-8.9-.4-4.6-1.3-7.5c-2.3-7.3-7.2-14.2-15.2-14.2s-2,0-3,.3c2.9-2.7,6.2-3.8,9.4-3.8,8.2,0,16,7.8,16,19s-8.4,17.3-16.8,17.3-16.8-5.8-16.8-17.3Z"/><g id="Gradient"><path class="cls-3" d="M89.9,56.2c-21.2-15.1-39,35.5-55.5,9.2.2,11.6,11.9,19.9,21.8,17.4,6.4-1.1,10.2-7.4,15.7-10.5,12.3-9,21,4.7,7.7,13,11.6-.9,22-20.9,10.1-29.1Z"/><path class="cls-5" d="M93.6,89.1c7.7,0,8.5-27.2,15.7-34.4-.7-2-1.4-3.4-2.2-3.9,6.4,0,9.8.6,11.5,4,2.6,5.4,2.9,21.6,6.7,31.6h-4.1c-3.1,0-4.9-1.2-5.9-3.4-2.5-5.8-5.9-6.1-8.7-9.2.2,1.2.4,2.2.6,3.2.2,1.2.3,2.3.3,3.3,0,7.5-5,11.5-9.2,11.5s-3.8-.9-4.7-2.8ZM109.8,56.6c-2.9,3.6-3.7,7.7-3.7,11.5,0,5.4,4.5,6.2,7.6,9-.7-4.4-2.1-14.1-3.9-20.4Z"/><path class="cls-5" d="M143.6,87.3c1.7-1.6,3.3-6.2,3.3-9.7s-.8-4.5-3.1-4.6c-3,0-7.3,4-7.3,10.5s0,1.9.3,2.9h-3.4s-6.8,0-6.8,0c1.4-2.3,1.9-8.8,1.9-15.7s-.8-16.9-1.7-19.8c1.2.1,2.4.2,3.5.2,3.6,0,7.1-.4,10.6-.4s11.1,2,11.1,6.7-4.7,8.5-8.7,12.9c.9-.3,1.8-.5,2.6-.5,4.9,0,8.1,5,8.1,9.9s-2.3,8.1-7.4,8.1-2.1-.2-3.2-.5ZM143.6,56.6c0-3.5-1.1-5-2.4-5s-3.4,1.9-4.4,5c-1.1,3.2-1.4,7.8-1.4,12.4s.2,7.2.4,10.4c1.6-9.8,7.7-10.2,7.8-22.8Z"/><path class="cls-5" d="M161.2,86.9c4.6-7.1-2.3-30.3,12.8-30.3s6.6-1.7,6.6-3.2-1.5-2.8-3.8-2.8-4.4,1-6.9,3.9c-3.4,3.9-7.1,5.7-10.2,5.7s-6-2.2-6-6,.4-3.3,1.3-5.2c.7,2,2.2,2.7,4.3,2.7,3.8,0,9.8-2.4,15.2-2.4s8.6,2.3,8.6,4.7-3,5.2-8,5.2-4.5,3.7-4.5,8.6,1.8,14,3.2,19.2h-12.7Z"/><path class="cls-5" d="M184.1,86.4l.5-1.7c1.1-3.1,1.8-8.9,1.8-14.7h0s0-.4,0-2.1c0-3.5-.8-12.5-1.9-17,4.7,0,10.9,1.6,16.3,1.6s6.9-.7,9.3-3.1c.6,1,.9,2,.9,3.1,0,3.6-3.3,7.3-8.3,7.3h-.5c-4.1-.2-7.1-6-8.5-6s-.8.9-.8,3.4v2.7c0,2.1,0,4.6,0,7.3.9-1.4,3-1.8,4.5-1.8,2.4,0,4.9,1.2,7.3,1.2s2.9-.5,4.2-2c0,.7,0,1.3,0,1.8,0,3.9-1.5,5.6-4,5.6s-4.6-1.1-7.4-3.2c-1.1-.8-2.1-1.4-2.9-1.4s-1.5.7-1.7,2.3c.2,6.9.9,14.1,2.7,16.5h-11.5Z"/><path class="cls-5" d="M216.2,86.1c-1.3,0-2.7,0-4.1.3,1.8-2.3,2.7-10.1,2.7-17.8s-.9-15.5-2.7-17.8h11.9c-1.9,2.4-3.1,10.8-3.1,18.9s0,1.9,0,2.8c.4,10.3,5,13.8,8.7,13.8s5-1.8,5-4.3-1-3.5-3.3-5.4c-1.6-1.3-3.3-2.1-5.1-3.5-1.8-1.4-2.6-3.3-2.6-5.4,0-7.8,11.6-18.5,25.3-18.5h0c.4,0,.9,0,1.3,0,10.4.5,19.4,7.6,19.4,19.8s-8.4,17.4-16.8,17.4-16.8-5.8-16.8-17.4,2.1-11.3,6.2-13.5c1.5-.8,2.9-1.1,4.2-1.1,4.8,0,8.4,4.4,8.4,8.6s-2.1,6.2-7.3,7.1c.2-.6.3-1.3.3-2.1,0-4.6-3.2-10.3-4.9-10.3s-1.1.8-1.1,2.7.1,2.5.4,4.4c1.4,8.2,6.7,18.6,14.1,19.2.2,0,.4,0,.6,0,3.8,0,6.7-3.1,6.7-8.8s-.4-4.6-1.3-7.5c-2.1-6.7-6.7-12.1-12.3-14.6-2.1-.9-4.2-1.3-6.3-1.3-7.2,0-13.7,5-13.7,12.8s.4,3.8,1.1,5.9c2.1,5.7,7.2,10.3,7.2,13.5s-.4,1.8-1.5,2.5c-1.3.8-2.9,1.1-4.8,1.1-4.3,0-10.1-1.6-15.9-1.6Z"/><path class="cls-5" d="M289.1,79.6c-1.6,4.5-4.6,6.8-7.7,6.8s-6-2.2-7.4-6.7c-3.1-9.3-1.5-16.5-7.2-28.8,7,0,10.2-.4,11.9,8.1.6,2.8,1.2,10.4,2.9,17,.9,3.7,2,5.2,3,5.2,1.9,0,3.5-5.2,3.5-11.5s-1.7-14.1-6.5-19c1.6-.9,3.1-1.3,4.4-1.3,6.2,0,9.1,8.5,10.2,14.5.8,4.2.9,9.2,1,14.2,0,2.8.7,4,1.6,4s2.4-1.7,3.2-4.1c.9-2.6,1.3-6.3,1.3-10,0-8.5-2.1-17.7-5.9-17.7s-.7,0-1.1.3c1.2-2.1,3.4-3.1,5.7-3.1,3.3,0,7.6,2.3,7.6,7.7s-2.5,16.2-5.8,23.5c-2.1,4.6-5.8,7.8-9.1,7.8s-4.8-2-5.5-6.9Z"/><path class="cls-5" d="M69.3,77.9c-.3,0-.7,0-1.1,0-1.3-.3-2.6-1.3-3.7-2.8-1.5-2-2.9-4-4.3-5.8-1-1.4-2-2.7-2.9-4-1-1.4-2.1-2.8-3-4.1-2.3-3.1-4.4-6-6.3-8.6s-3.1-4.8-4.5-6.9-.3-.8-.4-1.2c0-.3,0-.7.3-.9.3-.2.6-.1.9,0,1.3.5,2.7,2.4,3.9,3.8,2.8,3,4.3,4.9,7.2,8.5,1.6,2,3.3,4.1,5.1,6.4,2.2,2.8,4.7,5.9,7.4,9.2,1,1.2,1.6,2.8,1.9,4.9.2,1.4,0,1.4-.5,1.5Z"/><path class="cls-5" d="M78.3,85c-.6-.3-1.2-.6-1.7-.9-.8-.6-1.1-1.5-1.1-2.6,0-1,0-2-.2-3-.4-1.9-1.8-2.5-3.6-1.8-.2,0-.4.2-.4.4-.5,1.6-1,2.1-2.7,2.3,0,0,0,0-.2,0-.2,1.3.2,2.5,1.1,3.5.9,1,2.1,1.5,3.4,1.9,1.5.4,3.1.6,4.6.4.2,0,.5,0,.7-.1Z"/></g><path class="cls-2" d="M309.5,43.5v48.4H34.4v-48.4h275.1M310,43H33.9v49.4h276.1v-49.4h0Z"/><rect class="cls-8" x=".3" y="7" width="343.4" height="121.1"/><polyline class="cls-8" points="33.9 127.2 33.9 128.1 32.9 128.1"/><line class="cls-6" x1="31" y1="128.1" x2="2.2" y2="128.1"/><polyline class="cls-8" points="1.2 128.1 .2 128.1 .2 127.2"/><line class="cls-7" x1=".2" y1="125.2" x2=".2" y2="94.4"/><polyline class="cls-8" points=".2 93.4 .2 92.4 1.2 92.4"/><line class="cls-6" x1="3.1" y1="92.4" x2="32" y2="92.4"/><polyline class="cls-8" points="32.9 92.4 33.9 92.4 33.9 93.4"/><line class="cls-7" x1="33.9" y1="95.4" x2="33.9" y2="126.2"/><polyline class="cls-8" points="33.9 41.8 33.9 42.7 32.9 42.7"/><line class="cls-6" x1="31" y1="42.7" x2="2.2" y2="42.7"/><polyline class="cls-8" points="1.2 42.7 .2 42.7 .2 41.8"/><line class="cls-7" x1=".2" y1="39.8" x2=".2" y2="9"/><polyline class="cls-8" points=".2 8 .2 7 1.2 7"/><line class="cls-6" x1="3.1" y1="7" x2="32" y2="7"/><polyline class="cls-8" points="32.9 7 33.9 7 33.9 8"/><line class="cls-7" x1="33.9" y1="10" x2="33.9" y2="40.8"/><polyline class="cls-8" points="343.7 127.2 343.7 128.1 342.7 128.1"/><line class="cls-6" x1="340.8" y1="128.1" x2="312" y2="128.1"/><polyline class="cls-8" points="311 128.1 310.1 128.1 310.1 127.2"/><line class="cls-7" x1="310.1" y1="125.2" x2="310.1" y2="94.4"/><polyline class="cls-8" points="310.1 93.4 310.1 92.4 311 92.4"/><line class="cls-6" x1="312.9" y1="92.4" x2="341.8" y2="92.4"/><polyline class="cls-8" points="342.7 92.4 343.7 92.4 343.7 93.4"/><line class="cls-7" x1="343.7" y1="95.4" x2="343.7" y2="126.2"/><polyline class="cls-8" points="343.7 41.8 343.7 42.7 342.7 42.7"/><line class="cls-6" x1="340.8" y1="42.7" x2="312" y2="42.7"/><polyline class="cls-8" points="311 42.7 310.1 42.7 310.1 41.8"/><line class="cls-7" x1="310.1" y1="39.8" x2="310.1" y2="9"/><polyline class="cls-8" points="310.1 8 310.1 7 311 7"/><line class="cls-6" x1="312.9" y1="7" x2="341.8" y2="7"/><polyline class="cls-8" points="342.7 7 343.7 7 343.7 8"/><line class="cls-7" x1="343.7" y1="10" x2="343.7" y2="40.8"/><rect class="cls-1" x="343.4" y="92.4" width=".5" height="35.5"/><path class="cls-1" d="M351.9,106l1.6,4.1,1.6-4.1h.9v5h-.7v-4c0,0-1.6,4-1.6,4h-.5l-1.6-4v2.1c0,0,0,1.9,0,1.9h-.7v-5h.8Z"/><path class="cls-1" d="M359.4,111c0,0,0-.2,0-.4-.3.3-.6.5-1.1.5s-.7-.1-.9-.3c-.2-.2-.3-.5-.3-.8s.1-.7.4-.9c.3-.2.7-.3,1.2-.3h.6v-.3c0-.2,0-.4-.2-.5-.1-.1-.3-.2-.6-.2s-.4,0-.6.2-.2.3-.2.4h-.6c0-.2,0-.4.2-.5.1-.2.3-.3.5-.4s.5-.2.7-.2c.4,0,.8.1,1,.3.2.2.4.5.4.9v1.7c0,.3,0,.6.1.8h0c0,0-.7,0-.7,0ZM358.3,110.5c.2,0,.4,0,.6-.2s.3-.2.4-.4v-.8h-.5c-.8,0-1.2.2-1.2.7s0,.4.2.5.3.2.5.2Z"/><path class="cls-1" d="M362.7,107.9c0,0-.2,0-.3,0-.4,0-.7.2-.8.5v2.6h-.6v-3.7h.6v.4c.2-.3.5-.5.9-.5s.2,0,.3,0v.6Z"/><path class="cls-1" d="M363,109.1c0-.6.1-1,.4-1.4.3-.3.6-.5,1.1-.5s.8.2,1.1.5v-.4h.6v3.6c0,.5-.1.9-.4,1.1-.3.3-.7.4-1.1.4s-.5,0-.8-.2-.5-.3-.6-.5l.3-.4c.3.3.6.5,1,.5s.5,0,.7-.3.3-.4.3-.7v-.3c-.3.3-.6.4-1,.4s-.8-.2-1.1-.5-.4-.8-.4-1.4ZM363.7,109.2c0,.4,0,.7.3,1,.2.2.4.4.7.4s.7-.2.9-.5v-1.7c-.2-.4-.5-.5-.9-.5s-.5.1-.7.4-.3.6-.3,1.1Z"/><path class="cls-1" d="M367.1,106.3c0-.1,0-.2,0-.3s.2-.1.3-.1.2,0,.3.1,0,.2,0,.3,0,.2,0,.3-.2.1-.3.1-.2,0-.3-.1,0-.2,0-.3ZM367.8,111h-.6v-3.7h.6v3.7Z"/><path class="cls-1" d="M369.4,107.3v.5c.3-.4.7-.5,1.1-.5.8,0,1.2.4,1.2,1.3v2.4h-.6v-2.4c0-.3,0-.5-.2-.6-.1-.1-.3-.2-.6-.2s-.4,0-.5.2c-.2.1-.3.3-.4.4v2.6h-.6v-3.7h.6Z"/><path class="cls-1" d="M376.2,107.9c0,0-.2,0-.3,0-.4,0-.7.2-.8.5v2.6h-.6v-3.7h.6v.4c.2-.3.5-.5.9-.5s.2,0,.3,0v.6Z"/><path class="cls-1" d="M378.3,111.1c-.5,0-.9-.2-1.2-.5-.3-.3-.5-.8-.5-1.3h0c0-.5,0-.8.2-1.1.1-.3.3-.5.6-.7.3-.2.5-.2.8-.2.5,0,.9.2,1.1.5s.4.8.4,1.4v.3h-2.5c0,.4.1.7.3.9.2.2.5.3.8.3s.4,0,.6-.1c.2,0,.3-.2.4-.4l.4.3c-.3.5-.8.7-1.4.7ZM378.2,107.8c-.3,0-.5,0-.6.3-.2.2-.3.4-.3.8h1.9c0-.4-.1-.6-.3-.8-.2-.2-.4-.3-.6-.3Z"/><path class="cls-1" d="M380.3,109.1c0-.6.1-1,.4-1.4.3-.3.6-.5,1.1-.5s.8.1,1,.4v-.4h.6v5.1h-.6v-1.8c-.3.3-.6.4-1,.4s-.8-.2-1.1-.5c-.3-.3-.4-.8-.4-1.4h0ZM380.9,109.2c0,.4,0,.8.3,1s.4.4.7.4.7-.2.9-.5v-1.8c-.2-.3-.5-.5-.9-.5s-.5.1-.7.4c-.2.2-.3.6-.3,1.1Z"/><path class="cls-1" d="M386.7,110.6c-.2.3-.6.4-1.1.4s-.7-.1-.9-.3c-.2-.2-.3-.6-.3-1v-2.4h.6v2.4c0,.6.2.8.7.8s.8-.2,1-.5v-2.7h.6v3.7h-.6v-.4Z"/><path class="cls-1" d="M388.3,106.3c0-.1,0-.2,0-.3s.2-.1.3-.1.2,0,.3.1,0,.2,0,.3,0,.2,0,.3-.2.1-.3.1-.2,0-.3-.1,0-.2,0-.3ZM389,111h-.6v-3.7h.6v3.7Z"/><path class="cls-1" d="M391.8,107.9c0,0-.2,0-.3,0-.4,0-.7.2-.8.5v2.6h-.6v-3.7h.6v.4c.2-.3.5-.5.9-.5s.2,0,.3,0v.6Z"/><path class="cls-1" d="M393.8,111.1c-.5,0-.9-.2-1.2-.5-.3-.3-.5-.8-.5-1.3h0c0-.5,0-.8.2-1.1.1-.3.3-.5.6-.7.3-.2.5-.2.8-.2.5,0,.9.2,1.1.5s.4.8.4,1.4v.3h-2.5c0,.4.1.7.3.9.2.2.5.3.8.3s.4,0,.6-.1c.2,0,.3-.2.4-.4l.4.3c-.3.5-.8.7-1.4.7ZM393.7,107.8c-.3,0-.5,0-.6.3-.2.2-.3.4-.3.8h1.9c0-.4-.1-.6-.3-.8-.2-.2-.4-.3-.6-.3Z"/><path class="cls-1" d="M395.8,109.1c0-.6.1-1,.4-1.4.3-.3.6-.5,1.1-.5s.8.1,1,.4v-1.9h.6v5.2h-.6v-.4c-.3.3-.6.5-1.1.5s-.8-.2-1-.5c-.3-.4-.4-.8-.4-1.4h0ZM396.5,109.2c0,.4,0,.7.3,1s.4.4.7.4.7-.2.9-.5v-1.7c-.2-.3-.5-.5-.9-.5s-.6.1-.7.4-.3.6-.3,1.1Z"/><path class="cls-1" d="M399.9,110.7c0-.1,0-.2,0-.3,0,0,.2-.1.3-.1s.2,0,.3.1.1.2.1.3,0,.2-.1.3-.2.1-.3.1-.2,0-.3-.1c0,0,0-.2,0-.3ZM399.9,107.7c0-.1,0-.2,0-.3,0,0,.2-.1.3-.1s.2,0,.3.1.1.2.1.3,0,.2-.1.3-.2.1-.3.1-.2,0-.3-.1c0,0,0-.2,0-.3Z"/><path class="cls-1" d="M404.2,108.2h.5c.3,0,.5,0,.7-.2.2-.2.3-.4.3-.6,0-.6-.3-.9-.9-.9s-.5,0-.7.2c-.2.2-.2.4-.2.6h-.6c0-.4.1-.7.4-1,.3-.3.7-.4,1.1-.4s.8.1,1.1.4.4.6.4,1,0,.4-.2.6c-.1.2-.3.4-.6.5.3,0,.5.2.6.4s.2.4.2.7c0,.4-.1.8-.4,1.1-.3.3-.7.4-1.1.4s-.8-.1-1.1-.4-.4-.6-.4-1h.6c0,.3,0,.5.3.6.2.2.4.2.7.2s.5,0,.7-.2c.2-.2.2-.4.2-.7s0-.5-.3-.7-.4-.2-.8-.2h-.5v-.5Z"/><path class="cls-1" d="M409.7,106v.5h-.1c-.5,0-.9.2-1.2.4-.3.3-.5.7-.5,1.2.3-.3.6-.5,1.1-.5s.8.2,1,.5.4.7.4,1.2-.1.9-.4,1.2-.7.5-1.1.5-.9-.2-1.2-.5c-.3-.4-.4-.8-.4-1.4v-.2c0-.9.2-1.6.6-2.1.4-.5,1-.7,1.7-.7h.1ZM408.9,108.3c-.2,0-.4,0-.6.2-.2.1-.3.3-.4.5v.2c0,.4,0,.7.3,1,.2.3.4.4.7.4s.5-.1.7-.3.2-.5.2-.8,0-.6-.2-.8c-.2-.2-.4-.3-.7-.3Z"/><path class="cls-1" d="M414.3,109.2c0,.6-.1,1-.4,1.4-.3.3-.6.5-1,.5s-.8-.1-1.1-.4v1.8h-.6v-5.1h.6v.4c.3-.3.6-.5,1.1-.5s.8.2,1.1.5.4.8.4,1.4h0ZM413.7,109.1c0-.4,0-.7-.3-1s-.4-.4-.7-.4-.7.2-.9.5v1.8c.2.3.5.5.9.5s.5-.1.7-.4c.2-.2.3-.6.3-1.1Z"/><path class="cls-1" d="M416.3,108.7l.8-1.4h.7l-1.2,1.8,1.2,1.9h-.7l-.9-1.4-.9,1.4h-.7l1.2-1.9-1.2-1.8h.7l.8,1.4Z"/></g></g></svg>