<?xml version="1.0" encoding="UTF-8"?>
<svg id="Layer_2" data-name="Layer 2" xmlns="http://www.w3.org/2000/svg" xmlns:xlink="http://www.w3.org/1999/xlink" viewBox="0 0 48 33.01">
  <defs>
    <style>
      .cls-1 {
        fill: url(#linear-gradient);
      }

      .cls-1, .cls-2 {
        stroke-width: 0px;
      }
    </style>
    <linearGradient id="linear-gradient" x1="0" y1="20.37" x2="48" y2="20.37" gradientUnits="userSpaceOnUse">
      <stop offset=".38" stop-color="#ec599b"/>
      <stop offset="1" stop-color="#910bea"/>
    </linearGradient>
  </defs>
  <g id="Favicons">
    <g id="Logo_16px" data-name="Logo 16px">
      <path class="cls-1" d="M43.86,10.01C27.09-1.97,13.02,38.08,0,17.3c.18,9.19,9.4,15.74,17.26,13.74,5.06-.9,8.07-5.86,12.45-8.28,9.71-7.14,16.6,3.69,6.12,10.25,9.18-.71,17.4-16.51,8.03-23Z"/>
      <g id="Brush">
        <path class="cls-2" d="M27.6,27.19c-.23.04-.54.03-.91-.04-.99-.23-2.05-1.03-2.91-2.2-1.18-1.61-2.31-3.13-3.39-4.59-.8-1.08-1.57-2.12-2.31-3.13-.82-1.12-1.62-2.19-2.39-3.23-1.83-2.46-3.5-4.71-4.97-6.83-1.33-1.91-2.41-3.79-3.53-5.43-.18-.27-.27-.64-.3-.96-.03-.24,0-.53.22-.69.21-.14.48-.09.69,0,.99.41,2.11,1.9,3.06,3.03,2.18,2.4,3.42,3.85,5.73,6.68,1.28,1.57,2.62,3.25,4.05,5.04,1.75,2.19,3.71,4.65,5.83,7.25.77.94,1.26,2.21,1.5,3.9.15,1.09-.06,1.13-.36,1.19Z"/>
        <path class="cls-2" d="M34.72,32.83c-.49-.27-.98-.44-1.35-.75-.6-.51-.87-1.19-.86-2.02.01-.79,0-1.59-.16-2.35-.32-1.49-1.44-2.01-2.84-1.42-.13.06-.28.19-.32.32-.36,1.29-.77,1.65-2.11,1.78-.03,0-.06.01-.14.04-.14,1.05.12,1.99.86,2.77.74.78,1.68,1.2,2.7,1.47,1.2.32,2.42.44,3.66.28.18-.02.36-.07.55-.11Z"/>
      </g>
    </g>
  </g>
</svg>