<?xml version="1.0" encoding="UTF-8"?><svg id="Layer_2" xmlns="http://www.w3.org/2000/svg" xmlns:xlink="http://www.w3.org/1999/xlink" viewBox="0 0 166.1 71.5"><defs><style>.cls-1{fill:#ec599b;}.cls-1,.cls-2,.cls-3,.cls-4,.cls-5{stroke-width:0px;}.cls-2{fill:#b3b3b3;}.cls-3{fill:url(#linear-gradient);}.cls-4{fill:#999;}.cls-6{stroke-dasharray:0 0 2.3 2.3;}.cls-6,.cls-7,.cls-8,.cls-9{fill:none;stroke:#b3b3b3;stroke-miterlimit:10;stroke-width:.5px;}.cls-7{stroke-dasharray:0 0 1.7 1.7;}.cls-8{stroke-dasharray:0 0 1.7 1.7;}.cls-5{fill:#fff;}</style><linearGradient id="linear-gradient" x1="14.4" y1="40.7" x2="75.1" y2="40.7" gradientUnits="userSpaceOnUse"><stop offset=".4" stop-color="#ec599b"/><stop offset="1" stop-color="#910bea"/></linearGradient></defs><g id="Clearspace"><g id="Standalone_logo_space"><path class="cls-3" d="M69.9,27.6c-21.2-15.1-39,35.5-55.5,9.2.2,11.6,11.9,19.9,21.8,17.4,6.4-1.1,10.2-7.4,15.7-10.5,12.3-9,21,4.7,7.7,13,11.6-.9,22-20.9,10.1-29.1Z"/><path class="cls-5" d="M49.3,49.3c-.3,0-.7,0-1.1,0-1.3-.3-2.6-1.3-3.7-2.8-1.5-2-2.9-4-4.3-5.8-1-1.4-2-2.7-2.9-4-1-1.4-2.1-2.8-3-4.1-2.3-3.1-4.4-6-6.3-8.6-1.7-2.4-3.1-4.8-4.5-6.9s-.3-.8-.4-1.2c0-.3,0-.7.3-.9.3-.2.6-.1.9,0,1.3.5,2.7,2.4,3.9,3.8,2.8,3,4.3,4.9,7.2,8.5,1.6,2,3.3,4.1,5.1,6.4,2.2,2.8,4.7,5.9,7.4,9.2,1,1.2,1.6,2.8,1.9,4.9.2,1.4,0,1.4-.5,1.5Z"/><path class="cls-5" d="M58.3,56.4c-.6-.3-1.2-.6-1.7-.9-.8-.6-1.1-1.5-1.1-2.6,0-1,0-2-.2-3-.4-1.9-1.8-2.5-3.6-1.8-.2,0-.4.2-.4.4-.5,1.6-1,2.1-2.7,2.3,0,0,0,0-.2,0-.2,1.3.2,2.5,1.1,3.5.9,1,2.1,1.5,3.4,1.9,1.5.4,3.1.6,4.6.4.2,0,.5,0,.7-.1Z"/><path class="cls-4" d="M32.4,71.3c-.2-1.1-.3-2.1-.3-3,0-5.8,3-8.9,6.7-8.9,5.4,0,9.9,5.5,12.5,11.9h8.2c-1.4-9.4-9-14.2-16.6-14.2s-15.1,4.7-16.5,14.2h5.9Z"/><path class="cls-4" d="M34.1.3c-.2,1.1-.3,2.1-.3,3,0,5.8,3,8.9,6.7,8.9,5.4,0,9.9-5.5,12.5-11.9h8.2c-1.4,9.4-9,14.2-16.6,14.2S29.6,9.7,28.2.3h5.9Z"/><path class="cls-4" d="M89.3,26.5c-1.1-.2-2.1-.3-3-.3-5.8,0-8.9,3-8.9,6.7,0,5.4,5.5,9.9,11.9,12.5v8.2c-9.4-1.4-14.2-9-14.2-16.6s4.7-15.1,14.2-16.5v5.9Z"/><path class="cls-4" d="M.3,26.5c1.1-.2,2.1-.3,3-.3,5.8,0,8.9,3,8.9,6.7,0,5.4-5.5,9.9-11.9,12.5v8.2c9.4-1.4,14.2-9,14.2-16.6S9.7,22,.3,20.6v5.9Z"/><g id="Margin_border"><path class="cls-2" d="M75.1,14.9v41.7H14.4V14.9h60.7M75.6,14.4H13.9v42.7h61.7V14.4h0Z"/><rect class="cls-9" x=".3" y=".3" width="89" height="71"/><polyline class="cls-9" points="89.3 70.3 89.3 71.3 88.3 71.3"/><line class="cls-6" x1="85.9" y1="71.3" x2="77.8" y2="71.3"/><polyline class="cls-9" points="76.6 71.3 75.6 71.3 75.6 70.3"/><line class="cls-8" x1="75.6" y1="68.6" x2="75.6" y2="59"/><polyline class="cls-9" points="75.6 58.1 75.6 57.1 76.6 57.1"/><line class="cls-6" x1="79" y1="57.1" x2="87.1" y2="57.1"/><polyline class="cls-9" points="88.3 57.1 89.3 57.1 89.3 58.1"/><line class="cls-8" x1="89.3" y1="59.9" x2="89.3" y2="69.4"/><polyline class="cls-9" points="13.9 70.3 13.9 71.3 12.9 71.3"/><line class="cls-6" x1="10.5" y1="71.3" x2="2.4" y2="71.3"/><polyline class="cls-9" points="1.2 71.3 .2 71.3 .2 70.3"/><line class="cls-8" x1=".2" y1="68.6" x2=".2" y2="59"/><polyline class="cls-9" points=".2 58.1 .2 57.1 1.2 57.1"/><line class="cls-6" x1="3.6" y1="57.1" x2="11.7" y2="57.1"/><polyline class="cls-9" points="12.9 57.1 13.9 57.1 13.9 58.1"/><line class="cls-8" x1="13.9" y1="59.9" x2="13.9" y2="69.4"/><polyline class="cls-9" points="89.3 13.4 89.3 14.4 88.3 14.4"/><line class="cls-7" x1="86.6" y1="14.4" x2="77.2" y2="14.4"/><polyline class="cls-9" points="76.4 14.4 75.4 14.4 75.4 13.4"/><line class="cls-8" x1="75.4" y1="11.7" x2="75.4" y2="2.1"/><polyline class="cls-9" points="75.4 1.2 75.4 .2 76.4 .2"/><line class="cls-7" x1="78.1" y1=".2" x2="87.4" y2=".2"/><polyline class="cls-9" points="88.3 .2 89.3 .2 89.3 1.2"/><line class="cls-8" x1="89.3" y1="3" x2="89.3" y2="12.5"/><polyline class="cls-9" points="13.9 13.4 13.9 14.4 12.9 14.4"/><line class="cls-6" x1="10.5" y1="14.4" x2="2.4" y2="14.4"/><polyline class="cls-9" points="1.2 14.4 .2 14.4 .2 13.4"/><line class="cls-8" x1=".2" y1="11.7" x2=".2" y2="2.1"/><polyline class="cls-9" points=".2 1.2 .2 .2 1.2 .2"/><line class="cls-6" x1="3.6" y1=".2" x2="11.7" y2=".2"/><polyline class="cls-9" points="12.9 .2 13.9 .2 13.9 1.2"/><line class="cls-8" x1="13.9" y1="3" x2="13.9" y2="12.5"/><rect class="cls-1" x="89" y="56.9" width=".5" height="14.1"/><path class="cls-1" d="M95.4,61.5l1.6,4.1,1.6-4.1h.9v5h-.7v-4c0,0-1.6,4-1.6,4h-.5l-1.6-4v2.1c0,0,0,1.9,0,1.9h-.7v-5h.8Z"/><path class="cls-1" d="M102.9,66.5c0,0,0-.2,0-.4-.3.3-.6.5-1.1.5s-.7-.1-.9-.3c-.2-.2-.3-.5-.3-.8s.1-.7.4-.9c.3-.2.7-.3,1.2-.3h.6v-.3c0-.2,0-.4-.2-.5-.1-.1-.3-.2-.6-.2s-.4,0-.6.2-.2.3-.2.4h-.6c0-.2,0-.4.2-.5.1-.2.3-.3.5-.4s.5-.2.7-.2c.4,0,.8.1,1,.3.2.2.4.5.4.9v1.7c0,.3,0,.6.1.8h0c0,0-.7,0-.7,0ZM101.8,66c.2,0,.4,0,.6-.2s.3-.2.4-.4v-.8h-.5c-.8,0-1.2.2-1.2.7s0,.4.2.5.3.2.5.2Z"/><path class="cls-1" d="M106.2,63.4c0,0-.2,0-.3,0-.4,0-.7.2-.8.5v2.6h-.6v-3.7h.6v.4c.2-.3.5-.5.9-.5s.2,0,.3,0v.6Z"/><path class="cls-1" d="M106.5,64.6c0-.6.1-1,.4-1.4.3-.3.6-.5,1.1-.5s.8.2,1.1.5v-.4h.6v3.6c0,.5-.1.9-.4,1.1-.3.3-.7.4-1.1.4s-.5,0-.8-.2-.5-.3-.6-.5l.3-.4c.3.3.6.5,1,.5s.5,0,.7-.3.3-.4.3-.7v-.3c-.3.3-.6.4-1,.4s-.8-.2-1.1-.5-.4-.8-.4-1.4ZM107.2,64.7c0,.4,0,.7.3,1,.2.2.4.4.7.4s.7-.2.9-.5v-1.7c-.2-.4-.5-.5-.9-.5s-.5.1-.7.4-.3.6-.3,1.1Z"/><path class="cls-1" d="M110.6,61.8c0-.1,0-.2,0-.3s.2-.1.3-.1.2,0,.3.1,0,.2,0,.3,0,.2,0,.3-.2.1-.3.1-.2,0-.3-.1,0-.2,0-.3ZM111.3,66.5h-.6v-3.7h.6v3.7Z"/><path class="cls-1" d="M112.9,62.8v.5c.3-.4.7-.5,1.1-.5.8,0,1.2.4,1.2,1.3v2.4h-.6v-2.4c0-.3,0-.5-.2-.6-.1-.1-.3-.2-.6-.2s-.4,0-.5.2c-.2.1-.3.3-.4.4v2.6h-.6v-3.7h.6Z"/><path class="cls-1" d="M119.7,63.4c0,0-.2,0-.3,0-.4,0-.7.2-.8.5v2.6h-.6v-3.7h.6v.4c.2-.3.5-.5.9-.5s.2,0,.3,0v.6Z"/><path class="cls-1" d="M121.8,66.6c-.5,0-.9-.2-1.2-.5-.3-.3-.5-.8-.5-1.3h0c0-.5,0-.8.2-1.1.1-.3.3-.5.6-.7.3-.2.5-.2.8-.2.5,0,.9.2,1.1.5s.4.8.4,1.4v.3h-2.5c0,.4.1.7.3.9.2.2.5.3.8.3s.4,0,.6-.1c.2,0,.3-.2.4-.4l.4.3c-.3.5-.8.7-1.4.7ZM121.7,63.2c-.3,0-.5,0-.6.3-.2.2-.3.4-.3.8h1.9c0-.4-.1-.6-.3-.8-.2-.2-.4-.3-.6-.3Z"/><path class="cls-1" d="M123.8,64.6c0-.6.1-1,.4-1.4.3-.3.6-.5,1.1-.5s.8.1,1,.4v-.4h.6v5.1h-.6v-1.8c-.3.3-.6.4-1,.4s-.8-.2-1.1-.5c-.3-.3-.4-.8-.4-1.4h0ZM124.4,64.7c0,.4,0,.8.3,1s.4.4.7.4.7-.2.9-.5v-1.8c-.2-.3-.5-.5-.9-.5s-.5.1-.7.4c-.2.2-.3.6-.3,1.1Z"/><path class="cls-1" d="M130.2,66.1c-.2.3-.6.4-1.1.4s-.7-.1-.9-.3c-.2-.2-.3-.6-.3-1v-2.4h.6v2.4c0,.6.2.8.7.8s.8-.2,1-.5v-2.7h.6v3.7h-.6v-.4Z"/><path class="cls-1" d="M131.8,61.8c0-.1,0-.2,0-.3s.2-.1.3-.1.2,0,.3.1,0,.2,0,.3,0,.2,0,.3-.2.1-.3.1-.2,0-.3-.1,0-.2,0-.3ZM132.5,66.5h-.6v-3.7h.6v3.7Z"/><path class="cls-1" d="M135.3,63.4c0,0-.2,0-.3,0-.4,0-.7.2-.8.5v2.6h-.6v-3.7h.6v.4c.2-.3.5-.5.9-.5s.2,0,.3,0v.6Z"/><path class="cls-1" d="M137.3,66.6c-.5,0-.9-.2-1.2-.5-.3-.3-.5-.8-.5-1.3h0c0-.5,0-.8.2-1.1.1-.3.3-.5.6-.7.3-.2.5-.2.8-.2.5,0,.9.2,1.1.5s.4.8.4,1.4v.3h-2.5c0,.4.1.7.3.9.2.2.5.3.8.3s.4,0,.6-.1c.2,0,.3-.2.4-.4l.4.3c-.3.5-.8.7-1.4.7ZM137.2,63.2c-.3,0-.5,0-.6.3-.2.2-.3.4-.3.8h1.9c0-.4-.1-.6-.3-.8-.2-.2-.4-.3-.6-.3Z"/><path class="cls-1" d="M139.3,64.6c0-.6.1-1,.4-1.4.3-.3.6-.5,1.1-.5s.8.1,1,.4v-1.9h.6v5.2h-.6v-.4c-.3.3-.6.5-1.1.5s-.8-.2-1-.5c-.3-.4-.4-.8-.4-1.4h0ZM140,64.7c0,.4,0,.7.3,1s.4.4.7.4.7-.2.9-.5v-1.7c-.2-.3-.5-.5-.9-.5s-.6.1-.7.4-.3.6-.3,1.1Z"/><path class="cls-1" d="M143.4,66.2c0-.1,0-.2,0-.3,0,0,.2-.1.3-.1s.2,0,.3.1.1.2.1.3,0,.2-.1.3-.2.1-.3.1-.2,0-.3-.1c0,0,0-.2,0-.3ZM143.4,63.1c0-.1,0-.2,0-.3,0,0,.2-.1.3-.1s.2,0,.3.1.1.2.1.3,0,.2-.1.3-.2.1-.3.1-.2,0-.3-.1c0,0,0-.2,0-.3Z"/><path class="cls-1" d="M148.9,66.5h-.6v-4.2l-1.3.5v-.6l1.8-.7h0v5Z"/><path class="cls-1" d="M153.4,64.8h.7v.5h-.7v1.2h-.6v-1.2h-2.3v-.4l2.2-3.4h.7v3.3ZM151.2,64.8h1.5v-2.4h0c0,.1-1.5,2.4-1.5,2.4Z"/><path class="cls-1" d="M157.8,64.7c0,.6-.1,1-.4,1.4-.3.3-.6.5-1,.5s-.8-.1-1.1-.4v1.8h-.6v-5.1h.6v.4c.3-.3.6-.5,1.1-.5s.8.2,1.1.5.4.8.4,1.4h0ZM157.2,64.6c0-.4,0-.7-.3-1s-.4-.4-.7-.4-.7.2-.9.5v1.8c.2.3.5.5.9.5s.5-.1.7-.4c.2-.2.3-.6.3-1.1Z"/><path class="cls-1" d="M159.8,64.1l.8-1.4h.7l-1.2,1.8,1.2,1.9h-.7l-.9-1.4-.9,1.4h-.7l1.2-1.9-1.2-1.8h.7l.8,1.4Z"/></g></g></g></svg>