<svg width="40" height="66" viewBox="0 0 40 66" fill="none" xmlns="http://www.w3.org/2000/svg">
<path d="M39 20C39 30.4934 30.4934 39 20 39C9.50659 39 1 30.4934 1 20C1 9.50659 9.50659 1 20 1C30.4934 1 39 9.50659 39 20Z" fill="#333333" stroke="#FFFFFC" stroke-width="2"/>
<path d="M15.5312 51.6328L11.7656 62H10.2266L14.5625 50.625H15.5547L15.5312 51.6328ZM18.6875 62L14.9141 51.6328L14.8906 50.625H15.8828L20.2344 62H18.6875ZM18.4922 57.7891V59.0234H12.1016V57.7891H18.4922ZM23.1094 50V62H21.6562V50H23.1094ZM27 50V62H25.5469V50H27Z" fill="#FFFFFC"/>
<path d="M18.75 28C18.75 28 17.5 28 17.5 26.75C17.5 25.5 18.75 21.75 23.75 21.75C28.75 21.75 30 25.5 30 26.75C30 28 28.75 28 28.75 28H18.75ZM23.75 20.5C24.7446 20.5 25.6984 20.1049 26.4017 19.4017C27.1049 18.6984 27.5 17.7446 27.5 16.75C27.5 15.7554 27.1049 14.8016 26.4017 14.0983C25.6984 13.3951 24.7446 13 23.75 13C22.7554 13 21.8016 13.3951 21.0983 14.0983C20.3951 14.8016 20 15.7554 20 16.75C20 17.7446 20.3951 18.6984 21.0983 19.4017C21.8016 20.1049 22.7554 20.5 23.75 20.5ZM16.52 28C16.3348 27.6097 16.2424 27.1819 16.25 26.75C16.25 25.0562 17.1 23.3125 18.67 22.1C17.8865 21.858 17.07 21.74 16.25 21.75C11.25 21.75 10 25.5 10 26.75C10 28 11.25 28 11.25 28H16.52ZM15.625 20.5C16.4538 20.5 17.2487 20.1708 17.8347 19.5847C18.4208 18.9987 18.75 18.2038 18.75 17.375C18.75 16.5462 18.4208 15.7513 17.8347 15.1653C17.2487 14.5792 16.4538 14.25 15.625 14.25C14.7962 14.25 14.0013 14.5792 13.4153 15.1653C12.8292 15.7513 12.5 16.5462 12.5 17.375C12.5 18.2038 12.8292 18.9987 13.4153 19.5847C14.0013 20.1708 14.7962 20.5 15.625 20.5Z" fill="#FFFFFC"/>
</svg>
