<svg width="20" height="20" viewBox="0 0 20 20" fill="none" xmlns="http://www.w3.org/2000/svg">
<path d="M13.5713 6.13027C12.9865 2.52874 11.6072 0 10.002 0C8.39685 0 7.01754 2.52874 6.43275 6.13027H13.5713ZM6.13027 10.002C6.13027 10.8974 6.17867 11.7564 6.26336 12.5832H13.7366C13.8213 11.7564 13.8697 10.8974 13.8697 10.002C13.8697 9.10667 13.8213 8.24763 13.7366 7.42085H6.26336C6.17867 8.24763 6.13027 9.10667 6.13027 10.002ZM19.2257 6.13027C18.0722 3.39181 15.737 1.27445 12.8534 0.419439C13.8375 1.78262 14.515 3.83545 14.8699 6.13027H19.2257ZM7.1466 0.419439C4.26699 1.27445 1.92781 3.39181 0.778383 6.13027H5.1341C5.48498 3.83545 6.16253 1.78262 7.1466 0.419439ZM19.6572 7.42085H15.0313C15.116 8.2678 15.1643 9.13491 15.1643 10.002C15.1643 10.8691 15.116 11.7362 15.0313 12.5832H19.6532C19.875 11.7564 20 10.8974 20 10.002C20 9.10667 19.875 8.24763 19.6572 7.42085ZM4.83969 10.002C4.83969 9.13491 4.88808 8.2678 4.97278 7.42085H0.346844C0.129058 8.24763 0 9.10667 0 10.002C0 10.8974 0.129058 11.7564 0.346844 12.5832H4.96874C4.88808 11.7362 4.83969 10.8691 4.83969 10.002ZM6.43275 13.8738C7.01754 17.4753 8.39685 20.004 10.002 20.004C11.6072 20.004 12.9865 17.4753 13.5713 13.8738H6.43275ZM12.8574 19.5846C15.737 18.7296 18.0762 16.6122 19.2297 13.8738H14.874C14.5191 16.1686 13.8415 18.2214 12.8574 19.5846ZM0.778383 13.8738C1.93184 16.6122 4.26699 18.7296 7.15064 19.5846C6.16657 18.2214 5.48901 16.1686 5.1341 13.8738H0.778383Z" fill="#4CC9F0"/>
</svg>
