<svg width="20" height="20" viewBox="0 0 20 20" fill="none" xmlns="http://www.w3.org/2000/svg">
<path d="M10 0C8.02219 0 6.08879 0.58649 4.4443 1.6853C2.79981 2.78412 1.51809 4.3459 0.761209 6.17316C0.00433284 8.00042 -0.1937 10.0111 0.192152 11.9509C0.578004 13.8907 1.53041 15.6725 2.92894 17.0711C4.32746 18.4696 6.10929 19.422 8.0491 19.8078C9.98891 20.1937 11.9996 19.9957 13.8268 19.2388C15.6541 18.4819 17.2159 17.2002 18.3147 15.5557C19.4135 13.9112 20 11.9778 20 10C19.9972 7.34869 18.9427 4.80678 17.068 2.93202C15.1932 1.05727 12.6513 0.00279983 10 0ZM10 16.1538C9.77179 16.1538 9.54871 16.0862 9.35896 15.9594C9.16921 15.8326 9.02132 15.6524 8.93399 15.4416C8.84666 15.2307 8.82381 14.9987 8.86833 14.7749C8.91285 14.5511 9.02274 14.3455 9.18411 14.1841C9.34548 14.0227 9.55107 13.9128 9.7749 13.8683C9.99872 13.8238 10.2307 13.8467 10.4416 13.934C10.6524 14.0213 10.8326 14.1692 10.9594 14.359C11.0862 14.5487 11.1538 14.7718 11.1538 15C11.1538 15.306 11.0323 15.5995 10.8159 15.8159C10.5995 16.0323 10.306 16.1538 10 16.1538ZM10.7692 11.4692V11.5385C10.7692 11.7425 10.6882 11.9381 10.5439 12.0824C10.3997 12.2266 10.204 12.3077 10 12.3077C9.79599 12.3077 9.60033 12.2266 9.45607 12.0824C9.31182 11.9381 9.23077 11.7425 9.23077 11.5385V10.7692C9.23077 10.5652 9.31182 10.3696 9.45607 10.2253C9.60033 10.081 9.79599 10 10 10C11.2721 10 12.3077 9.13461 12.3077 8.07692C12.3077 7.01923 11.2721 6.15384 10 6.15384C8.72789 6.15384 7.69231 7.01923 7.69231 8.07692V8.46154C7.69231 8.66555 7.61127 8.86121 7.46701 9.00546C7.32275 9.14972 7.12709 9.23077 6.92308 9.23077C6.71907 9.23077 6.52341 9.14972 6.37915 9.00546C6.23489 8.86121 6.15385 8.66555 6.15385 8.46154V8.07692C6.15385 6.16827 7.87885 4.61538 10 4.61538C12.1212 4.61538 13.8462 6.16827 13.8462 8.07692C13.8462 9.74807 12.5231 11.1471 10.7692 11.4692Z" fill="#4CC9F0"/>
</svg>
