<svg width="20" height="16" viewBox="0 0 20 16" fill="none" xmlns="http://www.w3.org/2000/svg">
<path d="M18.8274 0.00188566C16.9246 0.109874 13.1426 0.502936 10.8078 1.93213C10.6467 2.03074 10.5554 2.20609 10.5554 2.38943V15.024C10.5554 15.4251 10.9939 15.6785 11.3637 15.4924C13.7659 14.2834 17.2399 13.9535 18.9576 13.8632C19.5441 13.8323 20 13.3622 20 12.7986V1.06788C20.0003 0.452935 19.467 -0.0342261 18.8274 0.00188566ZM9.19217 1.93213C6.85776 0.502936 3.07575 0.110221 1.17294 0.00188566C0.533342 -0.0342261 0 0.452935 0 1.06788V12.799C0 13.3629 0.455911 13.833 1.04238 13.8636C2.76081 13.9539 6.23657 14.2841 8.63869 15.4938C9.00745 15.6796 9.44461 15.4265 9.44461 15.0265V2.38318C9.44461 2.19949 9.35363 2.03109 9.19217 1.93213Z" fill="#4CC9F0"/>
</svg>
