<svg width="18" height="20" viewBox="0 0 18 20" fill="none" xmlns="http://www.w3.org/2000/svg">
<path d="M15.3061 8.75H14.3878V5.9375C14.3878 2.66406 11.7781 0 8.57143 0C5.3648 0 2.7551 2.66406 2.7551 5.9375V8.75H1.83673C0.822704 8.75 0 9.58984 0 10.625V18.125C0 19.1602 0.822704 20 1.83673 20H15.3061C16.3202 20 17.1429 19.1602 17.1429 18.125V10.625C17.1429 9.58984 16.3202 8.75 15.3061 8.75ZM11.3265 8.75H5.81633V5.9375C5.81633 4.38672 7.0523 3.125 8.57143 3.125C10.0906 3.125 11.3265 4.38672 11.3265 5.9375V8.75Z" fill="#4CC9F0"/>
</svg>
