<svg width="29" height="30" viewBox="0 0 29 30" fill="none" xmlns="http://www.w3.org/2000/svg">
<path d="M26.9498 9.28736L26.9492 9.28601C26.2719 7.6695 25.2866 6.20018 24.0483 4.9599C22.8127 3.71689 21.345 2.72857 19.7286 2.05102C18.0729 1.35391 16.2941 0.996507 14.4977 1.00003L14.4428 1.00001L14.4378 1.00004C12.615 1.00908 10.8471 1.37109 9.18157 2.08438C7.57926 2.76876 6.12559 3.75868 4.90177 4.99884C3.67487 6.23688 2.70045 7.70171 2.03278 9.31176L2.03254 9.31233C1.34 10.9853 0.989027 12.7799 1.00026 14.5904C1.00911 16.6045 1.47224 18.6031 2.33957 20.4071V24.4245C2.33957 25.6856 3.36186 26.7107 4.62296 26.7107H8.63421C10.4448 27.584 12.4284 28.043 14.4407 28.0528H14.4456H14.5043C16.3078 28.0528 18.0572 27.7026 19.7058 27.0172L19.7062 27.017C21.3144 26.3476 22.7766 25.3709 24.0108 24.1416C25.2545 22.907 26.2336 21.4626 26.919 19.8533L26.919 19.8532C27.629 18.1855 27.9909 16.4126 27.9999 14.5873L27.9999 14.5856C28.006 12.7495 27.6498 10.965 26.9498 9.28736ZM8.91773 14.8685C8.73321 14.8685 8.57841 14.7165 8.57841 14.5264C8.57841 14.3364 8.73321 14.1843 8.91773 14.1843C9.10225 14.1843 9.25705 14.3364 9.25705 14.5264C9.25705 14.7178 9.10369 14.8685 8.91773 14.8685ZM14.4987 14.8685C14.3142 14.8685 14.1594 14.7165 14.1594 14.5264C14.1594 14.3364 14.3142 14.1843 14.4987 14.1843C14.6832 14.1843 14.838 14.3364 14.838 14.5264C14.838 14.7165 14.6832 14.8685 14.4987 14.8685ZM20.0797 14.8685C19.8951 14.8685 19.7403 14.7165 19.7403 14.5264C19.7403 14.3364 19.8951 14.1843 20.0797 14.1843C20.2642 14.1843 20.419 14.3364 20.419 14.5264C20.419 14.7165 20.2642 14.8685 20.0797 14.8685Z" stroke="#FFFFFC" stroke-width="2"/>
</svg>
