<svg width="25" height="26" viewBox="0 0 25 26" fill="none" xmlns="http://www.w3.org/2000/svg">
<path d="M24.0269 7.67245C23.3996 6.17522 22.4869 4.81435 21.3399 3.66568C20.1962 2.515 18.8377 1.60015 17.3415 0.973059C15.8087 0.327534 14.1618 -0.00336186 12.4987 2.57499e-05H12.4428C10.7511 0.00841397 9.11544 0.343943 7.57481 1.00382C6.09141 1.63734 4.74566 2.55381 3.61277 3.70203C2.47682 4.84812 1.57464 6.20423 0.956505 7.69482C0.314848 9.24486 -0.010282 10.9076 0.00024782 12.5851C0.00863604 14.5256 0.472784 16.4521 1.33957 18.1745V22.4245C1.33957 23.1347 1.91556 23.7107 2.62296 23.7107H6.8674C8.59782 24.5839 10.5074 25.0433 12.4456 25.0528H12.5043C14.1763 25.0528 15.7953 24.7285 17.3219 24.0938C18.8106 23.4742 20.164 22.57 21.3063 21.4319C22.4583 20.2883 23.3642 18.9518 23.9989 17.4615C24.656 15.9181 24.9915 14.2768 24.9999 12.5824C25.0055 10.8795 24.6756 9.22706 24.0269 7.67245ZM6.91773 13.8685C6.17957 13.8685 5.57841 13.2674 5.57841 12.5264C5.57841 11.7855 6.17957 11.1843 6.91773 11.1843C7.65589 11.1843 8.25705 11.7855 8.25705 12.5264C8.25705 13.2674 7.65869 13.8685 6.91773 13.8685ZM12.4987 13.8685C11.7605 13.8685 11.1594 13.2674 11.1594 12.5264C11.1594 11.7855 11.7605 11.1843 12.4987 11.1843C13.2369 11.1843 13.838 11.7855 13.838 12.5264C13.838 13.2674 13.2369 13.8685 12.4987 13.8685ZM18.0797 13.8685C17.3415 13.8685 16.7403 13.2674 16.7403 12.5264C16.7403 11.7855 17.3415 11.1843 18.0797 11.1843C18.8178 11.1843 19.419 11.7855 19.419 12.5264C19.419 13.2674 18.8178 13.8685 18.0797 13.8685Z" fill="#F5F5F5"/>
</svg>
