<svg width="30" height="30" viewBox="0 0 30 30" fill="none" xmlns="http://www.w3.org/2000/svg">
<path fill-rule="evenodd" clip-rule="evenodd" d="M15 0C23.2845 0 30 6.7155 30 15C30 23.2845 23.2845 30 15 30C6.7155 30 0 23.2845 0 15C0 6.7155 6.7155 0 15 0ZM19.2 17.7855C18.0798 18.8868 16.5709 19.5027 15 19.5C13.4291 19.5027 11.9202 18.8868 10.8 17.7855C10.6601 17.6443 10.4934 17.5324 10.3099 17.4561C10.1263 17.3799 9.92935 17.341 9.73056 17.3415C9.53178 17.3421 9.33508 17.3821 9.15192 17.4593C8.96875 17.5366 8.80276 17.6494 8.66359 17.7914C8.52443 17.9333 8.41487 18.1015 8.34128 18.2862C8.26768 18.4709 8.23153 18.6683 8.23492 18.8671C8.23831 19.0658 8.28117 19.2619 8.36101 19.444C8.44085 19.626 8.55608 19.7904 8.7 19.9275C10.381 21.5787 12.6438 22.5026 15 22.5C17.3562 22.5026 19.619 21.5787 21.3 19.9275C21.5775 19.6476 21.7336 19.2697 21.7347 18.8756C21.7358 18.4815 21.5817 18.1028 21.3058 17.8214C21.0299 17.54 20.6543 17.3784 20.2603 17.3717C19.8662 17.365 19.4853 17.5136 19.2 17.7855ZM9.75 9C9.15326 9 8.58097 9.23705 8.15901 9.65901C7.73705 10.081 7.5 10.6533 7.5 11.25C7.5 11.8467 7.73705 12.419 8.15901 12.841C8.58097 13.2629 9.15326 13.5 9.75 13.5C10.3467 13.5 10.919 13.2629 11.341 12.841C11.7629 12.419 12 11.8467 12 11.25C12 10.6533 11.7629 10.081 11.341 9.65901C10.919 9.23705 10.3467 9 9.75 9ZM20.25 9C19.6533 9 19.081 9.23705 18.659 9.65901C18.2371 10.081 18 10.6533 18 11.25C18 11.8467 18.2371 12.419 18.659 12.841C19.081 13.2629 19.6533 13.5 20.25 13.5C20.8467 13.5 21.419 13.2629 21.841 12.841C22.2629 12.419 22.5 11.8467 22.5 11.25C22.5 10.6533 22.2629 10.081 21.841 9.65901C21.419 9.23705 20.8467 9 20.25 9Z" fill="#FFFFFC"/>
</svg>
