<svg width="30" height="30" viewBox="0 0 30 30" fill="none" xmlns="http://www.w3.org/2000/svg">
<path d="M15 0C23.2845 0 30 6.7155 30 15C30 23.2845 23.2845 30 15 30C6.7155 30 0 23.2845 0 15C0 6.7155 6.7155 0 15 0ZM15 3C11.8174 3 8.76516 4.26428 6.51472 6.51472C4.26428 8.76516 3 11.8174 3 15C3 18.1826 4.26428 21.2348 6.51472 23.4853C8.76516 25.7357 11.8174 27 15 27C18.1826 27 21.2348 25.7357 23.4853 23.4853C25.7357 21.2348 27 18.1826 27 15C27 11.8174 25.7357 8.76516 23.4853 6.51472C21.2348 4.26428 18.1826 3 15 3ZM19.2 17.7855C19.3399 17.6443 19.5066 17.5324 19.6901 17.4561C19.8737 17.3799 20.0707 17.341 20.2694 17.3415C20.4682 17.3421 20.6649 17.3821 20.8481 17.4593C21.0313 17.5366 21.1972 17.6494 21.3364 17.7914C21.4756 17.9333 21.5851 18.1015 21.6587 18.2862C21.7323 18.4709 21.7685 18.6683 21.7651 18.8671C21.7617 19.0658 21.7188 19.2619 21.639 19.444C21.5592 19.626 21.4439 19.7904 21.3 19.9275C19.619 21.5787 17.3562 22.5026 15 22.5C12.6438 22.5026 10.381 21.5787 8.7 19.9275C8.42254 19.6476 8.26639 19.2697 8.2653 18.8756C8.26422 18.4815 8.41828 18.1028 8.69419 17.8214C8.9701 17.54 9.34568 17.3784 9.73974 17.3717C10.1338 17.365 10.5147 17.5136 10.8 17.7855C11.9202 18.8868 13.4291 19.5027 15 19.5C16.635 19.5 18.1155 18.8475 19.2 17.7855ZM9.75 9C10.3467 9 10.919 9.23705 11.341 9.65901C11.7629 10.081 12 10.6533 12 11.25C12 11.8467 11.7629 12.419 11.341 12.841C10.919 13.2629 10.3467 13.5 9.75 13.5C9.15326 13.5 8.58097 13.2629 8.15901 12.841C7.73705 12.419 7.5 11.8467 7.5 11.25C7.5 10.6533 7.73705 10.081 8.15901 9.65901C8.58097 9.23705 9.15326 9 9.75 9ZM20.25 9C20.8467 9 21.419 9.23705 21.841 9.65901C22.2629 10.081 22.5 10.6533 22.5 11.25C22.5 11.8467 22.2629 12.419 21.841 12.841C21.419 13.2629 20.8467 13.5 20.25 13.5C19.6533 13.5 19.081 13.2629 18.659 12.841C18.2371 12.419 18 11.8467 18 11.25C18 10.6533 18.2371 10.081 18.659 9.65901C19.081 9.23705 19.6533 9 20.25 9Z" fill="#FFFFFC"/>
</svg>
