<svg width="30" height="30" viewBox="0 0 30 30" fill="none" xmlns="http://www.w3.org/2000/svg">
<path d="M30 15C30 23.2843 23.2843 30 15 30C6.71573 30 0 23.2843 0 15C0 6.71573 6.71573 0 15 0C23.2843 0 30 6.71573 30 15Z" fill="#333333"/>
<path d="M10.3111 14.5674L10.3116 14.5682L10.6446 15.15C10.6447 15.1502 10.6448 15.1504 10.6449 15.1506C10.6991 15.2455 10.7403 15.3177 10.7745 15.3803C10.7813 15.3929 10.7876 15.4044 10.7932 15.4151C10.7876 15.4256 10.7815 15.4369 10.7748 15.4492C10.7406 15.5118 10.6994 15.5839 10.645 15.6789L10.6448 15.6794L10.3113 16.2627L10.3112 16.2629C10.2986 16.2848 10.2862 16.3067 10.2737 16.3285C9.83091 17.1035 9.44861 17.7725 9.23261 18.3002C9.12075 18.5734 9.01693 18.8923 9.00189 19.2231C8.98527 19.5887 9.07835 19.9924 9.38069 20.3299L9.38199 20.3313C9.68524 20.6685 10.077 20.8043 10.4423 20.8268C10.773 20.8472 11.1011 20.778 11.3849 20.6959C11.9336 20.5372 12.641 20.2277 13.4603 19.8692L13.5257 19.8406L13.5258 19.8406L18.3364 17.7357C18.3581 17.7262 18.3798 17.7167 18.4014 17.7073C19.0328 17.4313 19.6046 17.1813 20.0105 16.9298C20.4059 16.6848 21 16.2244 21 15.4152C21 14.606 20.4059 14.1456 20.0105 13.9007C19.6046 13.6491 19.0328 13.3992 18.4014 13.1231C18.3799 13.1137 18.3583 13.1043 18.3366 13.0948C18.3365 13.0948 18.3365 13.0947 18.3364 13.0947L13.5258 10.9899L13.5257 10.9898C13.5038 10.9803 13.482 10.9707 13.4603 10.9612C12.641 10.6028 11.9336 10.2933 11.3849 10.1345C11.1011 10.0524 10.773 9.98323 10.4423 10.0036C10.077 10.0262 9.68524 10.162 9.38199 10.4991L9.38131 10.4999C9.0784 10.8373 8.98526 11.2413 9.00189 11.6069C9.01694 11.9377 9.12078 12.2565 9.23261 12.5297C9.44845 13.0569 9.83039 13.7257 10.2729 14.5004C10.2856 14.5226 10.2983 14.545 10.3111 14.5674Z" stroke="#FFFFFC" stroke-width="2"/>
</svg>
