<svg width="29" height="28" viewBox="0 0 29 28" fill="none" xmlns="http://www.w3.org/2000/svg">
<path d="M27.1897 12.902L27.1894 12.9017L15.8315 1.55209C15.8313 1.55185 15.8311 1.55161 15.8308 1.55137C15.8307 1.55129 15.8307 1.55122 15.8306 1.55114C15.6561 1.37658 15.449 1.23806 15.221 1.1435C14.9926 1.04876 14.7478 1 14.5005 1C14.2533 1 14.0084 1.04876 13.78 1.1435C13.5519 1.23811 13.3447 1.37671 13.1702 1.55139C13.17 1.55162 13.1697 1.55186 13.1695 1.55209L1.81159 12.9017L1.81134 12.902C1.29407 13.4192 1 14.1226 1 14.8583C1 16.384 2.23917 17.6232 3.76491 17.6232H3.96174V24.7225C3.96174 25.7629 4.8038 26.6049 5.84419 26.6049H12.7356H13.7356V25.6049V20.4278H14.8242V25.6049V26.6049H15.8242H23.1568C24.1972 26.6049 25.0393 25.7629 25.0393 24.7225V17.6232H25.2361C25.9677 17.6232 26.6733 17.3347 27.1942 16.8101C28.2694 15.7302 28.2693 13.9816 27.1897 12.902Z" stroke="#FFFFFC" stroke-width="2"/>
</svg>
