<svg width="20" height="20" viewBox="0 0 20 20" fill="none" xmlns="http://www.w3.org/2000/svg">
<path d="M10 1.6129C14.6352 1.6129 18.3871 5.36407 18.3871 10C18.3871 14.6352 14.6359 18.3871 10 18.3871C5.3648 18.3871 1.6129 14.6359 1.6129 10C1.6129 5.3648 5.36407 1.6129 10 1.6129ZM10 0C4.47714 0 0 4.47714 0 10C0 15.5229 4.47714 20 10 20C15.5229 20 20 15.5229 20 10C20 4.47714 15.5229 0 10 0ZM10 2.25806C5.72423 2.25806 2.25806 5.72423 2.25806 10C2.25806 14.2758 5.72423 17.7419 10 17.7419C14.2758 17.7419 17.7419 14.2758 17.7419 10C17.7419 5.72423 14.2758 2.25806 10 2.25806ZM10 4.03226C10.8017 4.03226 11.4516 4.68218 11.4516 5.48387C11.4516 6.28556 10.8017 6.93548 10 6.93548C9.19831 6.93548 8.54839 6.28556 8.54839 5.48387C8.54839 4.68218 9.19831 4.03226 10 4.03226ZM14.7476 7.9848C13.5899 8.25814 12.5093 8.49883 11.4355 8.62218C11.4698 12.6957 11.9317 13.584 12.4451 14.8972C12.5909 15.2706 12.4065 15.6915 12.0331 15.8373C11.6597 15.9832 11.2388 15.7987 11.0929 15.4254C10.7419 14.5258 10.404 13.7868 10.1953 12.2581H9.80476C9.59641 13.7843 9.25903 14.5245 8.9071 15.4254C8.76133 15.7985 8.34056 15.9833 7.96698 15.8373C7.59359 15.6915 7.40915 15.2706 7.555 14.8972C8.06762 13.5851 8.5302 12.698 8.56456 8.62218C7.49081 8.49887 6.4102 8.25819 5.25242 7.9848C4.90564 7.9029 4.69089 7.55544 4.77278 7.20863C4.85468 6.86181 5.2021 6.6471 5.54895 6.72899C9.44758 7.64952 10.5604 7.64766 14.4512 6.72899C14.7979 6.64714 15.1454 6.86181 15.2273 7.20863C15.3092 7.55544 15.0944 7.90294 14.7476 7.9848Z" fill="#F94E9B"/>
</svg>
