<svg width="30" height="30" viewBox="0 0 30 30" fill="none" xmlns="http://www.w3.org/2000/svg">
<path d="M30 15C30 23.2843 23.2843 30 15 30C6.71573 30 0 23.2843 0 15C0 6.71573 6.71573 0 15 0C23.2843 0 30 6.71573 30 15Z" fill="#F94E9B"/>
<path d="M8.45363 10.0264L19.6282 21.201C19.9924 21.5651 20.6192 21.5288 21.0282 21.1197L21.1062 21.0417C21.5153 20.6327 21.5516 20.0059 21.1875 19.6417L10.0129 8.46712C9.64873 8.10296 9.02192 8.13935 8.61287 8.5484L8.53491 8.62637C8.12586 9.03541 8.08947 9.66222 8.45363 10.0264Z" fill="#FFFFFC"/>
<path d="M19.6187 8.47431L8.46133 19.6317C8.09773 19.9953 8.13509 20.6222 8.54477 21.0318L8.62285 21.1099C9.03253 21.5196 9.6594 21.557 10.023 21.1934L21.1804 10.036C21.544 9.67237 21.5066 9.04551 21.0969 8.63583L21.0189 8.55774C20.6092 8.14806 19.9823 8.11071 19.6187 8.47431Z" fill="#FFFFFC"/>
</svg>
