<svg width="30" height="30" viewBox="0 0 30 30" fill="none" xmlns="http://www.w3.org/2000/svg">
<path d="M30 15C30 23.2843 23.2843 30 15 30C6.71573 30 0 23.2843 0 15C0 6.71573 6.71573 0 15 0C23.2843 0 30 6.71573 30 15Z" fill="#F94E9B"/>
<path d="M13.7178 6.93221V22.7355C13.7178 23.2505 14.1867 23.668 14.7652 23.668H14.8755C15.4539 23.668 15.9229 23.2505 15.9229 22.7355V6.93221C15.9229 6.41721 15.4539 5.99972 14.8755 5.99972H14.7652C14.1867 5.99972 13.7178 6.41721 13.7178 6.93221Z" fill="#FFFFFC"/>
<path d="M22.71 13.7305H6.93105C6.41685 13.7305 6 14.2001 6 14.7795V14.8899C6 15.4693 6.41685 15.939 6.93105 15.939H22.71C23.2242 15.939 23.641 15.4693 23.641 14.8899V14.7795C23.641 14.2001 23.2242 13.7305 22.71 13.7305Z" fill="#FFFFFC"/>
</svg>
