<svg width="20" height="14" viewBox="0 0 20 14" fill="none" xmlns="http://www.w3.org/2000/svg">
<path d="M18.3333 13.3333H1.66667C0.746181 13.3333 0 12.5872 0 11.6667V1.66667C0 0.746181 0.746181 0 1.66667 0H18.3333C19.2538 0 20 0.746181 20 1.66667V11.6667C20 12.5872 19.2538 13.3333 18.3333 13.3333ZM4.44444 4.02778V2.63889C4.44444 2.40878 4.25788 2.22222 4.02778 2.22222H2.63889C2.40878 2.22222 2.22222 2.40878 2.22222 2.63889V4.02778C2.22222 4.25788 2.40878 4.44444 2.63889 4.44444H4.02778C4.25788 4.44444 4.44444 4.25788 4.44444 4.02778ZM7.77778 4.02778V2.63889C7.77778 2.40878 7.59122 2.22222 7.36111 2.22222H5.97222C5.74212 2.22222 5.55556 2.40878 5.55556 2.63889V4.02778C5.55556 4.25788 5.74212 4.44444 5.97222 4.44444H7.36111C7.59122 4.44444 7.77778 4.25788 7.77778 4.02778ZM11.1111 4.02778V2.63889C11.1111 2.40878 10.9245 2.22222 10.6944 2.22222H9.30556C9.07545 2.22222 8.88889 2.40878 8.88889 2.63889V4.02778C8.88889 4.25788 9.07545 4.44444 9.30556 4.44444H10.6944C10.9245 4.44444 11.1111 4.25788 11.1111 4.02778ZM14.4444 4.02778V2.63889C14.4444 2.40878 14.2579 2.22222 14.0278 2.22222H12.6389C12.4088 2.22222 12.2222 2.40878 12.2222 2.63889V4.02778C12.2222 4.25788 12.4088 4.44444 12.6389 4.44444H14.0278C14.2579 4.44444 14.4444 4.25788 14.4444 4.02778ZM17.7778 4.02778V2.63889C17.7778 2.40878 17.5912 2.22222 17.3611 2.22222H15.9722C15.7421 2.22222 15.5556 2.40878 15.5556 2.63889V4.02778C15.5556 4.25788 15.7421 4.44444 15.9722 4.44444H17.3611C17.5912 4.44444 17.7778 4.25788 17.7778 4.02778ZM6.11111 7.36111V5.97222C6.11111 5.74212 5.92455 5.55556 5.69444 5.55556H4.30556C4.07545 5.55556 3.88889 5.74212 3.88889 5.97222V7.36111C3.88889 7.59121 4.07545 7.77778 4.30556 7.77778H5.69444C5.92455 7.77778 6.11111 7.59121 6.11111 7.36111ZM9.44444 7.36111V5.97222C9.44444 5.74212 9.25788 5.55556 9.02778 5.55556H7.63889C7.40879 5.55556 7.22222 5.74212 7.22222 5.97222V7.36111C7.22222 7.59121 7.40879 7.77778 7.63889 7.77778H9.02778C9.25788 7.77778 9.44444 7.59121 9.44444 7.36111ZM12.7778 7.36111V5.97222C12.7778 5.74212 12.5912 5.55556 12.3611 5.55556H10.9722C10.7421 5.55556 10.5556 5.74212 10.5556 5.97222V7.36111C10.5556 7.59121 10.7421 7.77778 10.9722 7.77778H12.3611C12.5912 7.77778 12.7778 7.59121 12.7778 7.36111ZM16.1111 7.36111V5.97222C16.1111 5.74212 15.9245 5.55556 15.6944 5.55556H14.3056C14.0755 5.55556 13.8889 5.74212 13.8889 5.97222V7.36111C13.8889 7.59121 14.0755 7.77778 14.3056 7.77778H15.6944C15.9245 7.77778 16.1111 7.59121 16.1111 7.36111ZM4.44444 10.6944V9.30556C4.44444 9.07545 4.25788 8.88889 4.02778 8.88889H2.63889C2.40878 8.88889 2.22222 9.07545 2.22222 9.30556V10.6944C2.22222 10.9245 2.40878 11.1111 2.63889 11.1111H4.02778C4.25788 11.1111 4.44444 10.9245 4.44444 10.6944ZM14.4444 10.6944V9.30556C14.4444 9.07545 14.2579 8.88889 14.0278 8.88889H5.97222C5.74212 8.88889 5.55556 9.07545 5.55556 9.30556V10.6944C5.55556 10.9245 5.74212 11.1111 5.97222 11.1111H14.0278C14.2579 11.1111 14.4444 10.9245 14.4444 10.6944ZM17.7778 10.6944V9.30556C17.7778 9.07545 17.5912 8.88889 17.3611 8.88889H15.9722C15.7421 8.88889 15.5556 9.07545 15.5556 9.30556V10.6944C15.5556 10.9245 15.7421 11.1111 15.9722 11.1111H17.3611C17.5912 11.1111 17.7778 10.9245 17.7778 10.6944Z" fill="#687FE9"/>
</svg>
