<svg width="15" height="20" viewBox="0 0 15 20" fill="none" xmlns="http://www.w3.org/2000/svg">
<path d="M4.6875 2.8125C4.6875 1.25918 5.94668 0 7.5 0C9.05332 0 10.3125 1.25918 10.3125 2.8125C10.3125 4.36578 9.05332 5.625 7.5 5.625C5.94668 5.625 4.6875 4.36578 4.6875 2.8125ZM14.6339 2.86613C14.1458 2.37797 13.3543 2.37797 12.8661 2.86613L9.48223 6.25H5.51773L2.13386 2.86613C1.64573 2.37797 0.854249 2.37797 0.366123 2.86613C-0.122041 3.3543 -0.122041 4.14574 0.366123 4.63391L4.0625 8.33023V18.75C4.0625 19.4404 4.62214 20 5.3125 20H5.9375C6.62785 20 7.1875 19.4404 7.1875 18.75V14.375H7.8125V18.75C7.8125 19.4404 8.37215 20 9.0625 20H9.6875C10.3779 20 10.9375 19.4404 10.9375 18.75V8.33023L14.6339 4.63387C15.122 4.1457 15.122 3.3543 14.6339 2.86613Z" fill="#687FE9"/>
</svg>
