<svg width="15" height="17" viewBox="0 0 15 17" fill="none" xmlns="http://www.w3.org/2000/svg">
<path d="M3.125 4.375C3.125 5.53532 3.58594 6.64812 4.40641 7.46859C5.22688 8.28906 6.33968 8.75 7.5 8.75C8.66032 8.75 9.77312 8.28906 10.5936 7.46859C11.4141 6.64812 11.875 5.53532 11.875 4.375C11.875 3.21468 11.4141 2.10188 10.5936 1.28141C9.77312 0.460936 8.66032 0 7.5 0C6.33968 0 5.22688 0.460936 4.40641 1.28141C3.58594 2.10188 3.125 3.21468 3.125 4.375ZM13.75 16.25H0.625C0.45924 16.25 0.300269 16.1842 0.183058 16.0669C0.0658481 15.9497 0 15.7908 0 15.625V13.75C0 12.9212 0.32924 12.1263 0.915291 11.5403C1.50134 10.9542 2.2962 10.625 3.125 10.625H11.875C12.7038 10.625 13.4987 10.9542 14.0847 11.5403C14.6708 12.1263 15 12.9212 15 13.75V15.625C15 15.7908 14.9342 15.9497 14.8169 16.0669C14.6997 16.1842 14.5408 16.25 14.375 16.25H13.75Z" fill="#687FE9"/>
</svg>
