<svg width="20" height="21" viewBox="0 0 20 21" fill="none" xmlns="http://www.w3.org/2000/svg">
<path fill-rule="evenodd" clip-rule="evenodd" d="M19.9989 4.33301H0V7.66616C0.589337 7.66616 1.15454 7.90027 1.57126 8.31699C1.98799 8.73372 2.2221 9.29892 2.2221 9.88826V14.3325C2.2221 17.4745 2.2221 19.0466 3.19871 20.0221C4.17421 20.9988 5.74635 20.9988 8.8884 20.9988H11.1105C14.2537 20.9988 15.8247 20.9988 16.8002 20.0221C17.7779 19.0466 17.7779 17.4745 17.7779 14.3325V9.88826C17.7779 9.29892 18.012 8.73372 18.4287 8.31699C18.8455 7.90027 19.4107 7.66616 20 7.66616L19.9989 4.33301ZM8.33287 9.88826C8.33287 9.59359 8.21581 9.31099 8.00745 9.10263C7.79909 8.89426 7.51649 8.77721 7.22182 8.77721C6.92715 8.77721 6.64455 8.89426 6.43619 9.10263C6.22783 9.31099 6.11077 9.59359 6.11077 9.88826V15.4435C6.11077 15.7382 6.22783 16.0208 6.43619 16.2291C6.64455 16.4375 6.92715 16.5546 7.22182 16.5546C7.51649 16.5546 7.79909 16.4375 8.00745 16.2291C8.21581 16.0208 8.33287 15.7382 8.33287 15.4435V9.88826ZM13.8881 9.88826C13.8881 9.59359 13.7711 9.31099 13.5627 9.10263C13.3543 8.89426 13.0717 8.77721 12.7771 8.77721C12.4824 8.77721 12.1998 8.89426 11.9914 9.10263C11.7831 9.31099 11.666 9.59359 11.666 9.88826V15.4435C11.666 15.7382 11.7831 16.0208 11.9914 16.2291C12.1998 16.4375 12.4824 16.5546 12.7771 16.5546C13.0717 16.5546 13.3543 16.4375 13.5627 16.2291C13.7711 16.0208 13.8881 15.7382 13.8881 15.4435V9.88826Z" fill="#FF2C2C"/>
<path d="M7.85303 1.41128C7.97969 1.2935 8.25856 1.18907 8.64743 1.11463C9.0937 1.03527 9.54631 0.996964 9.99958 1.00019C10.4884 1.00019 10.964 1.04019 11.3517 1.11463C11.7406 1.18907 12.0184 1.2935 12.1461 1.41239" fill="#FF2C2C"/>
<path d="M7.85303 1.41128C7.97969 1.2935 8.25856 1.18907 8.64743 1.11463C9.0937 1.03527 9.54631 0.996964 9.99958 1.00019C10.4884 1.00019 10.964 1.04019 11.3517 1.11463C11.7406 1.18907 12.0184 1.2935 12.1461 1.41239" stroke="#FF2C2C" stroke-width="1.66667" stroke-linecap="round"/>
</svg>
