<svg width="30" height="30" viewBox="0 0 30 30" fill="none" xmlns="http://www.w3.org/2000/svg">
<path d="M30 15C30 23.2843 23.2843 30 15 30C6.71573 30 0 23.2843 0 15C0 6.71573 6.71573 0 15 0C23.2843 0 30 6.71573 30 15Z" fill="#333333"/>
<path d="M10 20C10 20.3466 10.1795 20.6684 10.4743 20.8507C10.7691 21.0329 11.1372 21.0494 11.4472 20.8944L14.75 19.243L18.0528 20.8944C18.3628 21.0494 18.7309 21.0329 19.0257 20.8507C19.3205 20.6684 19.5 20.3466 19.5 20V10.625C19.5 10.194 19.3288 9.7807 19.024 9.47595C18.7193 9.1712 18.306 9 17.875 9H11.625C11.194 9 10.7807 9.17121 10.476 9.47595C10.1712 9.7807 10 10.194 10 10.625V20Z" stroke="#FFFFFC" stroke-width="2" stroke-linejoin="round"/>
</svg>
