<svg width="29" height="29" viewBox="0 0 29 29" fill="none" xmlns="http://www.w3.org/2000/svg">
<path d="M19.7999 4.38335L19.9851 3.22536H18.8124H8.75122C6.42748 3.22536 4.45959 3.9194 3.07243 5.31386C1.68603 6.70757 1 8.68007 1 11.0003V20.249C1 22.5645 1.68652 24.5316 3.07381 25.9208C4.46133 27.3102 6.42886 28.0003 8.75122 28.0003H17.9874C20.3092 28.0003 22.2764 27.3101 23.6638 25.9207C25.0509 24.5316 25.7374 22.5645 25.7374 20.249V10.1628V8.99012L24.5794 9.17539C24.2888 9.22188 24.0483 9.24908 23.8124 9.24908C21.566 9.24908 19.7374 7.42434 19.7374 5.16286C19.7374 4.90394 19.7581 4.64427 19.7999 4.38335ZM18.9101 12.7713L18.9082 12.7737C18.9079 12.7724 18.9076 12.7709 18.9074 12.7692C18.9067 12.7648 18.9064 12.7589 18.9071 12.7519C18.9076 12.7479 18.9083 12.7442 18.9091 12.741C18.9114 12.7325 18.9146 12.7269 18.9162 12.7246L18.9319 12.7432L18.9247 12.7524L18.9101 12.7713ZM28 5.01249C28 2.79771 26.2023 1 23.9875 1C21.7727 1 19.975 2.79771 19.975 5.01249C19.975 7.22726 21.7727 9.02497 23.9875 9.02497C26.2023 9.02497 28 7.22726 28 5.01249Z" stroke="#FFFFFC" stroke-width="2"/>
</svg>
