<svg width="25" height="25" viewBox="0 0 25 25" fill="none" xmlns="http://www.w3.org/2000/svg">
<path d="M16.8124 2.22536C16.7624 2.53786 16.7374 2.85036 16.7374 3.16286C16.7374 5.97535 19.0124 8.24908 21.8124 8.24908C22.1249 8.24908 22.4249 8.21284 22.7374 8.16284V18.249C22.7374 22.4878 20.2374 25.0003 15.9874 25.0003H6.75122C2.49999 25.0003 0 22.4878 0 18.249V9.00033C0 4.75035 2.49999 2.22536 6.75122 2.22536H16.8124ZM17.0637 9.82533C16.7249 9.78783 16.3887 9.93783 16.1874 10.2128L13.1637 14.1253L9.69995 11.4003C9.48745 11.2378 9.23745 11.1741 8.98746 11.2003C8.73871 11.2378 8.51371 11.3741 8.36246 11.5741L4.66373 16.3878L4.58748 16.5003C4.37498 16.899 4.47498 17.4115 4.84998 17.6878C5.02498 17.8003 5.21247 17.8753 5.42497 17.8753C5.71372 17.8878 5.98747 17.7365 6.16247 17.5003L9.29995 13.4616L12.8624 16.1378L12.9749 16.2115C13.3749 16.424 13.8749 16.3253 14.1624 15.949L17.7749 11.2878L17.7249 11.3128C17.9249 11.0378 17.9624 10.6878 17.8249 10.3753C17.6887 10.0628 17.3874 9.85033 17.0637 9.82533ZM21.9875 0C23.65 0 25 1.34999 25 3.01249C25 4.67498 23.65 6.02497 21.9875 6.02497C20.325 6.02497 18.975 4.67498 18.975 3.01249C18.975 1.34999 20.325 0 21.9875 0Z" fill="#F5F5F5"/>
</svg>
