<svg width="20" height="20" viewBox="0 0 20 20" fill="none" xmlns="http://www.w3.org/2000/svg">
<path d="M19.2857 0H0.714286C0.524845 0 0.343164 0.0752549 0.209209 0.209209C0.0752549 0.343164 0 0.524845 0 0.714286L0 4.28571C0 4.47515 0.0752549 4.65684 0.209209 4.79079C0.343164 4.92475 0.524845 5 0.714286 5H2.14286C2.3323 5 2.51398 4.92475 2.64793 4.79079C2.78189 4.65684 2.85714 4.47515 2.85714 4.28571V3.57143H8.21429V8.57143H7.14286C6.95342 8.57143 6.77174 8.64668 6.63778 8.78064C6.50383 8.91459 6.42857 9.09627 6.42857 9.28571V10.7143C6.42857 10.9037 6.50383 11.0854 6.63778 11.2194C6.77174 11.3533 6.95342 11.4286 7.14286 11.4286H12.8571C13.0466 11.4286 13.2283 11.3533 13.3622 11.2194C13.4962 11.0854 13.5714 10.9037 13.5714 10.7143V9.28571C13.5714 9.09627 13.4962 8.91459 13.3622 8.78064C13.2283 8.64668 13.0466 8.57143 12.8571 8.57143H11.7857V3.57143H17.1429V4.28571C17.1429 4.47515 17.2181 4.65684 17.3521 4.79079C17.486 4.92475 17.6677 5 17.8571 5H19.2857C19.4752 5 19.6568 4.92475 19.7908 4.79079C19.9247 4.65684 20 4.47515 20 4.28571V0.714286C20 0.524845 19.9247 0.343164 19.7908 0.209209C19.6568 0.0752549 19.4752 0 19.2857 0ZM16.2192 11.6379C15.8036 11.2214 15 11.4446 15 12.1429V14.2857H5V12.1429C5 11.504 4.22723 11.1911 3.7808 11.6379L0.209375 15.2094C0.0755217 15.3433 0.000331062 15.5249 0.000331062 15.7143C0.000331062 15.9036 0.0755217 16.0853 0.209375 16.2192L3.7808 19.7906C4.19643 20.2071 5 19.9839 5 19.2857V17.1429H15V19.2857C15 19.9246 15.7728 20.2379 16.2192 19.7906L19.7906 16.2192C19.9245 16.0853 19.9997 15.9036 19.9997 15.7143C19.9997 15.5249 19.9245 15.3433 19.7906 15.2094L16.2192 11.6379Z" fill="#910BEA"/>
</svg>
