<svg width="20" height="19" viewBox="0 0 20 19" fill="none" xmlns="http://www.w3.org/2000/svg">
<path d="M10.6671 0.666439C10.667 0.570341 10.6462 0.475386 10.6061 0.388082C10.5659 0.300777 10.5074 0.223187 10.4344 0.160626C10.3615 0.0980653 10.2759 0.0520135 10.1835 0.0256262C10.091 -0.000761081 9.99403 -0.00686024 9.89905 0.00774668L0.565355 1.43447C0.407993 1.45867 0.264486 1.53839 0.160791 1.6592C0.0570962 1.78001 6.05811e-05 1.93395 0 2.09316V16.5737C6.05811e-05 16.7329 0.0570962 16.8869 0.160791 17.0077C0.264486 17.1285 0.407993 17.2082 0.565355 17.2324L9.89905 18.6605C9.99403 18.6751 10.091 18.669 10.1835 18.6426C10.2759 18.6162 10.3615 18.5702 10.4344 18.5076C10.5074 18.445 10.5659 18.3674 10.6061 18.2801C10.6462 18.1928 10.667 18.0979 10.6671 18.0018V9.33344H17.5633L16.234 10.4988C16.1088 10.6173 16.0344 10.7796 16.0263 10.9517C16.0182 11.1238 16.0771 11.2923 16.1905 11.422C16.304 11.5517 16.4633 11.6324 16.6349 11.6472C16.8066 11.662 16.9773 11.6098 17.1113 11.5015L19.7728 9.1681C19.8442 9.10553 19.9014 9.02843 19.9405 8.94197C19.9797 8.85551 20 8.76168 20 8.66675C20 8.57182 19.9797 8.47799 19.9405 8.39153C19.9014 8.30507 19.8442 8.22797 19.7728 8.1654L17.1113 5.83197C16.9784 5.71563 16.8046 5.65687 16.6283 5.66862C16.452 5.68037 16.2876 5.76167 16.1713 5.89464C16.0549 6.02761 15.9962 6.20135 16.0079 6.37764C16.0197 6.55393 16.101 6.71833 16.234 6.83468L17.5633 8.00006H10.6671V0.666439ZM7.33362 11.0002C7.06839 11.0002 6.81403 10.8948 6.62648 10.7073C6.43894 10.5197 6.33358 10.2654 6.33358 10.0001C6.33358 9.73491 6.43894 9.48054 6.62648 9.293C6.81403 9.10546 7.06839 9.00009 7.33362 9.00009C7.59884 9.00009 7.85321 9.10546 8.04075 9.293C8.22829 9.48054 8.33366 9.73491 8.33366 10.0001C8.33366 10.2654 8.22829 10.5197 8.04075 10.7073C7.85321 10.8948 7.59884 11.0002 7.33362 11.0002ZM12.6672 17.3338H12.0005V10.6668H13.3338V16.6671C13.3338 16.8439 13.2636 17.0135 13.1386 17.1385C13.0136 17.2635 12.844 17.3338 12.6672 17.3338ZM12.0005 6.66667V1.33313H12.6672C12.844 1.33313 13.0136 1.40337 13.1386 1.5284C13.2636 1.65343 13.3338 1.82301 13.3338 1.99982V6.66667H12.0005Z" fill="#FFFFFC"/>
</svg>
