<?xml version="1.0" encoding="utf-8"?>
<!-- Generator: Adobe Illustrator 28.2.0, SVG Export Plug-In . SVG Version: 6.00 Build 0)  -->
<svg version="1.1" id="Layer_1" xmlns="http://www.w3.org/2000/svg" xmlns:xlink="http://www.w3.org/1999/xlink" x="0px" y="0px"
	 viewBox="0 0 13 14" style="enable-background:new 0 0 13 14;" xml:space="preserve">
<style type="text/css">
	.st0{fill:#F94E9B;}
</style>
<path class="st0" d="M7.9,7l4.4-4.3c0.3-0.3,0.3-0.9,0-1.3l-0.1-0.1c-0.4-0.4-0.9-0.4-1.3-0.1L6.5,5.6L2.2,1.1
	C1.9,0.8,1.4,0.8,1,1.2L0.9,1.3C0.5,1.6,0.5,2.2,0.8,2.5L5.1,7l-4.4,4.3c-0.3,0.3-0.3,0.9,0,1.3l0.1,0.1C1.1,12.9,1.7,13,2,12.7
	l4.4-4.3l4.3,4.4c0.3,0.3,0.9,0.3,1.3,0l0.1-0.1c0.4-0.4,0.4-0.9,0.1-1.3L7.9,7z"/>
</svg>
