<svg width="1158" height="1082" viewBox="0 0 1158 1082" fill="none" xmlns="http://www.w3.org/2000/svg">
<g clip-path="url(#clip0_105_999)">
<g filter="url(#filter0_d_105_999)">
<g clip-path="url(#clip1_105_999)">
<rect width="430" height="932" rx="20" transform="matrix(-1 0 0 1 680 0)" fill="#FFFFFC"/>
<path d="M645.974 66.0853L657 55.0427L645.974 44" stroke="#FFFFFC" stroke-width="4" stroke-miterlimit="10" stroke-linecap="round" stroke-linejoin="round"/>
<path d="M586.765 62.855C585.741 63.8822 584.523 64.6968 583.183 65.2519C581.843 65.8071 580.406 66.0919 578.955 66.09C572.855 66.09 567.91 61.1449 567.91 55.045C567.91 48.9451 572.855 44 578.955 44C582.005 44 584.766 45.2364 586.765 47.235C587.782 48.2523 590 50.7497 590 50.7497" stroke="#FFFFFC" stroke-width="3" stroke-linecap="round" stroke-linejoin="round"/>
<path d="M590 45.8408V50.7497H585.091" stroke="#FFFFFC" stroke-width="3" stroke-linecap="round" stroke-linejoin="round"/>
<path d="M529.145 62.855C530.169 63.8822 531.387 64.6968 532.727 65.2519C534.067 65.8071 535.504 66.0919 536.955 66.09C543.055 66.09 548 61.1449 548 55.045C548 48.9451 543.055 44 536.955 44C533.905 44 531.144 45.2364 529.145 47.235C528.128 48.2523 525.91 50.7497 525.91 50.7497" stroke="#FFFFFC" stroke-width="3" stroke-linecap="round" stroke-linejoin="round"/>
<path d="M525.91 45.8408V50.7497H530.819" stroke="#FFFFFC" stroke-width="3" stroke-linecap="round" stroke-linejoin="round"/>
<circle cx="15" cy="15" r="13.5" transform="matrix(-1 0 0 1 340 40)" stroke="#FFFFFC" stroke-width="3"/>
<circle cx="5" cy="5" r="5" transform="matrix(-1 0 0 1 330 50)" fill="#FFFFFC"/>
<rect width="80" height="932" transform="matrix(-1 0 0 1 670 0)" fill="#F59E9E" fill-opacity="0.5"/>
<rect width="80" height="932" transform="matrix(-1 0 0 1 560 -1)" fill="#F59E9E" fill-opacity="0.5"/>
<rect width="80" height="932" transform="matrix(-1 0 0 1 450 0)" fill="#F59E9E" fill-opacity="0.5"/>
<rect width="80" height="932" transform="matrix(-1 0 0 1 340 0)" fill="#F59E9E" fill-opacity="0.5"/>
</g>
</g>
<path d="M817.023 369.566H822.863C822.746 371.48 822.219 373.18 821.281 374.664C820.357 376.148 819.061 377.307 817.395 378.141C815.741 378.974 813.749 379.391 811.418 379.391C809.595 379.391 807.961 379.078 806.516 378.453C805.07 377.815 803.833 376.904 802.805 375.719C801.789 374.534 801.014 373.102 800.48 371.422C799.947 369.742 799.68 367.861 799.68 365.777V363.805C799.68 361.721 799.953 359.84 800.5 358.16C801.06 356.467 801.854 355.029 802.883 353.844C803.924 352.659 805.168 351.747 806.613 351.109C808.059 350.471 809.673 350.152 811.457 350.152C813.827 350.152 815.826 350.582 817.453 351.441C819.094 352.301 820.363 353.486 821.262 354.996C822.173 356.507 822.72 358.225 822.902 360.152H817.043C816.978 359.007 816.75 358.036 816.359 357.242C815.969 356.435 815.376 355.829 814.582 355.426C813.801 355.009 812.759 354.801 811.457 354.801C810.48 354.801 809.628 354.983 808.898 355.348C808.169 355.712 807.557 356.266 807.062 357.008C806.568 357.75 806.197 358.688 805.949 359.82C805.715 360.94 805.598 362.255 805.598 363.766V365.777C805.598 367.249 805.708 368.544 805.93 369.664C806.151 370.771 806.49 371.708 806.945 372.477C807.414 373.232 808.013 373.805 808.742 374.195C809.484 374.573 810.376 374.762 811.418 374.762C812.642 374.762 813.651 374.566 814.445 374.176C815.24 373.785 815.845 373.206 816.262 372.438C816.691 371.669 816.945 370.712 817.023 369.566ZM825.461 368.648V368.238C825.461 366.689 825.682 365.263 826.125 363.961C826.568 362.646 827.212 361.507 828.059 360.543C828.905 359.579 829.947 358.831 831.184 358.297C832.421 357.75 833.84 357.477 835.441 357.477C837.043 357.477 838.469 357.75 839.719 358.297C840.969 358.831 842.017 359.579 842.863 360.543C843.723 361.507 844.374 362.646 844.816 363.961C845.259 365.263 845.48 366.689 845.48 368.238V368.648C845.48 370.185 845.259 371.611 844.816 372.926C844.374 374.228 843.723 375.367 842.863 376.344C842.017 377.307 840.975 378.056 839.738 378.59C838.501 379.124 837.082 379.391 835.48 379.391C833.879 379.391 832.453 379.124 831.203 378.59C829.966 378.056 828.918 377.307 828.059 376.344C827.212 375.367 826.568 374.228 826.125 372.926C825.682 371.611 825.461 370.185 825.461 368.648ZM831.086 368.238V368.648C831.086 369.534 831.164 370.361 831.32 371.129C831.477 371.897 831.724 372.574 832.062 373.16C832.414 373.733 832.87 374.182 833.43 374.508C833.99 374.833 834.673 374.996 835.48 374.996C836.262 374.996 836.932 374.833 837.492 374.508C838.052 374.182 838.501 373.733 838.84 373.16C839.178 372.574 839.426 371.897 839.582 371.129C839.751 370.361 839.836 369.534 839.836 368.648V368.238C839.836 367.379 839.751 366.572 839.582 365.816C839.426 365.048 839.172 364.371 838.82 363.785C838.482 363.186 838.033 362.717 837.473 362.379C836.913 362.04 836.236 361.871 835.441 361.871C834.647 361.871 833.97 362.04 833.41 362.379C832.863 362.717 832.414 363.186 832.062 363.785C831.724 364.371 831.477 365.048 831.32 365.816C831.164 366.572 831.086 367.379 831.086 368.238ZM854.875 349V379H849.23V349H854.875ZM872.023 373.941V357.867H877.648V379H872.355L872.023 373.941ZM872.648 369.605L874.309 369.566C874.309 370.973 874.146 372.281 873.82 373.492C873.495 374.69 873.007 375.732 872.355 376.617C871.704 377.49 870.884 378.173 869.895 378.668C868.905 379.15 867.74 379.391 866.398 379.391C865.37 379.391 864.419 379.247 863.547 378.961C862.688 378.661 861.945 378.199 861.32 377.574C860.708 376.936 860.227 376.122 859.875 375.133C859.536 374.13 859.367 372.926 859.367 371.52V357.867H864.992V371.559C864.992 372.184 865.064 372.711 865.207 373.141C865.363 373.57 865.578 373.922 865.852 374.195C866.125 374.469 866.444 374.664 866.809 374.781C867.186 374.898 867.603 374.957 868.059 374.957C869.217 374.957 870.129 374.723 870.793 374.254C871.47 373.785 871.945 373.147 872.219 372.34C872.505 371.52 872.648 370.608 872.648 369.605ZM887.57 362.242V379H881.926V357.867H887.219L887.57 362.242ZM886.789 367.691H885.227C885.227 366.22 885.402 364.866 885.754 363.629C886.118 362.379 886.646 361.298 887.336 360.387C888.039 359.462 888.905 358.746 889.934 358.238C890.962 357.73 892.154 357.477 893.508 357.477C894.445 357.477 895.305 357.62 896.086 357.906C896.867 358.18 897.538 358.616 898.098 359.215C898.671 359.801 899.113 360.569 899.426 361.52C899.738 362.457 899.895 363.583 899.895 364.898V379H894.27V365.523C894.27 364.56 894.139 363.818 893.879 363.297C893.618 362.776 893.247 362.411 892.766 362.203C892.297 361.995 891.73 361.891 891.066 361.891C890.337 361.891 889.699 362.04 889.152 362.34C888.618 362.639 888.176 363.056 887.824 363.59C887.473 364.111 887.212 364.723 887.043 365.426C886.874 366.129 886.789 366.884 886.789 367.691ZM899.367 367.047L897.355 367.301C897.355 365.921 897.525 364.638 897.863 363.453C898.215 362.268 898.729 361.227 899.406 360.328C900.096 359.43 900.949 358.733 901.965 358.238C902.98 357.73 904.152 357.477 905.48 357.477C906.496 357.477 907.421 357.626 908.254 357.926C909.087 358.212 909.797 358.674 910.383 359.312C910.982 359.938 911.438 360.758 911.75 361.773C912.076 362.789 912.238 364.033 912.238 365.504V379H906.594V365.504C906.594 364.527 906.464 363.785 906.203 363.277C905.956 362.757 905.591 362.398 905.109 362.203C904.641 361.995 904.081 361.891 903.43 361.891C902.753 361.891 902.16 362.027 901.652 362.301C901.145 362.561 900.721 362.926 900.383 363.395C900.044 363.863 899.79 364.41 899.621 365.035C899.452 365.647 899.367 366.318 899.367 367.047ZM922.102 362.379V379H916.477V357.867H921.75L922.102 362.379ZM921.281 367.691H919.758C919.758 366.129 919.96 364.723 920.363 363.473C920.767 362.21 921.333 361.135 922.062 360.25C922.792 359.352 923.658 358.668 924.66 358.199C925.676 357.717 926.809 357.477 928.059 357.477C929.048 357.477 929.953 357.62 930.773 357.906C931.594 358.193 932.297 358.648 932.883 359.273C933.482 359.898 933.938 360.725 934.25 361.754C934.576 362.783 934.738 364.039 934.738 365.523V379H929.074V365.504C929.074 364.566 928.944 363.837 928.684 363.316C928.423 362.796 928.039 362.431 927.531 362.223C927.036 362.001 926.424 361.891 925.695 361.891C924.94 361.891 924.283 362.04 923.723 362.34C923.176 362.639 922.72 363.056 922.355 363.59C922.004 364.111 921.737 364.723 921.555 365.426C921.372 366.129 921.281 366.884 921.281 367.691ZM950.441 373.16C950.441 372.757 950.324 372.392 950.09 372.066C949.855 371.741 949.419 371.441 948.781 371.168C948.156 370.882 947.251 370.621 946.066 370.387C944.999 370.152 944.003 369.859 943.078 369.508C942.167 369.143 941.372 368.707 940.695 368.199C940.031 367.691 939.51 367.092 939.133 366.402C938.755 365.699 938.566 364.898 938.566 364C938.566 363.115 938.755 362.281 939.133 361.5C939.523 360.719 940.077 360.029 940.793 359.43C941.522 358.818 942.408 358.342 943.449 358.004C944.504 357.652 945.689 357.477 947.004 357.477C948.84 357.477 950.415 357.77 951.73 358.355C953.059 358.941 954.074 359.749 954.777 360.777C955.493 361.793 955.852 362.952 955.852 364.254H950.227C950.227 363.707 950.109 363.219 949.875 362.789C949.654 362.346 949.302 362.001 948.82 361.754C948.352 361.493 947.74 361.363 946.984 361.363C946.359 361.363 945.819 361.474 945.363 361.695C944.908 361.904 944.556 362.19 944.309 362.555C944.074 362.906 943.957 363.297 943.957 363.727C943.957 364.052 944.022 364.345 944.152 364.605C944.296 364.853 944.523 365.081 944.836 365.289C945.148 365.497 945.552 365.693 946.047 365.875C946.555 366.044 947.18 366.201 947.922 366.344C949.445 366.656 950.806 367.066 952.004 367.574C953.202 368.069 954.152 368.746 954.855 369.605C955.559 370.452 955.91 371.565 955.91 372.945C955.91 373.883 955.702 374.742 955.285 375.523C954.868 376.305 954.27 376.988 953.488 377.574C952.707 378.147 951.77 378.596 950.676 378.922C949.595 379.234 948.378 379.391 947.023 379.391C945.057 379.391 943.391 379.039 942.023 378.336C940.669 377.633 939.641 376.741 938.938 375.66C938.247 374.566 937.902 373.447 937.902 372.301H943.234C943.26 373.069 943.456 373.688 943.82 374.156C944.198 374.625 944.673 374.964 945.246 375.172C945.832 375.38 946.464 375.484 947.141 375.484C947.87 375.484 948.475 375.387 948.957 375.191C949.439 374.983 949.803 374.71 950.051 374.371C950.311 374.02 950.441 373.616 950.441 373.16ZM959.777 376.285C959.777 375.452 960.064 374.755 960.637 374.195C961.223 373.635 961.997 373.355 962.961 373.355C963.924 373.355 964.693 373.635 965.266 374.195C965.852 374.755 966.145 375.452 966.145 376.285C966.145 377.118 965.852 377.815 965.266 378.375C964.693 378.935 963.924 379.215 962.961 379.215C961.997 379.215 961.223 378.935 960.637 378.375C960.064 377.815 959.777 377.118 959.777 376.285ZM959.777 360.172C959.777 359.339 960.064 358.642 960.637 358.082C961.223 357.522 961.997 357.242 962.961 357.242C963.924 357.242 964.693 357.522 965.266 358.082C965.852 358.642 966.145 359.339 966.145 360.172C966.145 361.005 965.852 361.702 965.266 362.262C964.693 362.822 963.924 363.102 962.961 363.102C961.997 363.102 961.223 362.822 960.637 362.262C960.064 361.702 959.777 361.005 959.777 360.172ZM1000.5 368.375V372.789H980.012L979.738 369.371L991.594 350.562H996.066L991.223 358.668L985.324 368.375H1000.5ZM997.277 350.562V379H991.652V350.562H997.277Z" fill="#FFFFFC"/>
<path d="M803.215 74.5625H808.176L815.48 95.4414L822.785 74.5625H827.746L817.473 103H813.488L803.215 74.5625ZM800.539 74.5625H805.48L806.379 94.9141V103H800.539V74.5625ZM825.48 74.5625H830.441V103H824.582V94.9141L825.48 74.5625ZM846.633 98.2344V88.8203C846.633 88.1432 846.522 87.5638 846.301 87.082C846.079 86.5872 845.734 86.2031 845.266 85.9297C844.81 85.6562 844.217 85.5195 843.488 85.5195C842.863 85.5195 842.323 85.6302 841.867 85.8516C841.411 86.0599 841.06 86.3659 840.812 86.7695C840.565 87.1602 840.441 87.6224 840.441 88.1562H834.816C834.816 87.2578 835.025 86.4049 835.441 85.5977C835.858 84.7904 836.464 84.0807 837.258 83.4688C838.052 82.8438 838.996 82.3555 840.09 82.0039C841.197 81.6523 842.434 81.4766 843.801 81.4766C845.441 81.4766 846.9 81.75 848.176 82.2969C849.452 82.8438 850.454 83.6641 851.184 84.7578C851.926 85.8516 852.297 87.2188 852.297 88.8594V97.9023C852.297 99.0612 852.368 100.012 852.512 100.754C852.655 101.483 852.863 102.121 853.137 102.668V103H847.453C847.18 102.427 846.971 101.711 846.828 100.852C846.698 99.9792 846.633 99.1068 846.633 98.2344ZM847.375 90.1289L847.414 93.3125H844.27C843.527 93.3125 842.883 93.3971 842.336 93.5664C841.789 93.7357 841.34 93.9766 840.988 94.2891C840.637 94.5885 840.376 94.9401 840.207 95.3438C840.051 95.7474 839.973 96.1901 839.973 96.6719C839.973 97.1536 840.083 97.5898 840.305 97.9805C840.526 98.3581 840.845 98.6576 841.262 98.8789C841.678 99.0872 842.167 99.1914 842.727 99.1914C843.573 99.1914 844.309 99.0221 844.934 98.6836C845.559 98.3451 846.04 97.9284 846.379 97.4336C846.73 96.9388 846.913 96.4701 846.926 96.0273L848.41 98.4102C848.202 98.944 847.915 99.4974 847.551 100.07C847.199 100.643 846.75 101.184 846.203 101.691C845.656 102.186 844.999 102.596 844.23 102.922C843.462 103.234 842.551 103.391 841.496 103.391C840.155 103.391 838.938 103.124 837.844 102.59C836.763 102.043 835.904 101.294 835.266 100.344C834.641 99.3802 834.328 98.2865 834.328 97.0625C834.328 95.9557 834.536 94.9727 834.953 94.1133C835.37 93.2539 835.982 92.5312 836.789 91.9453C837.609 91.3464 838.632 90.8971 839.855 90.5977C841.079 90.2852 842.499 90.1289 844.113 90.1289H847.375ZM862.258 86.4766V103H856.633V81.8672H861.926L862.258 86.4766ZM868.625 81.7305L868.527 86.9453C868.254 86.9062 867.922 86.8737 867.531 86.8477C867.154 86.8086 866.809 86.7891 866.496 86.7891C865.702 86.7891 865.012 86.8932 864.426 87.1016C863.853 87.2969 863.371 87.5898 862.98 87.9805C862.603 88.3711 862.316 88.8464 862.121 89.4062C861.939 89.9661 861.835 90.6042 861.809 91.3203L860.676 90.9688C860.676 89.6016 860.812 88.3451 861.086 87.1992C861.359 86.0404 861.757 85.0312 862.277 84.1719C862.811 83.3125 863.462 82.6484 864.23 82.1797C864.999 81.7109 865.878 81.4766 866.867 81.4766C867.18 81.4766 867.499 81.5026 867.824 81.5547C868.15 81.5938 868.417 81.6523 868.625 81.7305ZM884.27 81.8672H889.367V102.297C889.367 104.224 888.938 105.858 888.078 107.199C887.232 108.553 886.047 109.576 884.523 110.266C883 110.969 881.229 111.32 879.211 111.32C878.326 111.32 877.388 111.203 876.398 110.969C875.422 110.734 874.484 110.37 873.586 109.875C872.701 109.38 871.958 108.755 871.359 108L873.84 104.68C874.491 105.435 875.246 106.021 876.105 106.438C876.965 106.867 877.915 107.082 878.957 107.082C879.973 107.082 880.832 106.893 881.535 106.516C882.238 106.151 882.779 105.611 883.156 104.895C883.534 104.191 883.723 103.339 883.723 102.336V86.75L884.27 81.8672ZM870.051 92.6875V92.2773C870.051 90.6628 870.246 89.1979 870.637 87.8828C871.04 86.5547 871.607 85.4154 872.336 84.4648C873.078 83.5143 873.977 82.7786 875.031 82.2578C876.086 81.737 877.277 81.4766 878.605 81.4766C880.012 81.4766 881.19 81.737 882.141 82.2578C883.091 82.7786 883.872 83.5208 884.484 84.4844C885.096 85.4349 885.572 86.5612 885.91 87.8633C886.262 89.1523 886.535 90.5651 886.73 92.1016V93C886.535 94.4714 886.242 95.8385 885.852 97.1016C885.461 98.3646 884.947 99.4714 884.309 100.422C883.671 101.359 882.876 102.089 881.926 102.609C880.988 103.13 879.868 103.391 878.566 103.391C877.264 103.391 876.086 103.124 875.031 102.59C873.99 102.056 873.098 101.307 872.355 100.344C871.613 99.3802 871.04 98.2474 870.637 96.9453C870.246 95.6432 870.051 94.224 870.051 92.6875ZM875.676 92.2773V92.6875C875.676 93.5599 875.76 94.3737 875.93 95.1289C876.099 95.8841 876.359 96.5547 876.711 97.1406C877.076 97.7135 877.525 98.1628 878.059 98.4883C878.605 98.8008 879.25 98.957 879.992 98.957C881.021 98.957 881.861 98.7422 882.512 98.3125C883.163 97.8698 883.651 97.2643 883.977 96.4961C884.302 95.7279 884.491 94.8424 884.543 93.8398V91.2812C884.517 90.4609 884.406 89.7253 884.211 89.0742C884.016 88.4102 883.742 87.8438 883.391 87.375C883.039 86.9062 882.583 86.5417 882.023 86.2812C881.464 86.0208 880.799 85.8906 880.031 85.8906C879.289 85.8906 878.645 86.0599 878.098 86.3984C877.564 86.724 877.115 87.1732 876.75 87.7461C876.398 88.319 876.132 88.9961 875.949 89.7773C875.767 90.5456 875.676 91.3789 875.676 92.2773ZM899.68 81.8672V103H894.035V81.8672H899.68ZM893.684 76.3594C893.684 75.5391 893.97 74.862 894.543 74.3281C895.116 73.7943 895.884 73.5273 896.848 73.5273C897.798 73.5273 898.56 73.7943 899.133 74.3281C899.719 74.862 900.012 75.5391 900.012 76.3594C900.012 77.1797 899.719 77.8568 899.133 78.3906C898.56 78.9245 897.798 79.1914 896.848 79.1914C895.884 79.1914 895.116 78.9245 894.543 78.3906C893.97 77.8568 893.684 77.1797 893.684 76.3594ZM909.836 86.3789V103H904.211V81.8672H909.484L909.836 86.3789ZM909.016 91.6914H907.492C907.492 90.1289 907.694 88.7227 908.098 87.4727C908.501 86.2096 909.068 85.1354 909.797 84.25C910.526 83.3516 911.392 82.668 912.395 82.1992C913.41 81.7174 914.543 81.4766 915.793 81.4766C916.783 81.4766 917.688 81.6198 918.508 81.9062C919.328 82.1927 920.031 82.6484 920.617 83.2734C921.216 83.8984 921.672 84.7253 921.984 85.7539C922.31 86.7826 922.473 88.0391 922.473 89.5234V103H916.809V89.5039C916.809 88.5664 916.678 87.8372 916.418 87.3164C916.158 86.7956 915.773 86.431 915.266 86.2227C914.771 86.0013 914.159 85.8906 913.43 85.8906C912.674 85.8906 912.017 86.0404 911.457 86.3398C910.91 86.6393 910.454 87.056 910.09 87.5898C909.738 88.1107 909.471 88.7227 909.289 89.4258C909.107 90.1289 909.016 90.8841 909.016 91.6914ZM926.965 100.285C926.965 99.4518 927.251 98.7552 927.824 98.1953C928.41 97.6354 929.185 97.3555 930.148 97.3555C931.112 97.3555 931.88 97.6354 932.453 98.1953C933.039 98.7552 933.332 99.4518 933.332 100.285C933.332 101.118 933.039 101.815 932.453 102.375C931.88 102.935 931.112 103.215 930.148 103.215C929.185 103.215 928.41 102.935 927.824 102.375C927.251 101.815 926.965 101.118 926.965 100.285ZM926.965 84.1719C926.965 83.3385 927.251 82.6419 927.824 82.082C928.41 81.5221 929.185 81.2422 930.148 81.2422C931.112 81.2422 931.88 81.5221 932.453 82.082C933.039 82.6419 933.332 83.3385 933.332 84.1719C933.332 85.0052 933.039 85.7018 932.453 86.2617C931.88 86.8216 931.112 87.1016 930.148 87.1016C929.185 87.1016 928.41 86.8216 927.824 86.2617C927.251 85.7018 926.965 85.0052 926.965 84.1719ZM961.477 74.5039V103H955.852V80.9883L949.094 83.1367V78.7031L960.871 74.5039H961.477ZM989.875 86.2812V91.2031C989.875 93.3385 989.647 95.181 989.191 96.7305C988.736 98.2669 988.078 99.5299 987.219 100.52C986.372 101.496 985.363 102.219 984.191 102.688C983.02 103.156 981.717 103.391 980.285 103.391C979.139 103.391 978.072 103.247 977.082 102.961C976.092 102.661 975.201 102.199 974.406 101.574C973.625 100.949 972.948 100.161 972.375 99.2109C971.815 98.2474 971.385 97.1016 971.086 95.7734C970.786 94.4453 970.637 92.9219 970.637 91.2031V86.2812C970.637 84.1458 970.865 82.3164 971.32 80.793C971.789 79.2565 972.447 78 973.293 77.0234C974.152 76.0469 975.168 75.3307 976.34 74.875C977.512 74.4062 978.814 74.1719 980.246 74.1719C981.392 74.1719 982.453 74.3216 983.43 74.6211C984.419 74.9076 985.311 75.3568 986.105 75.9688C986.9 76.5807 987.577 77.3685 988.137 78.332C988.697 79.2826 989.126 80.4219 989.426 81.75C989.725 83.0651 989.875 84.5755 989.875 86.2812ZM984.23 91.9453V85.5195C984.23 84.4909 984.172 83.5924 984.055 82.8242C983.951 82.056 983.788 81.4049 983.566 80.8711C983.345 80.3242 983.072 79.8815 982.746 79.543C982.421 79.2044 982.049 78.957 981.633 78.8008C981.216 78.6445 980.754 78.5664 980.246 78.5664C979.608 78.5664 979.042 78.6901 978.547 78.9375C978.065 79.1849 977.655 79.582 977.316 80.1289C976.978 80.6628 976.717 81.3789 976.535 82.2773C976.366 83.1628 976.281 84.2435 976.281 85.5195V91.9453C976.281 92.974 976.333 93.8789 976.438 94.6602C976.555 95.4414 976.724 96.112 976.945 96.6719C977.18 97.2188 977.453 97.668 977.766 98.0195C978.091 98.3581 978.462 98.6055 978.879 98.7617C979.309 98.918 979.777 98.9961 980.285 98.9961C980.91 98.9961 981.464 98.8724 981.945 98.625C982.44 98.3646 982.857 97.9609 983.195 97.4141C983.547 96.8542 983.807 96.125 983.977 95.2266C984.146 94.3281 984.23 93.2344 984.23 91.9453ZM999.562 85.9297V111.125H993.938V81.8672H999.152L999.562 85.9297ZM1012.94 92.1992V92.6094C1012.94 94.1458 1012.76 95.5716 1012.39 96.8867C1012.04 98.2018 1011.52 99.3477 1010.83 100.324C1010.14 101.288 1009.28 102.043 1008.25 102.59C1007.24 103.124 1006.07 103.391 1004.74 103.391C1003.45 103.391 1002.33 103.13 1001.38 102.609C1000.43 102.089 999.628 101.359 998.977 100.422C998.339 99.4714 997.824 98.3711 997.434 97.1211C997.043 95.8711 996.743 94.5299 996.535 93.0977V92.0234C996.743 90.487 997.043 89.0807 997.434 87.8047C997.824 86.5156 998.339 85.4023 998.977 84.4648C999.628 83.5143 1000.42 82.7786 1001.36 82.2578C1002.31 81.737 1003.42 81.4766 1004.7 81.4766C1006.04 81.4766 1007.22 81.7305 1008.23 82.2383C1009.26 82.7461 1010.12 83.4753 1010.81 84.4258C1011.52 85.3763 1012.04 86.5091 1012.39 87.8242C1012.76 89.1393 1012.94 90.5977 1012.94 92.1992ZM1007.3 92.6094V92.1992C1007.3 91.3008 1007.22 90.474 1007.06 89.7188C1006.92 88.9505 1006.68 88.2799 1006.36 87.707C1006.05 87.1341 1005.63 86.6914 1005.11 86.3789C1004.6 86.0534 1003.98 85.8906 1003.25 85.8906C1002.49 85.8906 1001.83 86.0143 1001.28 86.2617C1000.75 86.5091 1000.31 86.8672 999.973 87.3359C999.634 87.8047 999.38 88.3646 999.211 89.0156C999.042 89.6667 998.938 90.4023 998.898 91.2227V93.9375C998.964 94.901 999.146 95.7669 999.445 96.5352C999.745 97.2904 1000.21 97.8893 1000.83 98.332C1001.46 98.7747 1002.28 98.9961 1003.29 98.9961C1004.04 98.9961 1004.66 98.8333 1005.17 98.5078C1005.68 98.1693 1006.09 97.707 1006.4 97.1211C1006.72 96.5352 1006.95 95.8581 1007.08 95.0898C1007.23 94.3216 1007.3 93.4948 1007.3 92.6094ZM1020.66 81.8672L1024.15 88.293L1027.75 81.8672H1033.74L1027.77 92.1992L1034.02 103H1028L1024.19 96.2031L1020.38 103H1014.37L1020.62 92.1992L1014.64 81.8672H1020.66Z" fill="#FFFFFC"/>
<path d="M823.078 640.137V651.406C822.635 651.94 821.952 652.52 821.027 653.145C820.103 653.757 818.911 654.284 817.453 654.727C815.995 655.169 814.23 655.391 812.16 655.391C810.324 655.391 808.651 655.091 807.141 654.492C805.63 653.88 804.328 652.988 803.234 651.816C802.154 650.645 801.32 649.212 800.734 647.52C800.148 645.814 799.855 643.867 799.855 641.68V639.902C799.855 637.715 800.135 635.768 800.695 634.062C801.268 632.357 802.082 630.918 803.137 629.746C804.191 628.574 805.448 627.682 806.906 627.07C808.365 626.458 809.986 626.152 811.77 626.152C814.243 626.152 816.275 626.556 817.863 627.363C819.452 628.158 820.663 629.264 821.496 630.684C822.342 632.09 822.863 633.704 823.059 635.527H817.375C817.232 634.564 816.958 633.724 816.555 633.008C816.151 632.292 815.572 631.732 814.816 631.328C814.074 630.924 813.111 630.723 811.926 630.723C810.949 630.723 810.077 630.924 809.309 631.328C808.553 631.719 807.915 632.298 807.395 633.066C806.874 633.835 806.477 634.785 806.203 635.918C805.93 637.051 805.793 638.366 805.793 639.863V641.68C805.793 643.164 805.936 644.479 806.223 645.625C806.509 646.758 806.932 647.715 807.492 648.496C808.065 649.264 808.768 649.844 809.602 650.234C810.435 650.625 811.405 650.82 812.512 650.82C813.436 650.82 814.204 650.742 814.816 650.586C815.441 650.43 815.943 650.241 816.32 650.02C816.711 649.785 817.01 649.564 817.219 649.355V644.316H811.867V640.137H823.078ZM839.953 649.941V633.867H845.578V655H840.285L839.953 649.941ZM840.578 645.605L842.238 645.566C842.238 646.973 842.076 648.281 841.75 649.492C841.424 650.69 840.936 651.732 840.285 652.617C839.634 653.49 838.814 654.173 837.824 654.668C836.835 655.15 835.669 655.391 834.328 655.391C833.299 655.391 832.349 655.247 831.477 654.961C830.617 654.661 829.875 654.199 829.25 653.574C828.638 652.936 828.156 652.122 827.805 651.133C827.466 650.13 827.297 648.926 827.297 647.52V633.867H832.922V647.559C832.922 648.184 832.993 648.711 833.137 649.141C833.293 649.57 833.508 649.922 833.781 650.195C834.055 650.469 834.374 650.664 834.738 650.781C835.116 650.898 835.533 650.957 835.988 650.957C837.147 650.957 838.059 650.723 838.723 650.254C839.4 649.785 839.875 649.147 840.148 648.34C840.435 647.52 840.578 646.608 840.578 645.605ZM860.227 633.867V637.852H847.922V633.867H860.227ZM850.969 628.652H856.594V648.633C856.594 649.245 856.672 649.714 856.828 650.039C856.997 650.365 857.245 650.592 857.57 650.723C857.896 650.84 858.306 650.898 858.801 650.898C859.152 650.898 859.465 650.885 859.738 650.859C860.025 650.82 860.266 650.781 860.461 650.742L860.48 654.883C859.999 655.039 859.478 655.163 858.918 655.254C858.358 655.345 857.74 655.391 857.062 655.391C855.826 655.391 854.745 655.189 853.82 654.785C852.909 654.368 852.206 653.704 851.711 652.793C851.216 651.882 850.969 650.684 850.969 649.199V628.652ZM873.781 633.867V637.852H861.477V633.867H873.781ZM864.523 628.652H870.148V648.633C870.148 649.245 870.227 649.714 870.383 650.039C870.552 650.365 870.799 650.592 871.125 650.723C871.451 650.84 871.861 650.898 872.355 650.898C872.707 650.898 873.02 650.885 873.293 650.859C873.579 650.82 873.82 650.781 874.016 650.742L874.035 654.883C873.553 655.039 873.033 655.163 872.473 655.254C871.913 655.345 871.294 655.391 870.617 655.391C869.38 655.391 868.299 655.189 867.375 654.785C866.464 654.368 865.76 653.704 865.266 652.793C864.771 651.882 864.523 650.684 864.523 649.199V628.652ZM886.711 655.391C885.07 655.391 883.599 655.13 882.297 654.609C880.995 654.076 879.888 653.34 878.977 652.402C878.078 651.465 877.388 650.378 876.906 649.141C876.424 647.891 876.184 646.562 876.184 645.156V644.375C876.184 642.773 876.411 641.309 876.867 639.98C877.323 638.652 877.974 637.5 878.82 636.523C879.68 635.547 880.721 634.798 881.945 634.277C883.169 633.743 884.549 633.477 886.086 633.477C887.583 633.477 888.911 633.724 890.07 634.219C891.229 634.714 892.199 635.417 892.98 636.328C893.775 637.24 894.374 638.333 894.777 639.609C895.181 640.872 895.383 642.279 895.383 643.828V646.172H878.586V642.422H889.855V641.992C889.855 641.211 889.712 640.514 889.426 639.902C889.152 639.277 888.736 638.783 888.176 638.418C887.616 638.053 886.9 637.871 886.027 637.871C885.285 637.871 884.647 638.034 884.113 638.359C883.579 638.685 883.143 639.141 882.805 639.727C882.479 640.312 882.232 641.003 882.062 641.797C881.906 642.578 881.828 643.438 881.828 644.375V645.156C881.828 646.003 881.945 646.784 882.18 647.5C882.427 648.216 882.772 648.835 883.215 649.355C883.671 649.876 884.217 650.28 884.855 650.566C885.507 650.853 886.242 650.996 887.062 650.996C888.078 650.996 889.022 650.801 889.895 650.41C890.78 650.007 891.542 649.401 892.18 648.594L894.914 651.562C894.471 652.201 893.866 652.812 893.098 653.398C892.342 653.984 891.431 654.466 890.363 654.844C889.296 655.208 888.078 655.391 886.711 655.391ZM904.211 638.477V655H898.586V633.867H903.879L904.211 638.477ZM910.578 633.73L910.48 638.945C910.207 638.906 909.875 638.874 909.484 638.848C909.107 638.809 908.762 638.789 908.449 638.789C907.655 638.789 906.965 638.893 906.379 639.102C905.806 639.297 905.324 639.59 904.934 639.98C904.556 640.371 904.27 640.846 904.074 641.406C903.892 641.966 903.788 642.604 903.762 643.32L902.629 642.969C902.629 641.602 902.766 640.345 903.039 639.199C903.312 638.04 903.71 637.031 904.23 636.172C904.764 635.312 905.415 634.648 906.184 634.18C906.952 633.711 907.831 633.477 908.82 633.477C909.133 633.477 909.452 633.503 909.777 633.555C910.103 633.594 910.37 633.652 910.578 633.73ZM913.449 652.285C913.449 651.452 913.736 650.755 914.309 650.195C914.895 649.635 915.669 649.355 916.633 649.355C917.596 649.355 918.365 649.635 918.938 650.195C919.523 650.755 919.816 651.452 919.816 652.285C919.816 653.118 919.523 653.815 918.938 654.375C918.365 654.935 917.596 655.215 916.633 655.215C915.669 655.215 914.895 654.935 914.309 654.375C913.736 653.815 913.449 653.118 913.449 652.285ZM913.449 636.172C913.449 635.339 913.736 634.642 914.309 634.082C914.895 633.522 915.669 633.242 916.633 633.242C917.596 633.242 918.365 633.522 918.938 634.082C919.523 634.642 919.816 635.339 919.816 636.172C919.816 637.005 919.523 637.702 918.938 638.262C918.365 638.822 917.596 639.102 916.633 639.102C915.669 639.102 914.895 638.822 914.309 638.262C913.736 637.702 913.449 637.005 913.449 636.172ZM940.012 638.34H943.02C943.983 638.34 944.777 638.177 945.402 637.852C946.027 637.513 946.49 637.044 946.789 636.445C947.102 635.833 947.258 635.124 947.258 634.316C947.258 633.587 947.115 632.943 946.828 632.383C946.555 631.81 946.132 631.367 945.559 631.055C944.986 630.729 944.263 630.566 943.391 630.566C942.701 630.566 942.062 630.703 941.477 630.977C940.891 631.25 940.422 631.634 940.07 632.129C939.719 632.624 939.543 633.223 939.543 633.926H933.898C933.898 632.363 934.315 631.003 935.148 629.844C935.995 628.685 937.128 627.78 938.547 627.129C939.966 626.478 941.529 626.152 943.234 626.152C945.161 626.152 946.848 626.465 948.293 627.09C949.738 627.702 950.865 628.607 951.672 629.805C952.479 631.003 952.883 632.487 952.883 634.258C952.883 635.156 952.674 636.029 952.258 636.875C951.841 637.708 951.242 638.464 950.461 639.141C949.693 639.805 948.755 640.339 947.648 640.742C946.542 641.133 945.298 641.328 943.918 641.328H940.012V638.34ZM940.012 642.617V639.707H943.918C945.467 639.707 946.828 639.883 948 640.234C949.172 640.586 950.155 641.094 950.949 641.758C951.743 642.409 952.342 643.184 952.746 644.082C953.15 644.967 953.352 645.951 953.352 647.031C953.352 648.359 953.098 649.544 952.59 650.586C952.082 651.615 951.366 652.487 950.441 653.203C949.53 653.919 948.462 654.466 947.238 654.844C946.014 655.208 944.68 655.391 943.234 655.391C942.036 655.391 940.858 655.228 939.699 654.902C938.553 654.564 937.512 654.062 936.574 653.398C935.65 652.721 934.908 651.875 934.348 650.859C933.801 649.831 933.527 648.613 933.527 647.207H939.172C939.172 647.936 939.354 648.587 939.719 649.16C940.083 649.733 940.585 650.182 941.223 650.508C941.874 650.833 942.596 650.996 943.391 650.996C944.289 650.996 945.057 650.833 945.695 650.508C946.346 650.169 946.841 649.701 947.18 649.102C947.531 648.49 947.707 647.78 947.707 646.973C947.707 645.931 947.518 645.098 947.141 644.473C946.763 643.835 946.223 643.366 945.52 643.066C944.816 642.767 943.983 642.617 943.02 642.617H940.012ZM976.359 638.281V643.203C976.359 645.339 976.132 647.181 975.676 648.73C975.22 650.267 974.562 651.53 973.703 652.52C972.857 653.496 971.848 654.219 970.676 654.688C969.504 655.156 968.202 655.391 966.77 655.391C965.624 655.391 964.556 655.247 963.566 654.961C962.577 654.661 961.685 654.199 960.891 653.574C960.109 652.949 959.432 652.161 958.859 651.211C958.299 650.247 957.87 649.102 957.57 647.773C957.271 646.445 957.121 644.922 957.121 643.203V638.281C957.121 636.146 957.349 634.316 957.805 632.793C958.273 631.257 958.931 630 959.777 629.023C960.637 628.047 961.652 627.331 962.824 626.875C963.996 626.406 965.298 626.172 966.73 626.172C967.876 626.172 968.938 626.322 969.914 626.621C970.904 626.908 971.796 627.357 972.59 627.969C973.384 628.581 974.061 629.368 974.621 630.332C975.181 631.283 975.611 632.422 975.91 633.75C976.21 635.065 976.359 636.576 976.359 638.281ZM970.715 643.945V637.52C970.715 636.491 970.656 635.592 970.539 634.824C970.435 634.056 970.272 633.405 970.051 632.871C969.829 632.324 969.556 631.882 969.23 631.543C968.905 631.204 968.534 630.957 968.117 630.801C967.701 630.645 967.238 630.566 966.73 630.566C966.092 630.566 965.526 630.69 965.031 630.938C964.549 631.185 964.139 631.582 963.801 632.129C963.462 632.663 963.202 633.379 963.02 634.277C962.85 635.163 962.766 636.243 962.766 637.52V643.945C962.766 644.974 962.818 645.879 962.922 646.66C963.039 647.441 963.208 648.112 963.43 648.672C963.664 649.219 963.938 649.668 964.25 650.02C964.576 650.358 964.947 650.605 965.363 650.762C965.793 650.918 966.262 650.996 966.77 650.996C967.395 650.996 967.948 650.872 968.43 650.625C968.924 650.365 969.341 649.961 969.68 649.414C970.031 648.854 970.292 648.125 970.461 647.227C970.63 646.328 970.715 645.234 970.715 643.945ZM986.047 637.93V663.125H980.422V633.867H985.637L986.047 637.93ZM999.426 644.199V644.609C999.426 646.146 999.243 647.572 998.879 648.887C998.527 650.202 998.007 651.348 997.316 652.324C996.626 653.288 995.767 654.043 994.738 654.59C993.723 655.124 992.551 655.391 991.223 655.391C989.934 655.391 988.814 655.13 987.863 654.609C986.913 654.089 986.112 653.359 985.461 652.422C984.823 651.471 984.309 650.371 983.918 649.121C983.527 647.871 983.228 646.53 983.02 645.098V644.023C983.228 642.487 983.527 641.081 983.918 639.805C984.309 638.516 984.823 637.402 985.461 636.465C986.112 635.514 986.906 634.779 987.844 634.258C988.794 633.737 989.908 633.477 991.184 633.477C992.525 633.477 993.703 633.73 994.719 634.238C995.747 634.746 996.607 635.475 997.297 636.426C998 637.376 998.527 638.509 998.879 639.824C999.243 641.139 999.426 642.598 999.426 644.199ZM993.781 644.609V644.199C993.781 643.301 993.703 642.474 993.547 641.719C993.404 640.951 993.169 640.28 992.844 639.707C992.531 639.134 992.115 638.691 991.594 638.379C991.086 638.053 990.467 637.891 989.738 637.891C988.97 637.891 988.312 638.014 987.766 638.262C987.232 638.509 986.796 638.867 986.457 639.336C986.118 639.805 985.865 640.365 985.695 641.016C985.526 641.667 985.422 642.402 985.383 643.223V645.938C985.448 646.901 985.63 647.767 985.93 648.535C986.229 649.29 986.691 649.889 987.316 650.332C987.941 650.775 988.762 650.996 989.777 650.996C990.52 650.996 991.145 650.833 991.652 650.508C992.16 650.169 992.57 649.707 992.883 649.121C993.208 648.535 993.436 647.858 993.566 647.09C993.71 646.322 993.781 645.495 993.781 644.609ZM1007.14 633.867L1010.64 640.293L1014.23 633.867H1020.23L1014.25 644.199L1020.5 655H1014.48L1010.68 648.203L1006.87 655H1000.85L1007.1 644.199L1001.12 633.867H1007.14Z" fill="#FFFFFC"/>
<path d="M643.333 364C643.333 356.636 637.364 350.667 630 350.667C622.636 350.667 616.667 356.636 616.667 364C616.667 371.364 622.636 377.333 630 377.333C637.364 377.333 643.333 371.364 643.333 364ZM780 361.5H630V366.5H780V361.5Z" fill="#F94E9B"/>
<path d="M691.333 88C691.333 80.6362 685.364 74.6667 678 74.6667C670.636 74.6667 664.667 80.6362 664.667 88C664.667 95.3638 670.636 101.333 678 101.333C685.364 101.333 691.333 95.3638 691.333 88ZM780 85.5L678 85.5V90.5L780 90.5V85.5Z" fill="#F94E9B"/>
<path d="M588.333 644C588.333 636.636 582.364 630.667 575 630.667C567.636 630.667 561.667 636.636 561.667 644C561.667 651.364 567.636 657.333 575 657.333C582.364 657.333 588.333 651.364 588.333 644ZM786 641.5L575 641.5L575 646.5L786 646.5L786 641.5Z" fill="#F94E9B"/>
<path d="M200.768 10.2322C199.791 9.25592 198.209 9.25592 197.232 10.2322L181.322 26.1421C180.346 27.1184 180.346 28.7014 181.322 29.6777C182.299 30.654 183.882 30.654 184.858 29.6777L199 15.5355L213.142 29.6777C214.118 30.654 215.701 30.654 216.678 29.6777C217.654 28.7014 217.654 27.1184 216.678 26.1421L200.768 10.2322ZM197.232 932.768C198.209 933.744 199.791 933.744 200.768 932.768L216.678 916.858C217.654 915.881 217.654 914.299 216.678 913.322C215.701 912.346 214.118 912.346 213.142 913.322L199 927.464L184.858 913.322C183.882 912.346 182.299 912.346 181.322 913.322C180.346 914.299 180.346 915.881 181.322 916.858L197.232 932.768ZM196.5 12L196.5 931L201.5 931L201.5 12L196.5 12Z" fill="#F94E9B"/>
<path d="M5.9375 480.723H6.30859C7.87109 480.723 9.21224 480.534 10.332 480.156C11.4648 479.766 12.3958 479.206 13.125 478.477C13.8542 477.747 14.3945 476.855 14.7461 475.801C15.0977 474.733 15.2734 473.522 15.2734 472.168V466.777C15.2734 465.749 15.1693 464.844 14.9609 464.062C14.7656 463.281 14.4792 462.637 14.1016 462.129C13.737 461.608 13.3073 461.217 12.8125 460.957C12.3307 460.697 11.7969 460.566 11.2109 460.566C10.5859 460.566 10.0326 460.723 9.55078 461.035C9.06901 461.335 8.65885 461.745 8.32031 462.266C7.99479 462.786 7.74089 463.385 7.55859 464.062C7.38932 464.727 7.30469 465.423 7.30469 466.152C7.30469 466.882 7.38932 467.578 7.55859 468.242C7.72786 468.893 7.98177 469.473 8.32031 469.98C8.65885 470.475 9.08203 470.872 9.58984 471.172C10.0977 471.458 10.6966 471.602 11.3867 471.602C12.0508 471.602 12.6432 471.478 13.1641 471.23C13.6979 470.97 14.1471 470.632 14.5117 470.215C14.8893 469.798 15.1758 469.336 15.3711 468.828C15.5794 468.32 15.6836 467.806 15.6836 467.285L17.5391 468.301C17.5391 469.212 17.3438 470.111 16.9531 470.996C16.5625 471.882 16.0156 472.689 15.3125 473.418C14.6224 474.134 13.8216 474.707 12.9102 475.137C11.9987 475.566 11.0221 475.781 9.98047 475.781C8.65234 475.781 7.47396 475.54 6.44531 475.059C5.41667 474.564 4.54427 473.887 3.82812 473.027C3.125 472.155 2.59115 471.139 2.22656 469.98C1.86198 468.822 1.67969 467.565 1.67969 466.211C1.67969 464.831 1.90104 463.535 2.34375 462.324C2.79948 461.113 3.44401 460.046 4.27734 459.121C5.1237 458.197 6.13281 457.474 7.30469 456.953C8.48958 456.419 9.80469 456.152 11.25 456.152C12.6953 456.152 14.0104 456.432 15.1953 456.992C16.3802 457.552 17.3958 458.346 18.2422 459.375C19.0885 460.391 19.7396 461.608 20.1953 463.027C20.6641 464.447 20.8984 466.022 20.8984 467.754V469.707C20.8984 471.556 20.6966 473.275 20.293 474.863C19.9023 476.452 19.3099 477.891 18.5156 479.18C17.7344 480.456 16.7578 481.549 15.5859 482.461C14.4271 483.372 13.0794 484.069 11.543 484.551C10.0065 485.033 8.28776 485.273 6.38672 485.273H5.9375V480.723ZM30.6836 468.34H33.6914C34.6549 468.34 35.4492 468.177 36.0742 467.852C36.6992 467.513 37.1615 467.044 37.4609 466.445C37.7734 465.833 37.9297 465.124 37.9297 464.316C37.9297 463.587 37.7865 462.943 37.5 462.383C37.2266 461.81 36.8034 461.367 36.2305 461.055C35.6576 460.729 34.9349 460.566 34.0625 460.566C33.3724 460.566 32.7344 460.703 32.1484 460.977C31.5625 461.25 31.0938 461.634 30.7422 462.129C30.3906 462.624 30.2148 463.223 30.2148 463.926H24.5703C24.5703 462.363 24.987 461.003 25.8203 459.844C26.6667 458.685 27.7995 457.78 29.2188 457.129C30.638 456.478 32.2005 456.152 33.9062 456.152C35.8333 456.152 37.5195 456.465 38.9648 457.09C40.4102 457.702 41.5365 458.607 42.3438 459.805C43.151 461.003 43.5547 462.487 43.5547 464.258C43.5547 465.156 43.3464 466.029 42.9297 466.875C42.513 467.708 41.9141 468.464 41.1328 469.141C40.3646 469.805 39.4271 470.339 38.3203 470.742C37.2135 471.133 35.9701 471.328 34.5898 471.328H30.6836V468.34ZM30.6836 472.617V469.707H34.5898C36.1393 469.707 37.5 469.883 38.6719 470.234C39.8438 470.586 40.8268 471.094 41.6211 471.758C42.4154 472.409 43.0143 473.184 43.418 474.082C43.8216 474.967 44.0234 475.951 44.0234 477.031C44.0234 478.359 43.7695 479.544 43.2617 480.586C42.7539 481.615 42.0378 482.487 41.1133 483.203C40.2018 483.919 39.1341 484.466 37.9102 484.844C36.6862 485.208 35.3516 485.391 33.9062 485.391C32.7083 485.391 31.5299 485.228 30.3711 484.902C29.2253 484.564 28.1836 484.062 27.2461 483.398C26.3216 482.721 25.5794 481.875 25.0195 480.859C24.4727 479.831 24.1992 478.613 24.1992 477.207H29.8438C29.8438 477.936 30.026 478.587 30.3906 479.16C30.7552 479.733 31.2565 480.182 31.8945 480.508C32.5456 480.833 33.2682 480.996 34.0625 480.996C34.9609 480.996 35.7292 480.833 36.3672 480.508C37.0182 480.169 37.513 479.701 37.8516 479.102C38.2031 478.49 38.3789 477.78 38.3789 476.973C38.3789 475.931 38.1901 475.098 37.8125 474.473C37.4349 473.835 36.8945 473.366 36.1914 473.066C35.4883 472.767 34.6549 472.617 33.6914 472.617H30.6836ZM67.3438 480.605V485H47.8906V481.25L57.0898 471.387C58.0143 470.358 58.7435 469.453 59.2773 468.672C59.8112 467.878 60.1953 467.168 60.4297 466.543C60.6771 465.905 60.8008 465.299 60.8008 464.727C60.8008 463.867 60.6576 463.132 60.3711 462.52C60.0846 461.895 59.6615 461.413 59.1016 461.074C58.5547 460.736 57.8776 460.566 57.0703 460.566C56.2109 460.566 55.4688 460.775 54.8438 461.191C54.2318 461.608 53.763 462.188 53.4375 462.93C53.125 463.672 52.9688 464.512 52.9688 465.449H47.3242C47.3242 463.757 47.7279 462.207 48.5352 460.801C49.3424 459.382 50.4818 458.255 51.9531 457.422C53.4245 456.576 55.1693 456.152 57.1875 456.152C59.1797 456.152 60.8594 456.478 62.2266 457.129C63.6068 457.767 64.6484 458.691 65.3516 459.902C66.0677 461.1 66.4258 462.533 66.4258 464.199C66.4258 465.137 66.276 466.055 65.9766 466.953C65.6771 467.839 65.2474 468.724 64.6875 469.609C64.1406 470.482 63.4766 471.367 62.6953 472.266C61.9141 473.164 61.0482 474.095 60.0977 475.059L55.1562 480.605H67.3438ZM76.7188 467.93V493.125H71.0938V463.867H76.3086L76.7188 467.93ZM90.0977 474.199V474.609C90.0977 476.146 89.9154 477.572 89.5508 478.887C89.1992 480.202 88.6784 481.348 87.9883 482.324C87.2982 483.288 86.4388 484.043 85.4102 484.59C84.3945 485.124 83.2227 485.391 81.8945 485.391C80.6055 485.391 79.4857 485.13 78.5352 484.609C77.5846 484.089 76.7839 483.359 76.1328 482.422C75.4948 481.471 74.9805 480.371 74.5898 479.121C74.1992 477.871 73.8997 476.53 73.6914 475.098V474.023C73.8997 472.487 74.1992 471.081 74.5898 469.805C74.9805 468.516 75.4948 467.402 76.1328 466.465C76.7839 465.514 77.5781 464.779 78.5156 464.258C79.4661 463.737 80.5794 463.477 81.8555 463.477C83.1966 463.477 84.375 463.73 85.3906 464.238C86.4193 464.746 87.2786 465.475 87.9688 466.426C88.6719 467.376 89.1992 468.509 89.5508 469.824C89.9154 471.139 90.0977 472.598 90.0977 474.199ZM84.4531 474.609V474.199C84.4531 473.301 84.375 472.474 84.2188 471.719C84.0755 470.951 83.8411 470.28 83.5156 469.707C83.2031 469.134 82.7865 468.691 82.2656 468.379C81.7578 468.053 81.1393 467.891 80.4102 467.891C79.6419 467.891 78.9844 468.014 78.4375 468.262C77.9036 468.509 77.4674 468.867 77.1289 469.336C76.7904 469.805 76.5365 470.365 76.3672 471.016C76.1979 471.667 76.0938 472.402 76.0547 473.223V475.938C76.1198 476.901 76.3021 477.767 76.6016 478.535C76.901 479.29 77.3633 479.889 77.9883 480.332C78.6133 480.775 79.4336 480.996 80.4492 480.996C81.1914 480.996 81.8164 480.833 82.3242 480.508C82.832 480.169 83.2422 479.707 83.5547 479.121C83.8802 478.535 84.1081 477.858 84.2383 477.09C84.3815 476.322 84.4531 475.495 84.4531 474.609ZM97.8125 463.867L101.309 470.293L104.902 463.867H110.898L104.922 474.199L111.172 485H105.156L101.348 478.203L97.5391 485H91.5234L97.7734 474.199L91.7969 463.867H97.8125Z" fill="white"/>
<path d="M429.875 1051.38V1055.79H409.387L409.113 1052.37L420.969 1033.56H425.441L420.598 1041.67L414.699 1051.38H429.875ZM426.652 1033.56V1062H421.027V1033.56H426.652ZM438.684 1045.34H441.691C442.655 1045.34 443.449 1045.18 444.074 1044.85C444.699 1044.51 445.161 1044.04 445.461 1043.45C445.773 1042.83 445.93 1042.12 445.93 1041.32C445.93 1040.59 445.786 1039.94 445.5 1039.38C445.227 1038.81 444.803 1038.37 444.23 1038.05C443.658 1037.73 442.935 1037.57 442.062 1037.57C441.372 1037.57 440.734 1037.7 440.148 1037.98C439.562 1038.25 439.094 1038.63 438.742 1039.13C438.391 1039.62 438.215 1040.22 438.215 1040.93H432.57C432.57 1039.36 432.987 1038 433.82 1036.84C434.667 1035.68 435.799 1034.78 437.219 1034.13C438.638 1033.48 440.201 1033.15 441.906 1033.15C443.833 1033.15 445.52 1033.46 446.965 1034.09C448.41 1034.7 449.536 1035.61 450.344 1036.8C451.151 1038 451.555 1039.49 451.555 1041.26C451.555 1042.16 451.346 1043.03 450.93 1043.88C450.513 1044.71 449.914 1045.46 449.133 1046.14C448.365 1046.8 447.427 1047.34 446.32 1047.74C445.214 1048.13 443.97 1048.33 442.59 1048.33H438.684V1045.34ZM438.684 1049.62V1046.71H442.59C444.139 1046.71 445.5 1046.88 446.672 1047.23C447.844 1047.59 448.827 1048.09 449.621 1048.76C450.415 1049.41 451.014 1050.18 451.418 1051.08C451.822 1051.97 452.023 1052.95 452.023 1054.03C452.023 1055.36 451.77 1056.54 451.262 1057.59C450.754 1058.61 450.038 1059.49 449.113 1060.2C448.202 1060.92 447.134 1061.47 445.91 1061.84C444.686 1062.21 443.352 1062.39 441.906 1062.39C440.708 1062.39 439.53 1062.23 438.371 1061.9C437.225 1061.56 436.184 1061.06 435.246 1060.4C434.322 1059.72 433.579 1058.88 433.02 1057.86C432.473 1056.83 432.199 1055.61 432.199 1054.21H437.844C437.844 1054.94 438.026 1055.59 438.391 1056.16C438.755 1056.73 439.257 1057.18 439.895 1057.51C440.546 1057.83 441.268 1058 442.062 1058C442.961 1058 443.729 1057.83 444.367 1057.51C445.018 1057.17 445.513 1056.7 445.852 1056.1C446.203 1055.49 446.379 1054.78 446.379 1053.97C446.379 1052.93 446.19 1052.1 445.812 1051.47C445.435 1050.83 444.895 1050.37 444.191 1050.07C443.488 1049.77 442.655 1049.62 441.691 1049.62H438.684ZM475.031 1045.28V1050.2C475.031 1052.34 474.803 1054.18 474.348 1055.73C473.892 1057.27 473.234 1058.53 472.375 1059.52C471.529 1060.5 470.52 1061.22 469.348 1061.69C468.176 1062.16 466.874 1062.39 465.441 1062.39C464.296 1062.39 463.228 1062.25 462.238 1061.96C461.249 1061.66 460.357 1061.2 459.562 1060.57C458.781 1059.95 458.104 1059.16 457.531 1058.21C456.971 1057.25 456.542 1056.1 456.242 1054.77C455.943 1053.45 455.793 1051.92 455.793 1050.2V1045.28C455.793 1043.15 456.021 1041.32 456.477 1039.79C456.945 1038.26 457.603 1037 458.449 1036.02C459.309 1035.05 460.324 1034.33 461.496 1033.88C462.668 1033.41 463.97 1033.17 465.402 1033.17C466.548 1033.17 467.609 1033.32 468.586 1033.62C469.576 1033.91 470.467 1034.36 471.262 1034.97C472.056 1035.58 472.733 1036.37 473.293 1037.33C473.853 1038.28 474.283 1039.42 474.582 1040.75C474.882 1042.07 475.031 1043.58 475.031 1045.28ZM469.387 1050.95V1044.52C469.387 1043.49 469.328 1042.59 469.211 1041.82C469.107 1041.06 468.944 1040.4 468.723 1039.87C468.501 1039.32 468.228 1038.88 467.902 1038.54C467.577 1038.2 467.206 1037.96 466.789 1037.8C466.372 1037.64 465.91 1037.57 465.402 1037.57C464.764 1037.57 464.198 1037.69 463.703 1037.94C463.221 1038.18 462.811 1038.58 462.473 1039.13C462.134 1039.66 461.874 1040.38 461.691 1041.28C461.522 1042.16 461.438 1043.24 461.438 1044.52V1050.95C461.438 1051.97 461.49 1052.88 461.594 1053.66C461.711 1054.44 461.88 1055.11 462.102 1055.67C462.336 1056.22 462.609 1056.67 462.922 1057.02C463.247 1057.36 463.618 1057.61 464.035 1057.76C464.465 1057.92 464.934 1058 465.441 1058C466.066 1058 466.62 1057.87 467.102 1057.62C467.596 1057.36 468.013 1056.96 468.352 1056.41C468.703 1055.85 468.964 1055.12 469.133 1054.23C469.302 1053.33 469.387 1052.23 469.387 1050.95ZM484.719 1044.93V1070.12H479.094V1040.87H484.309L484.719 1044.93ZM498.098 1051.2V1051.61C498.098 1053.15 497.915 1054.57 497.551 1055.89C497.199 1057.2 496.678 1058.35 495.988 1059.32C495.298 1060.29 494.439 1061.04 493.41 1061.59C492.395 1062.12 491.223 1062.39 489.895 1062.39C488.605 1062.39 487.486 1062.13 486.535 1061.61C485.585 1061.09 484.784 1060.36 484.133 1059.42C483.495 1058.47 482.98 1057.37 482.59 1056.12C482.199 1054.87 481.9 1053.53 481.691 1052.1V1051.02C481.9 1049.49 482.199 1048.08 482.59 1046.8C482.98 1045.52 483.495 1044.4 484.133 1043.46C484.784 1042.51 485.578 1041.78 486.516 1041.26C487.466 1040.74 488.579 1040.48 489.855 1040.48C491.197 1040.48 492.375 1040.73 493.391 1041.24C494.419 1041.75 495.279 1042.48 495.969 1043.43C496.672 1044.38 497.199 1045.51 497.551 1046.82C497.915 1048.14 498.098 1049.6 498.098 1051.2ZM492.453 1051.61V1051.2C492.453 1050.3 492.375 1049.47 492.219 1048.72C492.076 1047.95 491.841 1047.28 491.516 1046.71C491.203 1046.13 490.786 1045.69 490.266 1045.38C489.758 1045.05 489.139 1044.89 488.41 1044.89C487.642 1044.89 486.984 1045.01 486.438 1045.26C485.904 1045.51 485.467 1045.87 485.129 1046.34C484.79 1046.8 484.536 1047.36 484.367 1048.02C484.198 1048.67 484.094 1049.4 484.055 1050.22V1052.94C484.12 1053.9 484.302 1054.77 484.602 1055.54C484.901 1056.29 485.363 1056.89 485.988 1057.33C486.613 1057.77 487.434 1058 488.449 1058C489.191 1058 489.816 1057.83 490.324 1057.51C490.832 1057.17 491.242 1056.71 491.555 1056.12C491.88 1055.54 492.108 1054.86 492.238 1054.09C492.382 1053.32 492.453 1052.49 492.453 1051.61ZM505.812 1040.87L509.309 1047.29L512.902 1040.87H518.898L512.922 1051.2L519.172 1062H513.156L509.348 1055.2L505.539 1062H499.523L505.773 1051.2L499.797 1040.87H505.812Z" fill="white"/>
<path d="M248.232 990.232C247.256 991.209 247.256 992.791 248.232 993.768L264.142 1009.68C265.118 1010.65 266.701 1010.65 267.678 1009.68C268.654 1008.7 268.654 1007.12 267.678 1006.14L253.536 992L267.678 977.858C268.654 976.882 268.654 975.299 267.678 974.322C266.701 973.346 265.118 973.346 264.142 974.322L248.232 990.232ZM679.768 993.768C680.744 992.791 680.744 991.209 679.768 990.232L663.858 974.322C662.882 973.346 661.299 973.346 660.322 974.322C659.346 975.299 659.346 976.882 660.322 977.858L674.465 992L660.322 1006.14C659.346 1007.12 659.346 1008.7 660.322 1009.68C661.299 1010.65 662.882 1010.65 663.858 1009.68L679.768 993.768ZM250 994.5H678V989.5H250V994.5Z" fill="#F94E9B"/>
</g>
<defs>
<filter id="filter0_d_105_999" x="246" y="0" width="438" height="940" filterUnits="userSpaceOnUse" color-interpolation-filters="sRGB">
<feFlood flood-opacity="0" result="BackgroundImageFix"/>
<feColorMatrix in="SourceAlpha" type="matrix" values="0 0 0 0 0 0 0 0 0 0 0 0 0 0 0 0 0 0 127 0" result="hardAlpha"/>
<feOffset dy="4"/>
<feGaussianBlur stdDeviation="2"/>
<feComposite in2="hardAlpha" operator="out"/>
<feColorMatrix type="matrix" values="0 0 0 0 0 0 0 0 0 0 0 0 0 0 0 0 0 0 0.25 0"/>
<feBlend mode="normal" in2="BackgroundImageFix" result="effect1_dropShadow_105_999"/>
<feBlend mode="normal" in="SourceGraphic" in2="effect1_dropShadow_105_999" result="shape"/>
</filter>
<clipPath id="clip0_105_999">
<rect width="1158" height="1082" fill="white"/>
</clipPath>
<clipPath id="clip1_105_999">
<rect width="430" height="932" rx="20" transform="matrix(-1 0 0 1 680 0)" fill="white"/>
</clipPath>
</defs>
</svg>
